<svg width="40" height="40" viewBox="0 0 40 40" fill="none" xmlns="http://www.w3.org/2000/svg">
<path fill="#2C2B2A" fill-rule="evenodd" d="M6.665 20c0 10.755 2.58 13.335 13.335 13.335S33.335 30.755 33.335 20 30.755 6.665 20 6.665 6.665 9.245 6.665 20Zm5.377 2.77 4.183-9.505c.706-1.603 2.064-2.472 3.775-2.472 1.711 0 3.069.87 3.775 2.472l4.183 9.505c.19.462.353 1.06.353 1.575 0 2.363-1.657 4.02-4.02 4.02-.805 0-1.444-.205-2.091-.413-.663-.213-1.334-.43-2.2-.43-.856 0-1.544.219-2.22.433-.654.206-1.297.41-2.071.41-2.363 0-4.02-1.657-4.02-4.02 0-.516.163-1.113.353-1.575ZM20 14.921l-4.128 9.343c1.222-.57 2.634-.842 4.128-.842 1.44 0 2.906.272 4.074.842L20 14.921Z" clip-rule="evenodd"/>
</svg>