<svg xmlns="http://www.w3.org/2000/svg" width="40" height="40" viewBox="0 0 323 121" fill="none">
  <path d="M11.6073 120.333C8.38308 120.333 5.64246 119.259 3.38547 117.11C1.12849 114.906 0 112.289 0 109.259C0 106.173 1.12849 103.529 3.38547 101.325C5.64246 99.1207 8.38308 98.0188 11.6073 98.0188C14.8853 98.0188 17.6528 99.1207 19.9098 101.325C22.2205 103.529 23.3759 106.173 23.3759 109.259C23.3759 112.289 22.2205 114.906 19.9098 117.11C17.6528 119.259 14.8853 120.333 11.6073 120.333Z" fill="white"/>
  <path d="M140.5 118.515H119.543L64.3272 31.4057C62.93 29.2018 61.7747 26.9152 60.8611 24.546H60.3775C60.8074 27.0805 61.0224 32.5076 61.0224 40.8274V118.515H42.4829V0H64.8109L118.172 85.0433C120.429 88.5695 121.88 90.9938 122.525 92.3162H122.848C122.31 89.1756 122.041 83.8587 122.041 76.3654V0H140.5V118.515Z" fill="white"/>
  <path d="M230.783 118.515H165.895V0H228.204V16.6946H185.079V50.2491H224.818V66.861H185.079V101.903H230.783V118.515Z" fill="white"/>
  <path d="M323 16.6946H289.79V118.515H270.606V16.6946H237.476V0H323V16.6946Z" fill="white"/>
</svg>