<?xml version="1.0" encoding="UTF-8"?>
<svg width="40px" height="40px" viewBox="0 0 40 40" version="1.1" xmlns="http://www.w3.org/2000/svg" xmlns:xlink="http://www.w3.org/1999/xlink">
    <title>eleventy-white.react</title>
    <g id="eleventy-white.react" stroke="none" stroke-width="1" fill="none" fill-rule="evenodd">
        <path d="M14.5810847,28.4993062 C14.358135,28.4993062 14.2466602,28.2047177 14.2466602,27.6130857 L14.2466602,13.0039492 C14.2466602,12.7216352 14.1896842,12.5890703 14.0732549,12.6062547 C13.3697249,12.7830078 13.0154826,12.8713844 13.0055737,12.8713844 C12.8098735,12.8885687 12.713262,12.6946312 12.713262,12.289572 L12.713262,11.0203864 C12.713262,10.669335 12.8197824,10.4704878 13.0328231,10.4262995 L16.5554278,9.52780446 C16.5826772,9.52043975 16.6223127,9.51552994 16.6743342,9.51552994 C16.8700345,9.51552994 16.966646,9.72174191 16.966646,10.1366208 L16.966646,27.6155406 C16.966646,28.2071726 16.8502168,28.5017611 16.6198354,28.5017611 L14.5810847,28.4993062 Z M23.7046802,28.5263102 C23.3479607,28.5263102 23.0407856,28.5017611 22.7782005,28.452663 C22.5156153,28.4035649 22.2431213,28.2930942 21.9582412,28.1212509 C21.6733611,27.9494076 21.4405025,27.7137368 21.2571884,27.4142384 C21.0738742,27.1147401 20.9252411,26.6949514 20.811289,26.1573274 C20.697337,25.6197033 20.6378837,24.9814281 20.6378837,24.240047 L20.6378837,17.4596008 C20.6378837,17.2828477 20.5883394,17.1944711 20.4917279,17.1944711 L19.6643369,17.1944711 C19.4413872,17.1944711 19.3299124,16.9833493 19.3299124,16.5611058 L19.3299124,15.8467286 C19.3299124,15.4146654 19.4413872,15.1986338 19.6643369,15.1986338 L20.4917279,15.1986338 C20.5883394,15.1986338 20.6378837,15.0807984 20.6378837,14.8426726 L20.8781739,9.69964777 C20.9054233,9.23321592 21.0193754,9 21.2249845,9 L22.5602053,9 C22.7831549,9 22.8946297,9.23321592 22.8946297,9.69964777 L22.8946297,14.8426726 C22.8946297,15.0807984 22.9466513,15.1986338 23.0556489,15.1986338 L24.757498,15.1986338 C24.9804477,15.1986338 25.0919225,15.4146654 25.0919225,15.8467286 L25.0919225,16.5611058 C25.0919225,16.9833493 24.9804477,17.1944711 24.757498,17.1944711 L23.0506945,17.1944711 C22.988764,17.1944711 22.9466513,17.2092006 22.9243564,17.2411143 C22.9020614,17.2705732 22.8921525,17.3442203 22.8921525,17.4596008 L22.8921525,24.2817803 C22.8921525,24.7924005 22.9243564,25.2195538 22.9912413,25.5583307 C23.0581262,25.8971075 23.1547377,26.1475077 23.283553,26.3046216 C23.4123684,26.4617355 23.5411838,26.5697513 23.6699991,26.6213043 C23.7988145,26.6753122 23.9573565,26.6998612 24.1431478,26.6998612 L25.0894453,26.6998612 C25.3297355,26.6998612 25.448642,26.8643398 25.448642,27.1883872 L25.448642,27.9813214 C25.448642,28.3421923 25.3198266,28.5238553 25.0621959,28.5238553 L23.7046802,28.5263102 Z M28.8250907,30.1121785 C29.0282226,30.1121785 29.2065823,29.9476999 29.3576926,29.6162878 C29.508803,29.2848757 29.5855967,28.8159889 29.5855967,28.2071726 C29.5855967,28.0647881 29.4964169,27.5762621 29.3180572,26.7391397 L26.7021145,15.964564 C26.684774,15.8418188 26.6748651,15.7436226 26.6748651,15.6724304 C26.6748651,15.3557477 26.74175,15.1961789 26.8755198,15.1961789 L28.4906662,15.1961789 C28.6145271,15.1961789 28.7160931,15.2379123 28.7978413,15.321379 C28.8795895,15.4048458 28.94152,15.5742342 28.9836327,15.8295442 L30.7176856,24.9249653 C30.7523666,25.0305262 30.7746616,25.0845341 30.7845705,25.0845341 C30.8192515,25.0845341 30.8390693,25.035436 30.8390693,24.9396947 L32.1990622,15.8688227 C32.2337433,15.603693 32.2907193,15.4269399 32.3650358,15.3336535 C32.4393524,15.2403672 32.5359639,15.193724 32.6523932,15.193724 L33.7720959,15.193724 C33.9232062,15.193724 34,15.3655673 34,15.7092539 C34,15.7878109 33.9900911,15.8909169 33.9727506,16.0136621 L31.5970981,28.2710001 C31.4113067,29.2848757 31.2056976,30.0606255 30.9827479,30.5982495 C30.7597983,31.1358736 30.5120764,31.5016544 30.234628,31.6955918 C29.9596567,31.8895293 29.5955056,31.9901804 29.1396974,32 L29.0059276,32 C28.2850571,32 27.797045,31.8109724 27.5394143,31.4304622 C27.467575,31.3519052 27.4328939,31.1481481 27.4328939,30.8216459 C27.4328939,30.1686413 27.5394143,29.842139 27.7524551,29.842139 C27.7697956,29.842139 27.9308148,29.8863272 28.2330355,29.9747038 C28.5402106,30.0679902 28.7359108,30.1121785 28.8250907,30.1121785 L28.8250907,30.1121785 Z M7.8678227,28.5238553 C7.64487304,28.5238553 7.53339821,28.2292667 7.53339821,27.6376348 L7.53339821,13.0284982 C7.53339821,12.7461842 7.47642219,12.6136194 7.35999292,12.6308037 C6.65646289,12.8075568 6.30222065,12.8959334 6.29231178,12.8959334 C6.09661152,12.9131177 6,12.7191803 6,12.314121 L6,11.0449354 C6,10.6938841 6.10652039,10.4950368 6.31956118,10.4508485 L9.84464302,9.5498986 C9.87189242,9.54253389 9.91152791,9.53762408 9.9635495,9.53762408 C10.1592498,9.53762408 10.2558613,9.74383606 10.2558613,10.1587149 L10.2558613,27.6376348 C10.2558613,28.2292667 10.139432,28.5238553 9.90905069,28.5238553 L7.8678227,28.5238553 Z" id="Shape" stroke="#FFFFFF" stroke-width="0.693621163" fill="#FFFFFF" fill-rule="nonzero"></path>
    </g>
</svg>