<svg xmlns="http://www.w3.org/2000/svg" width="40" height="40" fill="none"><path fill="#F44250" d="M29.587 19.6a3.19 3.19 0 0 1-.936 2.262 3.184 3.184 0 0 1-2.26.938 3.18 3.18 0 0 0-2.259.937A3.193 3.193 0 0 0 23.196 26a3.19 3.19 0 0 1-.936 2.262A3.184 3.184 0 0 1 20 29.2a3.181 3.181 0 0 1-2.26-.938A3.19 3.19 0 0 1 16.805 26c0-.884.358-1.684.937-2.263A3.18 3.18 0 0 1 20 22.8c.883 0 1.682-.358 2.26-.938a3.19 3.19 0 0 0 .936-2.262c0-1.768-1.43-3.2-3.196-3.2a3.181 3.181 0 0 1-2.26-.938 3.19 3.19 0 0 1-.936-2.262c0-.884.358-1.684.937-2.263A3.18 3.18 0 0 1 20 10a3.197 3.197 0 0 1 3.196 3.2c0 .884.358 1.684.936 2.262.578.58 1.377.938 2.26.938a3.197 3.197 0 0 1 3.195 3.2Z"/><path fill="#fff" d="M16.804 19.6c0-1.767-1.43-3.2-3.195-3.2a3.198 3.198 0 0 0-3.196 3.2c0 1.767 1.43 3.2 3.195 3.2a3.198 3.198 0 0 0 3.196-3.2ZM10.413 26c0-1.767-1.431-3.2-3.196-3.2A3.198 3.198 0 0 0 4.021 26c0 1.767 1.431 3.2 3.196 3.2a3.198 3.198 0 0 0 3.196-3.2ZM35.979 26c0-1.767-1.431-3.2-3.196-3.2a3.198 3.198 0 0 0-3.196 3.2c0 1.767 1.431 3.2 3.196 3.2a3.198 3.198 0 0 0 3.196-3.2Z"/></svg>
