<svg xmlns="http://www.w3.org/2000/svg" width="40" height="40"><defs><linearGradient id="prefix__a" gradientUnits="userSpaceOnUse" x1="887.4" y1="1515.4" x2="1426.2" y2="2354.9" gradientTransform="scale(.016 .01706)"><stop offset="0" stop-color="#ffbc9c"/><stop offset=".7" stop-color="#ffbc9c"/><stop offset="1" stop-color="#ffa67a"/></linearGradient><linearGradient id="prefix__b" gradientUnits="userSpaceOnUse" x1="619.7" y1="1842.9" x2="570.9" y2="2039.3" gradientTransform="scale(.016 .01706)"><stop offset="0" stop-color="#f28773"/><stop offset=".3" stop-color="#f28773"/><stop offset="1" stop-color="#f6a66a"/></linearGradient><linearGradient id="prefix__c" gradientUnits="userSpaceOnUse" x1="697.5" y1="1937.2" x2="637.8" y2="2170.3" gradientTransform="scale(.016 .01706)"><stop offset="0" stop-color="#f28773"/><stop offset=".3" stop-color="#f28773"/><stop offset="1" stop-color="#f6a66a"/></linearGradient><linearGradient id="prefix__e" gradientUnits="userSpaceOnUse" x1="860.8" y1="2032" x2="767.6" y2="2378.4" gradientTransform="scale(.016 .01706)"><stop offset="0" stop-color="#f28773"/><stop offset=".3" stop-color="#f28773"/><stop offset="1" stop-color="#f6a66a"/></linearGradient><linearGradient id="prefix__g" gradientUnits="userSpaceOnUse" x1="1837" y1="2168.8" x2="1891.9" y2="2355.9" gradientTransform="scale(.016 .01706)"><stop offset="0" stop-color="#f57a55"/><stop offset=".4" stop-color="#f28773"/><stop offset="1" stop-color="#fa9f6e"/></linearGradient><linearGradient id="prefix__h" gradientUnits="userSpaceOnUse" x1="1929.1" y1="2064.7" x2="2011.7" y2="2237.2" gradientTransform="scale(.016 .01706)"><stop offset="0" stop-color="#f57a55"/><stop offset=".4" stop-color="#f28773"/><stop offset="1" stop-color="#fa9f6e"/></linearGradient><linearGradient id="prefix__i" gradientUnits="userSpaceOnUse" x1="2003.9" y1="1992.4" x2="2071.1" y2="2115.3" gradientTransform="scale(.016 .01706)"><stop offset="0" stop-color="#f57a55"/><stop offset=".4" stop-color="#f28773"/><stop offset="1" stop-color="#fa9f6e"/></linearGradient><linearGradient id="prefix__j" gradientUnits="userSpaceOnUse" x1="1575.7" y1="453.7" x2="1575.7" y2="1070" gradientTransform="scale(.016 .01706)"><stop offset="0" stop-color="#ffe768"/><stop offset=".4" stop-color="#ffe768"/><stop offset=".7" stop-color="#ffbd4a"/><stop offset="1" stop-color="#ffbd4a"/></linearGradient><linearGradient id="prefix__k" gradientUnits="userSpaceOnUse" x1="1707.5" y1="1011.2" x2="1992.3" y2="1479.7" gradientTransform="scale(.016 .01706)"><stop offset="0" stop-color="#564341"/><stop offset=".5" stop-color="#564341"/><stop offset="1" stop-color="#845750"/></linearGradient><linearGradient id="prefix__l" gradientUnits="userSpaceOnUse" x1="1264" y1="947.5" x2="1550.6" y2="1427.7" gradientTransform="scale(.016 .01706)"><stop offset="0" stop-color="#564341"/><stop offset=".5" stop-color="#564341"/><stop offset="1" stop-color="#845750"/></linearGradient><linearGradient id="prefix__m" gradientUnits="userSpaceOnUse" x1="1945.7" y1="1986.8" x2="1977.7" y2="2011.6" gradientTransform="scale(.016 .01706)"><stop offset="0" stop-color="#c35c45"/><stop offset="1" stop-color="#b76455"/></linearGradient><linearGradient id="prefix__n" gradientUnits="userSpaceOnUse" x1="1867.1" y1="2077.2" x2="1906.2" y2="2128.2" gradientTransform="scale(.016 .01706)"><stop offset="0" stop-color="#c35c45"/><stop offset="1" stop-color="#b76455"/></linearGradient><linearGradient id="prefix__p" gradientUnits="userSpaceOnUse" x1="1126.5" y1="2143.3" x2="970.9" y2="2406.2" gradientTransform="scale(.016 .01706)"><stop offset="0" stop-color="#aa6160"/><stop offset="1" stop-color="#b36f5f"/></linearGradient><linearGradient id="prefix__q" gradientUnits="userSpaceOnUse" x1="1737.3" y1="2177" x2="1777.2" y2="2265.9" gradientTransform="scale(.016 .01706)"><stop offset="0" stop-color="#c35c45"/><stop offset="1" stop-color="#b76455"/></linearGradient><linearGradient id="prefix__r" gradientUnits="userSpaceOnUse" x1="868.7" y1="2003.4" x2="755.2" y2="2204.6" gradientTransform="scale(.016 .01706)"><stop offset="0" stop-color="#aa6160"/><stop offset="1" stop-color="#b36f5f"/></linearGradient><linearGradient id="prefix__s" gradientUnits="userSpaceOnUse" x1="757.6" y1="1894.8" x2="663.9" y2="2066" gradientTransform="scale(.016 .01706)"><stop offset="0" stop-color="#aa6160"/><stop offset="1" stop-color="#b36f5f"/></linearGradient><linearGradient id="prefix__t" gradientUnits="userSpaceOnUse" x1="2394.3" y1="1310.1" x2="2004.9" y2="1704.8" gradientTransform="scale(.016 .01706)"><stop offset="0" stop-color="#ffcb87"/><stop offset=".1" stop-color="#ffcb87"/><stop offset=".4" stop-color="#ffbc9c"/><stop offset="1" stop-color="#ffbc9c"/></linearGradient><linearGradient id="prefix__u" gradientUnits="userSpaceOnUse" x1="2354" y1="1206.8" x2="1867.7" y2="1730.7" gradientTransform="scale(.016 .01706)"><stop offset="0" stop-color="#fbc38c"/><stop offset=".3" stop-color="#f19675"/><stop offset=".7" stop-color="#f0876a"/><stop offset="1" stop-color="#ed8870"/></linearGradient><linearGradient id="prefix__v" gradientUnits="userSpaceOnUse" x1="2105.3" y1="1381.3" x2="2105.3" y2="1453.1" gradientTransform="scale(.016 .01706)"><stop offset="0" stop-color="#fffffe"/><stop offset="1" stop-color="#fff"/></linearGradient><linearGradient id="prefix__w" gradientUnits="userSpaceOnUse" x1="2274.5" y1="1272.6" x2="2274.5" y2="1456.3" gradientTransform="scale(.016 .01706)"><stop offset="0" stop-color="#fffffe"/><stop offset="1" stop-color="#fff"/></linearGradient><linearGradient id="prefix__x" gradientUnits="userSpaceOnUse" x1="288.4" y1="689.3" x2="624.3" y2="1846.7" gradientTransform="scale(.016 .01706)"><stop offset="0" stop-color="#ffcb87"/><stop offset=".2" stop-color="#ffcb87"/><stop offset=".7" stop-color="#ffbc9c"/><stop offset="1" stop-color="#ffbc9c"/></linearGradient><linearGradient id="prefix__y" gradientUnits="userSpaceOnUse" x1="11.7" y1="1035.8" x2="616.7" y2="1632" gradientTransform="scale(.016 .01706)"><stop offset="0" stop-color="#ffcb87"/><stop offset=".3" stop-color="#f79e75"/><stop offset=".5" stop-color="#ef876d"/><stop offset="1" stop-color="#ed8870"/></linearGradient><linearGradient id="prefix__z" gradientUnits="userSpaceOnUse" x1="578.3" y1="1143.8" x2="585.4" y2="1348.2" gradientTransform="scale(.016 .01706)"><stop offset="0" stop-color="#fffffe"/><stop offset="1" stop-color="#fff"/></linearGradient><linearGradient id="prefix__A" gradientUnits="userSpaceOnUse" x1="367.8" y1="852.8" x2="381.3" y2="1240.2" gradientTransform="scale(.016 .01706)"><stop offset="0" stop-color="#fff9ce"/><stop offset="1" stop-color="#fff"/></linearGradient><clipPath id="prefix__d"><path d="M9 34h10v5.992H9zm0 0"/></clipPath><clipPath id="prefix__f"><path d="M26 36h7v3.992h-7zm0 0"/></clipPath><clipPath id="prefix__o"><path d="M11 35h8v4.992h-8zm0 0"/></clipPath><clipPath id="prefix__B"><path d="M7 .012h12V11H7zm0 0"/></clipPath><clipPath id="prefix__C"><path d="M5 .012h3V4H5zm0 0"/></clipPath><clipPath id="prefix__D"><path d="M4 .012h11V10H4zm0 0"/></clipPath><clipPath id="prefix__E"><path d="M0 .012h40v39.98H0zm0 0"/></clipPath></defs><path d="M4.762 30.828c-.969.453-1.926.934-2.875 1.434l-.578.695c-.215.637-.176 1.633-.27 2.309l.266.613.343-.137s.141-.566 1.028-1.52l.812-.738s2.899-1.836 3.309-2.047c-.582-.171-1.453-.43-2.035-.609zm0 0" fill="#ff5a5a"/><path d="M6.777 31.367c-1.218 1.098-2.851 1.672-4 2.871l-.28.442c1.98-1.305 4.015.808 5.816 1.386.43.137.042-.12 0-.433-.02-.133.062-.352.238-.668l.008-.48-1.239-.34.215-1.196.63-.484c.124-.223.733-.567.878-.785l-1.332-.336zm0 0" fill="#9d3737"/><path d="M31.816 31.2v-1.56l-.062-1.21-.274-1.149-.257-.777-.391-.7-.316-.616-.293.773-.54.95-.413.558-.54.465-1.003.586h-.95l-.91-.461-.808-.48-.579-.79-.175-.605-.325-2.04-.136.422-.496.993-.582.886-.805.762-.645.371-.875.254-.644-.027-1.781-.852-.875-1.148-.293-.617-.72 1.546-.82 1.098-1.28 1.441-1.258.856-1.098.879c.047.512.195.875.45 1.09.64.543 1.054 1.484 1.651 1.953.758.601 1.465.886 2.153 1.344.644.433.8 1.234 1.367 1.57 2.121 1.258 4.09 1.414 4.594 1.332.605.125 1.425-.027 2.031-.02.422-.101 1.426-.199 1.95-.433.827-.375 2.155-.875 2.948-1.426.946-.656 1.555-1.633 1.786-1.922.23-.289.453-.851.62-1.172.192-.398.29-.804.423-1.23l.171-.899zm0 0" fill="url(#prefix__a)"/><path d="M14.434 29.465c1.125 1.781 5.285.73 5.285-1.504 0 0-1.188-.277-1.696-.809l-1.144-1.457c-.629 1.301-2.445 2.793-2.633 3.438 0 0 .121.207.188.332zm13.293-.809c-.075 1.809 2.613 2.653 3.902 1.813.074-1.7-.129-3.504-1.11-4.871-.316.379-.347 1.195-1.167 1.98a5.518 5.518 0 01-1.622 1.078zm0 0" fill="#f28773"/><path d="M22.348 27.832c.254.941 1.605 1.184 2.562 1.352-.812.289-1.73.148-2.473-.27-.414-.191-.78-.926-.09-1.082zm0 0" fill="#564341"/><path d="M11.594 31.527c-.188-.328-2.852.211-4.07 1.782-.594.668.234 1.015.835.921 1.782-.48 1.536-1.62 4.153-1.312.031.008-.461-.59-.918-1.39zm0 0" fill="url(#prefix__b)"/><path d="M12.797 33.227c-1.23-.497-3.125.03-4.09 1.39-.344.48-.867 1.903-.277 1.762 1.488-.352 2.562-.344 2.75-.531.695-.684 1.187-1.176 2.98-1.246-.215-.309-.906-1.192-1.363-1.375zm0 0" fill="url(#prefix__c)"/><g clip-path="url(#prefix__d)"><path d="M15.14 34.91c-1.261-.515-2.69-.219-3.68.766-2.253 2.176-1.944 3.511-1.944 3.511l.234.426c.617.258 3.273-.55 4.008-.777 1.398-.426 2.898-.582 4.285-1.05 0 0-2.469-2.544-2.902-2.876zm0 0" fill="url(#prefix__e)"/></g><g clip-path="url(#prefix__f)"><path d="M26.352 37.941c1.785.149 3.52.754 5.183 1.422l.414.149.336-.067c.465-.793-.273-1.61-.738-2.187-.442-.488-1.172-.707-1.777-.832-1.274-.125-2.332.949-3.418 1.515zm0 0" fill="url(#prefix__g)"/></g><path d="M28.922 36.547c1.07-.34 2.254.05 3.039.988 0 0 .613.403.785.285.168-.113-.027-.902-.121-1.086-.547-1.113-.98-1.793-2.059-2.12-.535.636-1.05 1.347-1.644 1.933zm0 0" fill="url(#prefix__h)"/><path d="M30.793 34.543c1.5.504 1.09 1.078 2.457 1.418.086.02.094-.39.094-.484 0-.45-1.157-1.493-1.785-1.926-.254-.176-.883.949-.766.988zm0 0" fill="url(#prefix__i)"/><path d="M25.035 16.184c.078.53-.078 2.066-.078 2.066 4.223-1.184 9.988-7.86 1.461-6.574.898-1.39 2.734-2.14 3.422-3.742l-.035-.196c-3.82.196-7.649 2.301-10.012 5.535l-.191.59.257.684c1.739.57 3.63.406 5.442.558 0 0-.313.918-.266 1.079zm0 0" fill="url(#prefix__j)"/><path d="M24.176 23.465c-.746 2.668 2.02 3.254 3.902 2.277 4.223-3.578 3.094-11.926-3.226-6.953-.356.61-.266 2.238-.282 2.316-.101.59-.36 2.235-.394 2.36zm0 0" fill="url(#prefix__k)"/><path d="M17.082 24.008c.16 1.25 2.406 1.5 3.578.953 2.742-.98 3.567-6.672 2.473-8.367-.098-.153-1.465-.364-2.02-.418-1.55-.164-3.394 1.383-4.191 3.566-.211.578.078 1.309.137 1.903.074.828-.055 1.761.023 2.363zm0 0" fill="url(#prefix__l)"/><path d="M17.023 24.54s4.168 3.081 6.22-2.763c.523-1.492.288-3.718.304-4.715 1.816.938.445 6.27.32 6.91-.457 2.25-2.531 4.012-4.265 3.524-2.61-.734-2.579-2.957-2.579-2.957zm7.157 1.054l.36.144c1.132.903 2.76.582 3.866-.21 1.61-1.395 1.758-3.262 2.371-5.188l.114.133c.25 1.988-.2 4.023-.864 5.879-1.465 3.128-5.336 2.863-5.847-.758zm0 0" fill="#fff"/><path d="M25.016 21.125c-.278.7-.38 1.582-.184 2.32.465 1.145 1.746 1.242 2.488.34 2.125-2.43-.425-6.531-2.304-2.66zm-3.684-.02c.402-4.984-4.492-2.273-3.254 1.325 1.063 1.812 2.879.175 3.254-1.325zm0 0" fill="#fff"/><path d="M31.453 34.195c.047.325.254.633.254.633l-.45-.332-.304-.156.39-.695.165.082s-.09.207-.055.468zm0 0" fill="url(#prefix__m)"/><path d="M30.52 35.89c.125.317.535.688.535.688l-1.035-.332-.516-.05.898-1.067s-.015.43.118.762zm0 0" fill="url(#prefix__n)"/><g clip-path="url(#prefix__o)"><path d="M11.05 39.316s2.895-.918 4.063-2.16c.797-.851.145-1.922.27-1.86.785.376 1.027.934 1.496 1.544.215.277 1.144.93 1.144.93s-1.55.226-2.187.437c-1.14.379-4.785 1.11-4.785 1.11zm0 0" fill="url(#prefix__p)"/></g><path d="M28.957 37.094c.121.699.281.89 1.508 1.55.043.024-.723-.25-1.906-.566-.403-.105-1.598-.312-1.598-.312s.863-.364 1.086-.52c.273-.191.988-.512.988-.512s-.09.29-.078.356zm0 0" fill="url(#prefix__q)"/><path d="M11.031 35.676c-.144.047-.656.101-1.156.265-.227.075-.574.18-.832.254-.113.035-.438.075-.543-.015-.031-.032-.098-.164-.059-.172 1.395-.317 2.243-.723 2.86-1.121 1.062-.68 1.254-1.219 1.344-1.617.035-.172.421.214.554.363l.7.777s-1.004.203-1.313.297c-.688.215-1.356.902-1.555.969zm0 0" fill="url(#prefix__r)"/><path d="M7.402 34.035c1.293-.547 2.57-1.015 3.95-2.484.09-.098.355.137.394.234.184.469.524.985.3.957-1.358-.156-2.194.45-2.8.946-.437.355-1.965.394-1.844.347zm0 0" fill="url(#prefix__s)"/><path d="M31.645 27.77c.07.425.07 1.62.218 1.71 2.586 1.567 6.375 1.43 7.078-2.074l.387-.058.344-.414c.117-.668.203-1.34.258-2.016l-.207-.977-.399-.87-1.031-1.255-1.145-.707-1.218-.382-1.457-.149-1.137.098-1.305.34c-.207.129-.8.488-.965.672a42.97 42.97 0 01-.316 1.601c-.04.273-.04.848-.164 1.14l-.027.59.156.7c.351.738.762 1.215.93 2.05zm0 0" fill="url(#prefix__t)"/><path d="M32.79 30.004c-1.79-4.305.265-8.567 4.874-8.5-1.066-.738-1.953-.848-3.191-.922l-.63.105-.452-.042c-.762.23-1.754.46-2.332 1.082-.024.378-.22 1.23-.313 1.601-.098.281-.39 1.102-.383 1.395l.457 1.132c.325.665.489.93.645 1.672l.289 1.145.14.808.895.528zm0 0" fill="url(#prefix__u)"/><path d="M34.266 24.418c.09-.172.027-.559-.239-.734-.304-.204-.734-.172-.914.238-.14.32.059.637.352.8.293.165.64-.003.8-.304zm0 0" fill="url(#prefix__v)"/><path d="M38.02 24.258c-.247.433-.965.765-1.844.469-1.02-.34-2.114-1.41-1.281-2.614.367-.527 1.386-.511 2.113-.129.527.278 1.586 1.25 1.012 2.274zm0 0" fill="url(#prefix__w)"/><path d="M31.836 25.297c.46.887.734 1.426 2.18 1.426.48 0 .582.793 1.527 1.617.46.406 1.367.394 1.898.05.32-.203.434-.12.532-.062.226.137.265.086.558.067 0 0 .352-.52.215-.88-.422-.292-.785-.53-1.309-.515l-.304.305-.23.386-.282.188-.418-.04a6.027 6.027 0 01-1.039-1.265c-.625-.676-1.262-.527-2.059-.418-.378-.25-.867-.64-1.27-.86zm0 0" fill="#ed8870"/><path d="M10.441 31.164c3.86-1.172 6.442-4.676 7.211-8.805l.008-.82.145-.625c-.082-.582-.04-1.465-.082-2.047l.449-.199.383-.086.312-.234c.188-.512.16-.477.125-1.016-3.094-6.598-13.078-8.043-16.984-1.59-4.063 6.106-.45 16.723 7.355 15.73zm0 0" fill="url(#prefix__x)"/><path d="M7.297 27.512c.238-1.344 6.797-2.192 7.457-4.473.285-2.297 1.07-2.555 2.937-2.758l.008-1.156-.293-.281c-.715.222-1.441.386-2.176.496-.437.015-1.113.023-1.539.137l-.156.671c.211.465.43 2.145.43 2.145a8.353 8.353 0 01-.145.937c-1.992 1.645-4.742 1.758-6.933 3.036l-.13.402zm0 0" fill="#f28773"/><path d="M12.07 30.527C4.195 31.266.496 20.38 3.832 13.605c0 0-1.168.977-1.309 1.207-1.57 2.563-2.41 4.485-2.152 7.961l.438 2.415c.253.578.746 1.632.746 1.632 1.242 3.356 5.105 5.496 8.402 4.461l.805-.164zm0 0" fill="url(#prefix__y)"/><path d="M10.793 19.957c.52.656.242 1.492-.363 2.293-.684.898-1.883.984-2.52.348-.48-.485-.617-1.532.473-2.52.926-.84 1.976-.68 2.41-.121zm0 0" fill="url(#prefix__z)"/><path d="M8.93 15.195c.664.727.898 2.442-.762 4.215-1.207 1.285-3.54 2.781-5.14.902-1.169-1.363.042-3.488 1.187-4.57.887-.836 3.379-2.02 4.715-.547zm0 0" fill="url(#prefix__A)"/><path d="M8.242 26.734l1.414 1.153 1.918-.5.274-2.676-3.407 1.043zm0 0" fill="#564341"/><path d="M9.68 27.723l-.36 2 1.985-.809.293-1.715zm0 0" fill="#7d7c7d"/><path d="M9.68 27.723l-1.438-.989-.27 1.559 1.348 1.43zm0 0" fill="#989697"/><path d="M10.594 10.227l-.266 1.386 2.738.614.329-1.793zm0 0" fill="#564341"/><g clip-path="url(#prefix__B)"><path d="M7.316 9.93l8.762.511 1.957-.8.852-6.317-1.992-1.77-1.829-.222-.48.434-.691.214-.727-.02-.648.005-.57-.094-.473-.11-.395-.128-.312-.219-.332-.223-.176-.347L7.488.62l.57 1.906zm0 0" fill="#b6b6b6"/></g><path d="M12.875 4.621l-1.48 1.344 1.382 1.16-.902 1.57 2.684-.73-1.075-1.621-.18-.39.907-1.4-.484-.136-.852.2zm0 0" fill="#ffed7e"/><g clip-path="url(#prefix__C)"><path d="M7.395.66L5.707 1.73l-.305 2.036 2.543-1.317L7.391.66zm0 0" fill="#b6b6b6"/></g><g clip-path="url(#prefix__D)"><path d="M8.102 2.598l-.864 7.308L5.637 8.79l-.653-1.332.387-3.547zM10.234.789l.536.617 1.476.492 1.438.024c.457-.14.867-.168 1.199-.55l.058-.302C14.246.383 13.117.363 12.223.31l-1.446.093zm0 0" fill="#979797"/></g><g clip-path="url(#prefix__E)"><path d="M12.77.04c1.152.093 2.132.5 2.335 1.019l1.778.242c.02.004.039.008.058.02.196.077.641.417 1.2.882.226.188.449.379.664.582.09.082.156.152.199.203.039.047.066.102.078.164a.22.22 0 01.066.184v.02l-.007.058-.024.215c-.14 1.379-.297 2.754-.46 4.125a46.18 46.18 0 01-.278 1.914c-.04.207-.371.375-1.082.664l-.05.02-.032.011c-.508.203-.961.352-1.113.352-.172 0-.817-.04-2.532-.152l-.203 1.445a10.448 10.448 0 014.496 3.199l-.004-.008.032.035c.363.387.683.817.949 1.29.418-.313.855-.524 1.297-.61 2.035-.387 3.754.36 4.449 1.871.05-.344.105-.77.144-1.2l.004-.05.008-.047.004-.047.008-.105a4.149 4.149 0 00-.008-.824c-.004-.032-.027-.07-.074-.121l-.164-.012-.016-.004c-.066-.008-.137-.012-.262-.02h-.043c-1.457-.062-2.207-.109-2.851-.199l-.117-.02-.114-.015c-.972-.156-1.539-.41-1.714-.894-.153-.41-.008-.883.336-1.415.226-.347.496-.664.843-1.035.567-.597 1.602-1.46 2.68-2.191 1.371-.93 2.71-1.606 3.887-1.887 1.515-.363 2.754-.433 2.992.07.137.297-.024.61-.395 1.051-.257.309-.625.676-1.101 1.117-.328.305-.664.602-1.004.891l-.23.203-.016.012-.016.016-.008.004-.043.035-.187.164-.008.008.047-.008c.457-.059.918-.086 1.379-.082l.062.004c.63.02 1.164.129 1.586.359.516.258.867.781.93 1.387.148 1.183-1.168 2.824-2.992 4.02.64.015 1.265.195 1.707.562.555.46.976 1.082 1.21 1.789.188.566.282 1.156.278 1.754 1.844-1.047 4.309-1.012 6.188.05 2.144 1.207 3.05 3.434 2.12 6.028a.685.685 0 01-.574.492.585.585 0 01.008.086c0 .242-.062.484-.18.691a5.227 5.227 0 01-.792 1.106c-1.215 1.37-3.461 1.664-5.16.773l-.16-.086-.024-.011-.012-.004-.015-.008-.012-.008-.168-.086c-.152-.082-.285-.152-.402-.223a8.616 8.616 0 01-.528 3.067l-.023.062-.016.051-.039.117c.277.13.543.282.797.45.34.246.64.543.887.89.144.207.27.43.37.668.15.375.18.692-.003.934-.168.215-.438.25-.758.18.137.269.254.554.344.847.117.426.086.766-.184.98-.101.079-.246.094-.414.067.281.66.266 1.309-.191 1.55-.25.134-.543.09-1.012-.085-.086-.031-.313-.125-.559-.227l-.027-.011-.05-.02-.094-.035-.012-.008-.028-.012-.574-.234a10.109 10.109 0 00-1.5-.469l-.289-.07-.332-.07a9.626 9.626 0 00-1.453-.215 4.956 4.956 0 00-.844.015.21.21 0 01-.11-.007c-1.108.27-2.25.382-3.386.34-1.187-.047-1.824-.098-2.496-.231a8.933 8.933 0 01-.558-.133c-.598-.144-2.176.082-3.184.422-.27.09-.54.164-.816.23l-1.149.27-.062.016-.02.004-.09.019-.035.012-.039.008c-.402.093-.79.187-.996.242-.172.043-.34.09-.504.136l-.219.067-.238.066c-.2.055-.395.106-.598.149-.722.156-1.242.152-1.57-.11-.27-.21-.363-.554-.324-.98.031-.332.144-.73.332-1.203.144-.356.457-.828.808-1.266l.016-.02-.016.005c-.18.05-.355.105-.535.16l-.05.02-.02.003-.383.117-.004.004h-.004l-.027.004-.008.004-.082.023-.035.008-.043.012c-.313.082-.523.102-.727.035a.71.71 0 01-.46-.512 1.931 1.931 0 01-.215-.07c-.625-.226-1.2-.555-2.11-1.164-.242-.164-1.023-.41-1.324-.45-.582-.073-1.633.227-2.078.552a3.979 3.979 0 00-.328.554l-.012.028-.043.093-.012.032-.015.027c-.051.117-.102.227-.121.258-.07.125-.164.203-.297.21-.14.009-.238-.081-.313-.214a1.586 1.586 0 01-.12-.352c-.071-.328-.11-.66-.118-.996-.031-.875.082-1.664.352-2.035.382-.527.976-.902 1.91-1.309.191-.082.91-.378 1.07-.449.148-.066.273-.125.379-.18-1.223-.734-2.266-1.84-3.05-3.222-2.09-3.692-2-8.625.484-12.242 1.785-2.598 4.664-3.973 7.828-3.918.117 0 .234.008.347.011l.196-.996-1.871-.12-.06-.005c-.519-.035-.874-.054-1.16-.066a.228.228 0 01-.105-.04c-.687-.358-1.449-.894-1.683-1.144-.32-.34-.711-1.496-.711-1.914 0-.633.144-1.828.386-3.34l.032-.187.008-.059.011-.082.02-.109.008-.055.011-.054.004-.02.004-.039c.082-.48.16-.938.211-1.2l.004-.019.035-.18.004-.007v-.012c.047-.148.266-.3.879-.691.297-.188.594-.368.898-.543l.055-.035.02-.012a.192.192 0 01.113-.024h.023c.395.02.79.047 1.184.075.453.03.906.066 1.36.101h.011a.648.648 0 01.266-.238c.156-.086.37-.156.629-.211a6.357 6.357 0 011.793-.09zm1 34.944l-.028.004h-.012l-.027.004h-.015l-.028.004-.07.008-.059.008c-.21.023-.418.062-.625.113-.344.09-.969.45-1.383.797-.535.445-1.257 1.371-1.468 1.902-.332.828-.38 1.336-.188 1.489.16.124.567.128 1.14.003.27-.054.536-.125.802-.207l.214-.062c.497-.145.997-.274 1.504-.383l.157-.039.066-.012.133-.035.031-.004c.504-.12.953-.222 1.024-.242.32-.078.574-.148.777-.219a10.41 10.41 0 012.031-.437 4.52 4.52 0 01-.652-.469 4.152 4.152 0 01-.586-.668 5.955 5.955 0 00-.48-.598l-.012-.015-.016-.012a3.288 3.288 0 00-.168-.164 5.743 5.743 0 00-1.21-.797h.003c-.066-.023-.445-.012-.855.031zm15.761 1.727a2.183 2.183 0 00-.992.293.265.265 0 01-.078.027c-.203.13-.414.25-.629.364l-.055.03a9.71 9.71 0 01-.675.317c.421.059.84.14 1.253.238l.122.028.03.008.138.03a11.31 11.31 0 011.57.493c.203.082.406.164.61.25l.09.035.038.016.024.012c.257.105.492.203.578.234.332.121.52.148.586.113.086-.047.117-.277.004-.625a2.544 2.544 0 00-.59-.957h.004l-.008-.004-.02-.02a2.124 2.124 0 00-.261-.23c-.625-.48-1.2-.675-1.739-.652zm-5.695-11.418a5.922 5.922 0 01-1.305 1.793l-.05.05c-1.004.954-2.36 1.16-3.598.657l-.04-.02a3.637 3.637 0 01-1.984-2c-1.027 2.153-2.672 3.957-4.734 4.997l.016.304c0 .25.02.453.082.68.074.324.257.605.515.797.168.12.325.258.473.402l.012.004a.312.312 0 01.129.137c.109.113.214.226.316.343l.047.047.152.172.024.028c.117.129.207.218.289.304.156.149.289.246.414.309.699.336 1.203.664 1.586 1.012.289.254.418.41.754.867.148.215.32.41.507.586.07.058.145.117.223.175.602.438 1.266.708 2.059.868.64.129 1.254.18 2.414.222 1.925.07 3.84-.312 5.402-1.125 1.734-.902 2.965-2.285 3.54-4.109l.007-.016a8.271 8.271 0 00-.547-6.925 6.723 6.723 0 01-.879 1.57c-.676.879-1.504 1.414-2.484 1.453-.871.031-2.098-.621-2.664-1.527-.352-.563-.52-1.075-.676-2.055zm6.883 9.535l-.008.016a7.14 7.14 0 01-1.086 1.281c.625.008 1.281.242 1.96.766.114.086.22.18.317.28.176.15.368.274.575.364.086.035.16.059.21.067.016-.051.012-.141-.03-.293l-.005-.02a4.956 4.956 0 00-.355-.852 3.395 3.395 0 00-.418-.671 2.722 2.722 0 00-.27-.293 3.262 3.262 0 00-.89-.645zm-20.371-1.332c-.317.149-.61.352-.868.606a.253.253 0 01-.066.062 3.804 3.804 0 00-.64.926l-.024.05-.008.012-.012.024-.011.02c-.137.292-.25.585-.239.687.016.183.055.242.122.265.082.024.218.012.437-.043l.129-.035.062-.015.325-.102.015-.008.04-.011.019-.004.016-.008.02-.004.042-.012.543-.164c.344-.094.617-.156.82-.18l.117-.097c.47-.395 1.16-.793 1.586-.906a6.628 6.628 0 011.024-.16 5.861 5.861 0 01-.324-.34l-.145-.16-.008-.012-.039-.04c-.058-.07-.12-.136-.148-.167-.078-.086-.153-.16-.227-.235-.64-.265-1.941-.246-2.558.051zm-3.434-1.883l-.004.004c-.152.11-.305.219-.457.324l-.027.016c-.188.129-.375.258-.567.383l-.039.027-.015.012-.016.008c-1.07.562-2.125 1.25-2.816 1.87.488-.152 1.023-.234 1.41-.183.351.047 1.187.309 1.492.512.887.594 1.441.91 2.023 1.125l.051.02c.059-.356.29-.86.52-1.239l-.16.035c-.586.121-1.016.067-1.239-.293-.261-.418-.047-.933.438-1.5.332-.386.804-.789 1.086-.945l.136-.07a7.198 7.198 0 01-1.816-.106zm24.418 2.075l-.008.023a8.406 8.406 0 01-.304.625c.335.168.668.418.96.707a4.4 4.4 0 01.352.39l.016.016c.136.09.285.16.437.215.102.035.207.055.313.059a.192.192 0 00.078-.012l-.008.004v-.055a.939.939 0 00-.078-.27 2.941 2.941 0 00-.305-.554 3.27 3.27 0 00-.754-.75 5.577 5.577 0 00-.699-.398zM5.02 30.965l-.004.004a.156.156 0 01-.047.039 5.85 5.85 0 01-.606.305c-.078.03-.281.117-.496.203l-.02.011-.046.016c-.211.09-.422.176-.508.215-.871.379-1.418.726-1.742 1.176-.192.265-.293.972-.266 1.746.012.351.05.675.106.91.007.039.02.078.03.113l.005.012v-.008l.078-.172.012-.023.09-.188a4.85 4.85 0 01.64-.937c.66-.758 1.965-1.657 3.32-2.371l.036-.02-.004.004.004-.004.039-.023c.187-.13.375-.254.562-.383l.027-.02.125-.082a7.131 7.131 0 01-1.335-.523zm5.136.805a6.482 6.482 0 00-1.308.539c-.602.332-1.48 1.351-1.325 1.605.055.09.301.121.684.043a4.974 4.974 0 00.785-.238l.113-.043c.301-.297.649-.535 1.02-.711.484-.23 1.254-.324 1.953-.274a2.166 2.166 0 01-.414-.914h-.004c-.312-.203-.844-.195-1.504-.007zM2.38 15.543c-2.375 3.46-2.465 8.184-.465 11.715.973 1.71 2.356 2.972 3.984 3.582.329.125.66.223 1.004.293a.168.168 0 01.086.015c1.469.274 3.067.051 4.735-.707l.062-.027.117-.059c3.848-1.914 6.192-6.636 5.61-11.18l-.278.071c-.738.184-1.472.262-2.687.324-.027 0-.05 0-.086.004h-.09c-.351.016-.504.035-.601.09-.075.04-.09.102-.012.313.074.207.215.878.34 1.566l.015.086.004.02.016.081.008.04.011.078.106.605c.113.684-.309 1.238-1.153 1.703-.335.184-.683.34-1.039.469v.05l-.004.04-.058.62c-.047.497-.098.99-.156 1.481-.047.414-.09.786-.133 1.102-.086.629-.156.984-.238 1.117-.086.145-.493.371-.993.586-.558.238-.984.363-1.195.29-.203-.067-.535-.349-.875-.708-.36-.379-.598-.695-.61-.89-.007-.153.06-.61.188-1.336.055-.325.113-.649.176-.973l.031-.164c-.586.207-.945.387-1.156.582-.098.09-.11.148-.066.254.058.14.21.324.492.605.078.09.078.23 0 .324a.216.216 0 01-.305.02c-.32-.32-.5-.535-.59-.754-.129-.297-.07-.582.18-.808.398-.368 1.098-.641 2.488-1.051l1.067-.313c1.25-.363 2.007-.637 2.593-.96.692-.384.989-.774.918-1.204-.043-.258-.097-.562-.152-.867l-.016-.078-.004-.016-.003-.039c-.118-.625-.243-1.223-.301-1.387-.153-.421-.074-.742.222-.906.18-.101.36-.125.793-.14h.082l.086-.004c1.188-.063 1.899-.137 2.606-.313l.336-.086.265-.066.051-.012h.008l.027-.008h.004c.074-.027.16-.043.27-.066h.02c.16-.027.226-.047.269-.074l-.004.004.016-.012c.425-.29.484-.73.234-1.344l-.012-.031c-.215-.512-.633-1.09-1.078-1.559l-.008-.008-.004-.007c-1.863-2.293-4.73-3.649-7.683-3.7-3.031-.05-5.774 1.262-7.465 3.727zm9.215 15.469l-.028.011-.14.059c.054.008.113.023.168.04v-.11zm19.773-9.477l-.047.027a16.95 16.95 0 01-.554 3.598l.023.027a8.769 8.769 0 011.336 4.145c.176.121.371.23.602.352l.183.093.035.02.176.09c1.547.812 3.598.543 4.68-.68.281-.3.527-.64.726-1.008.188-.383.18-.594-.03-.699a1.272 1.272 0 01-.165-.102l-.086-.058-.008-.004-.074-.05c-.2-.134-.34-.196-.46-.2-.095-.004-.177.031-.259.117-.07.074-.136.16-.195.25l-.008.016-.039.066-.02.031-.058.098a.68.68 0 01-.434.336c-.312.078-.593-.008-.847-.23-.184-.157-.324-.34-.555-.688-.05-.074-.102-.148-.148-.223-.203-.3-.336-.449-.47-.511-.476-.223-.694-.243-1.015-.164l-.054.015-.059.012c-.465.102-.863-.082-1.73-.887a.228.228 0 01-.016-.304.19.19 0 01.281-.024c.438.402.746.633.973.738a.555.555 0 00.41.047c.023-.004.05-.008.074-.015l.028-.008c.402-.102.714-.074 1.277.187.219.102.39.297.633.657l.074.113.07.101.004.012h.004c.41.629.645.828.973.746.082-.023.12-.058.187-.156.012-.02.102-.172.137-.227.07-.105.144-.203.234-.296a.705.705 0 01.563-.247c.21.008.41.098.664.266l.168.117c.058.04.12.078.183.11.25.105.442.058.52-.164.441-1.235.441-2.364.047-3.332-.364-.891-1.055-1.633-1.977-2.153-1.816-1.023-4.226-1.031-5.957.043zm-19.722 3.242l-.016.004c-.348.121-.742.242-1.2.375l-.206.063a.229.229 0 01.004.09L9.64 29.46l.082-.02c.406-.128.8-.3 1.18-.503.081-.047.16-.094.234-.149a2.04 2.04 0 00.062-.258l.004-.015c.031-.168.067-.391.106-.664.043-.309.086-.672.132-1.086.075-.664.141-1.325.204-1.989zm-1.84.563l-.446.129c-.242.07-.48.144-.718.222 0 .016 0 .032-.004.051l-.004.024c-.082.43-.164.859-.238 1.289-.079.402-.137.804-.18 1.215v.003l.02.04c.023.042.058.093.1.156.095.125.224.273.364.422.196.207.39.386.54.496zm20.972-4.445v.007c-.078.766-.25 1.563-.53 2.403-.352 1.035-1.224 2.27-2.278 2.824a4.461 4.461 0 01-1.672.426c-.695.03-1.3-.133-1.758-.535.09.359.234.699.426 1.007.46.735 1.508 1.293 2.195 1.266.797-.035 1.492-.477 2.074-1.238.407-.54.723-1.149.934-1.805.387-1.266.645-3.105.613-4.285zm-7.007-3.383l.003.035c.227 1.418.137 3.02-.476 4.828-.352 1.035-1.219 2.27-2.274 2.828-.398.211-1.226.43-1.937.438-.773.004-1.422-.215-1.871-.7l-.016.043c.176 1 .88 1.844 1.844 2.25 1.074.453 2.246.274 3.102-.554l.003-.008c.848-.777 1.399-1.824 1.739-3.172.265-1.055.379-2.105.476-3.895.047-.843-.175-1.558-.593-2.093zm3.027.265l-.133.059-.066.031c-.817.383-1.54.852-1.672 1.176l-.004.008-.016.039c.012.176.012.36 0 .547-.015.328-.035.633-.054.918.53-1.059 1.382-1.59 2.261-1.352 1.082.297 1.559 1.668 1.223 3.164l-.012.043c-.36 1.535-1.437 2.5-2.457 2.29-.656-.137-1.156-.657-1.375-1.387-.062.28-.137.558-.219.832-.015.168.024.386.106.625.055.148.117.289.191.425.348.575.938.813 1.703.778.543-.024 1.153-.203 1.454-.364.91-.48 1.699-1.597 2.003-2.504.54-1.593.649-3.03.48-4.316a3.317 3.317 0 00-.706-.82c-.633-.524-1.86-.567-2.707-.192zm-6.567-1.293a2.78 2.78 0 00-1.148.567c.148.414.184.793.082 1.12.367-.198.77-.253 1.18-.14 1.082.297 1.558 1.668 1.222 3.164l-.011.043c-.36 1.535-1.442 2.5-2.457 2.29-.532-.114-.957-.47-1.22-.989-.1.606-.25 1.2-.437 1.781.329.516.895.742 1.637.739.633-.008 1.375-.204 1.703-.375.91-.485 1.696-1.598 2.004-2.504.594-1.762.664-3.301.43-4.657-.02-.12-.04-.23-.063-.34l-.007-.019-.043-.2c-.004-.019-.004-.038-.004-.058-.735-.468-1.735-.636-2.868-.422zm4.778 5.243c-.305 1.27.187 2.238.965 2.398.703.148 1.543-.61 1.832-1.895.273-1.222-.086-2.261-.828-2.464-.793-.22-1.618.52-1.97 1.96zm-6.77-1.172c-.308 1.27.188 2.238.961 2.398.707.149 1.547-.61 1.836-1.894.274-1.223-.086-2.262-.828-2.465-.793-.219-1.617.52-1.969 1.96zm.07-1.567h-.003c-.035.012-.075.016-.117.024l-.02.004a1.284 1.284 0 00-.211.05h-.008l.016.141c.015.113.027.227.035.344.09-.196.191-.383.309-.563zM28.919 8c-.559.043-1.117.133-1.664.266-1.102.265-2.39.914-3.711 1.808-1.047.715-2.05 1.547-2.59 2.114-.746.792-1.187 1.472-1.058 1.828.082.21.507.402 1.293.53.671.106 1.41.161 3.019.227.914.04 1.36.059 1.762.082l.058.004.078.004.04.004h.023l.035.004h.043l.23.016a.393.393 0 01.188.054c.07.051.129.13.129.25 0 .11-.05.184-.113.23a.183.183 0 01-.063.04.593.593 0 01-.199.047l-.246.035-.016.004h-.02l-.058.008-.238.035a5.505 5.505 0 00-.492.101c-.04.727-.13 1.575-.227 2.192l-.004.015h.008c.14-.062.316-.14.516-.238l.035-.015.601-.305.051-.027c.336-.176.668-.352.91-.489 1.961-1.105 3.469-2.824 3.348-3.82-.102-.824-.797-1.203-1.996-1.238a8.57 8.57 0 00-1.43.086l-.258.03-.023.005h-.012l-.02.004c-.152.023-.308.039-.46.05a.52.52 0 01-.11-.011.29.29 0 01-.222-.282.287.287 0 01.058-.203l.055-.07.129-.129c.082-.082.2-.184.363-.328l.047-.04.273-.237.028-.024.012-.008.015-.011.246-.22c.336-.288.668-.585.992-.882.372-.332.723-.687 1.055-1.062.106-.118.195-.25.274-.391v-.004h-.008l-.063-.02h-.02a2.712 2.712 0 00-.59-.019zm-18.113 2.387l-.196.996c.805.074 1.594.238 2.364.488l.187-1.328-1.664-.11h-.012zM8.313 2.773v.008a255.023 255.023 0 00-.484 3.672 85.069 85.069 0 00-.278 2.422c-.031.285-.051.57-.063.855v.008h.02c.656.04 1.691.106 3.926.25l.078.004h.008c3.257.215 4.367.285 4.582.285.03 0 .175-.039.367-.101.449-.153.886-.332 1.316-.535a1.73 1.73 0 00.192-.11l.003-.004h.004v-.004c.02-.113.04-.226.059-.343l.004-.035c.058-.372.125-.844.195-1.407l.004-.039c.176-1.43.336-2.855.48-4.289-.96-.07-1.855-.133-2.746-.191l-.156-.008c-1.008-.066-2.02-.129-3.027-.184l-1.86-.105-.05-.004-.075-.004-.05-.004h-.055l-.082-.004-.176-.011-.21-.012-.052-.004-.07-.004-.047-.004zm-.41-.043L5.565 3.965c-.222 1.41-.355 2.531-.355 3.105 0 .309.355 1.352.594 1.602.168.183.718.578 1.277.902.016-.246.035-.496.059-.742.082-.812.175-1.625.277-2.434.156-1.226.316-2.449.484-3.668zm6.355 1.415c.035.003.07.015.101.03.075.036.125.11.133.192.02.219-.094.426-.457.973l-.015.031a6 6 0 00-.278.43l-.008.015-.03.051c-.032.055-.06.11-.083.168v.004l.008.02.008.011c.062.137.187.313.496.72l.047.065c.43.57.597.848.582 1.125-.004.114-.047.157-.13.207a.622.622 0 01-.112.06 5.294 5.294 0 01-.32.128c-.626.21-1.259.395-1.9.543a4.25 4.25 0 01-.343.062c-.05.004-.09.004-.129.004-.094-.007-.16-.03-.21-.136-.052-.106-.028-.188.027-.301.027-.055.07-.117.125-.195.043-.063.093-.133.164-.227l.011-.016.012-.011.066-.09.012-.016.09-.113.059-.082a4.51 4.51 0 00.293-.422c.027-.047.05-.086.062-.117l.008-.012h-.004c-.031-.023-.066-.047-.102-.07l-.011-.008-.032-.02-.007-.007-.184-.114-.016-.011-.015-.008-.028-.02-.195-.12a4.059 4.059 0 01-.488-.364.922.922 0 01-.297-.41c-.035-.117 0-.192.074-.293.035-.051.09-.114.156-.18.2-.203.407-.394.625-.57l.04-.031.054-.047.016-.016.039-.031.012-.012.027-.02c.18-.152.36-.296.547-.437.101-.074.445-.168.836-.242.156-.031.312-.055.472-.07a.746.746 0 01.188 0zm-.246.445H14c-.16.02-.32.047-.477.082l-.03.008c-.173.035-.34.078-.505.14-.117.082-.351.27-.586.47l-.023.019-.016.011-.023.02-.012.012-.023.02-.18.151c-.184.16-.355.329-.523.5l-.004.008.004.004c.035.043.074.086.117.125l.011.008c.137.121.282.227.438.324l.21.137.044.023.183.118.04.023c.222.148.296.21.324.344.039.218-.098.445-.465.937l-.063.078-.086.118-.02.023-.151.2v.003l.015-.004.02-.004c.625-.144 1.242-.32 1.851-.531.106-.039.192-.07.258-.098h.004v-.007c-.055-.137-.203-.364-.457-.704l-.016-.023-.046-.063c-.399-.527-.508-.687-.586-.894-.059-.152-.004-.297.125-.523l.03-.06.009-.015.007-.008.008-.015c.055-.094.125-.2.278-.43l.02-.027c.108-.16.206-.324.304-.496zM7.328.965l-.012.008a24.928 24.928 0 00-1.214.765c-.059.043-.118.086-.172.133l-.004.004-.004.008-.02.097v.016l-.078.43c-.054.312-.113.656-.172 1.008l2.125-1.125a10.79 10.79 0 01-.449-1.34zm.395-.113l.004.011c.132.496.304.98.507 1.45v.007l.008.012c.344.02 1.18.066 2.059.117l.054.004.114.004.18.008 3.43.2 1.831.112.195.012 2.243.156c-.38-.34-.774-.664-1.18-.968a4.92 4.92 0 00-.344-.239l-.012-.004-1.718-.238c-.254.531-1.36.762-2.54.633a5.75 5.75 0 01-1.628-.418c-.434-.188-.73-.418-.848-.695-.121-.008-.242-.02-.363-.028C9.05.938 8.387.895 7.723.852zm3.332-.293a1.83 1.83 0 00-.516.171.393.393 0 00-.094.063l-.004.004v.008c.079.34 1.043.757 2.121.882l.032.004a4.616 4.616 0 001.57-.082c.313-.086.5-.195.555-.293a.213.213 0 010-.12c-.055-.102-.235-.243-.52-.372-.469-.199-.96-.316-1.465-.351a6.218 6.218 0 00-1.68.086zm0 0" fill="#564341"/></g></svg>