<svg width="40" height="40" viewBox="0 0 40 40" fill="none" xmlns="http://www.w3.org/2000/svg">
<path fill-rule="evenodd" clip-rule="evenodd" d="M6.66499 20C6.66499 30.7548 9.24508 33.335 20 33.335C30.7548 33.335 33.335 30.7548 33.335 20C33.335 9.24508 30.7548 6.66499 20 6.66499C9.24508 6.66499 6.66499 9.24508 6.66499 20ZM12.0424 22.7702L16.2249 13.2646C16.931 11.6622 18.2889 10.7931 20 10.7931C21.711 10.7931 23.0689 11.6622 23.7751 13.2646L27.9575 22.7702C28.1477 23.2319 28.3105 23.8293 28.3105 24.3454C28.3105 26.7082 26.6538 28.3649 24.291 28.3649C23.4863 28.3649 22.847 28.1595 22.2 27.9517C21.5371 27.7386 20.8659 27.5229 20 27.5229C19.1441 27.5229 18.4565 27.7406 17.7805 27.9545C17.1265 28.1613 16.4834 28.3649 15.7089 28.3649C13.3461 28.3649 11.6894 26.7082 11.6894 24.3454C11.6894 23.8293 11.8523 23.2319 12.0424 22.7702ZM20 14.9214L15.8719 24.264C17.094 23.6936 18.5063 23.4221 20 23.4221C21.4395 23.4221 22.906 23.6936 24.0738 24.264L20 14.9214Z" fill="#2C2B2A"/>
</svg>
