<svg width="40" height="40" viewBox="0 0 40 40" fill="none" xmlns="http://www.w3.org/2000/svg">
<path fill-rule="evenodd" clip-rule="evenodd" d="M20 35C7.90223 35 5 32.0977 5 20C5 7.90224 7.90223 5 20 5C32.0977 5 35 7.90224 35 20C35 32.0977 32.0977 35 20 35ZM15.7536 12.4236L11.0489 23.1161C10.835 23.6355 10.6517 24.3075 10.6517 24.888C10.6517 27.5458 12.5153 29.4094 15.1731 29.4094C16.0441 29.4094 16.7673 29.1806 17.5027 28.9479C18.2632 28.7072 19.0372 28.4623 20 28.4623C20.9741 28.4623 21.729 28.7048 22.4747 28.9445C23.2024 29.1783 23.9217 29.4094 24.8268 29.4094C27.4847 29.4094 29.3482 27.5458 29.3482 24.888C29.3482 24.3075 29.1649 23.6355 28.9512 23.1161L24.2465 12.4236C23.4521 10.6212 21.9247 9.64358 20 9.64358C18.0753 9.64358 16.5478 10.6212 15.7536 12.4236ZM15.3564 24.7964L20 14.2872L24.5825 24.7964C23.2688 24.1548 21.6192 23.8493 20 23.8493C18.3198 23.8493 16.7312 24.1548 15.3564 24.7964Z" fill="#5A45FF"/>
</svg>