<svg xmlns="http://www.w3.org/2000/svg" width="40" height="40" fill="none"><path fill="#5A45FF" fill-rule="evenodd" d="M20 33C9.515 33 7 30.485 7 20S9.515 7 20 7s13 2.515 13 13-2.515 13-13 13Zm-3.68-19.566L12.242 22.7c-.185.45-.344 1.032-.344 1.535 0 2.304 1.615 3.919 3.919 3.919.755 0 1.381-.199 2.019-.4.659-.209 1.33-.421 2.164-.421.844 0 1.498.21 2.145.418.63.203 1.254.403 2.038.403 2.304 0 3.919-1.615 3.919-3.919 0-.503-.16-1.085-.344-1.535l-4.078-9.267c-.688-1.562-2.012-2.41-3.68-2.41-1.668 0-2.992.848-3.68 2.41Zm-.344 10.723L20 15.049l3.971 9.108c-1.138-.556-2.568-.82-3.971-.82-1.456 0-2.833.264-4.024.82Z" clip-rule="evenodd"/></svg>
