<?xml version="1.0" encoding="UTF-8"?>
<svg xmlns="http://www.w3.org/2000/svg" xmlns:xlink="http://www.w3.org/1999/xlink" width="25px" height="25px" viewBox="0 0 32 39" version="1.1">
<g id="surface1">
<path style=" stroke:none;fill-rule:nonzero;fill:rgb(9.019608%,9.803922%,11.764706%);fill-opacity:1;" d="M 9.902344 33.382812 C 7.933594 31.609375 7.359375 27.890625 8.175781 25.195312 C 9.601562 26.894531 11.570312 27.433594 13.613281 27.738281 C 16.761719 28.207031 19.855469 28.03125 22.785156 26.613281 C 23.117188 26.453125 23.429688 26.238281 23.792969 26.019531 C 24.070312 26.800781 24.140625 27.59375 24.042969 28.398438 C 23.8125 30.359375 22.820312 31.875 21.242188 33.023438 C 20.609375 33.484375 19.941406 33.894531 19.289062 34.328125 C 17.289062 35.660156 16.746094 37.21875 17.5 39.492188 C 17.515625 39.546875 17.53125 39.601562 17.574219 39.738281 C 16.550781 39.285156 15.804688 38.632812 15.234375 37.769531 C 14.632812 36.859375 14.347656 35.855469 14.332031 34.765625 C 14.324219 34.234375 14.324219 33.699219 14.253906 33.179688 C 14.074219 31.90625 13.46875 31.335938 12.324219 31.300781 C 11.148438 31.269531 10.21875 31.984375 9.972656 33.109375 C 9.953125 33.195312 9.925781 33.28125 9.898438 33.378906 Z M 9.902344 33.382812 "/>
<path style=" stroke:none;fill-rule:nonzero;fill:rgb(9.019608%,9.803922%,11.764706%);fill-opacity:1;" d="M 0 26.023438 C 0 26.023438 5.382812 23.414062 10.78125 23.414062 L 14.851562 10.890625 C 15.003906 10.285156 15.449219 9.871094 15.949219 9.871094 C 16.453125 9.871094 16.898438 10.285156 17.050781 10.890625 L 21.121094 23.414062 C 27.511719 23.414062 31.902344 26.023438 31.902344 26.023438 C 31.902344 26.023438 22.757812 1.253906 22.738281 1.203125 C 22.476562 0.472656 22.035156 0 21.4375 0 L 10.464844 0 C 9.867188 0 9.441406 0.472656 9.164062 1.203125 C 9.144531 1.253906 0 26.023438 0 26.023438 Z M 0 26.023438 "/>
</g>
</svg>
