<?xml version="1.0" encoding="UTF-8"?>
<svg xmlns="http://www.w3.org/2000/svg" xmlns:xlink="http://www.w3.org/1999/xlink" width="25px" height="25px" viewBox="0 0 32 39" version="1.1">
<g id="surface1">
<path style=" stroke:none;fill-rule:nonzero;fill:rgb(100%,100%,100%);fill-opacity:1;" d="M 9.996094 32.546875 C 8.058594 30.820312 7.492188 27.195312 8.300781 24.566406 C 9.699219 26.222656 11.640625 26.75 13.648438 27.042969 C 16.75 27.5 19.796875 27.332031 22.679688 25.949219 C 23.007812 25.792969 23.3125 25.582031 23.671875 25.367188 C 23.941406 26.132812 24.011719 26.902344 23.917969 27.6875 C 23.6875 29.601562 22.710938 31.078125 21.160156 32.199219 C 20.539062 32.644531 19.878906 33.046875 19.238281 33.46875 C 17.265625 34.765625 16.734375 36.289062 17.476562 38.503906 C 17.492188 38.558594 17.507812 38.613281 17.546875 38.742188 C 16.542969 38.304688 15.804688 37.664062 15.246094 36.824219 C 14.65625 35.9375 14.371094 34.957031 14.359375 33.894531 C 14.351562 33.378906 14.351562 32.859375 14.28125 32.347656 C 14.105469 31.109375 13.507812 30.550781 12.378906 30.519531 C 11.222656 30.488281 10.308594 31.183594 10.066406 32.28125 C 10.046875 32.363281 10.019531 32.449219 9.996094 32.546875 Z M 9.996094 32.546875 "/>
<path style=" stroke:none;fill-rule:nonzero;fill:rgb(100%,100%,100%);fill-opacity:1;" d="M 0.25 25.371094 C 0.25 25.371094 5.550781 22.828125 10.863281 22.828125 L 14.867188 10.617188 C 15.019531 10.027344 15.457031 9.625 15.953125 9.625 C 16.445312 9.625 16.882812 10.027344 17.035156 10.617188 L 21.039062 22.828125 C 27.332031 22.828125 31.652344 25.371094 31.652344 25.371094 C 31.652344 25.371094 22.652344 1.222656 22.632812 1.171875 C 22.375 0.460938 21.941406 0 21.351562 0 L 10.550781 0 C 9.964844 0 9.546875 0.460938 9.269531 1.171875 C 9.25 1.222656 0.25 25.371094 0.25 25.371094 Z M 0.25 25.371094 "/>
</g>
</svg>
