<svg xmlns="http://www.w3.org/2000/svg" width="40" height="40" fill="none"><path fill="#E05C43" d="M20 7c7.18 0 13 5.82 13 13s-5.82 13-13 13S7 27.18 7 20 12.82 7 20 7Z"/><path fill="#fff" d="M20.257 11.901c1.675-.034 2.858.42 3.876 1.866 2.222 5.507-5.718 8.348-6.035 8.46l-.01.005s-.239 1.495 2.036 1.437c2.804 0 5.749-2.171 6.869-3.09a.67.67 0 0 1 .909.056l.838.871c.243.25.25.65.018.911a14.334 14.334 0 0 1-5.018 3.555s-4.298 1.99-7.193.107c-1.73-1.123-2.204-2.468-2.397-3.868 0 0-2.098-.106-3.443-.631-1.348-.529.008-2.116.008-2.116s.416-.657 1.203 0c.79.656 2.26.36 2.26.36.132-1.035.35-2.404.993-3.846 1.348-3.024 3.41-4.044 5.086-4.077Zm.985 3.029c-.886-.853-3.449.855-3.547 4.763 0 0 .756.231 2.43-.92 1.676-1.15 2.005-2.988 1.117-3.844v.001Z" clip-rule="evenodd"/></svg>
