<svg xmlns="http://www.w3.org/2000/svg" width="40" height="40"><path d="M20 0c11.047 0 20 8.953 20 20s-8.953 20-20 20S0 31.047 0 20 8.953 0 20 0Zm0 0" style="stroke:none;fill-rule:nonzero;fill:#e05c43;fill-opacity:1"/><path d="M20.395 7.54c2.578-.052 4.398.647 5.964 2.87 3.418 8.473-8.797 12.844-9.285 13.016l-.015.008s-.368 2.3 3.132 2.21c4.313 0 8.844-3.34 10.567-4.753a1.031 1.031 0 0 1 1.398.086l1.29 1.34c.374.386.386 1 .027 1.402-1.121 1.25-3.754 3.812-7.72 5.468 0 0-6.612 3.063-11.066.165-2.66-1.727-3.39-3.797-3.687-5.95 0 0-3.227-.164-5.297-.972-2.074-.813.012-3.254.012-3.254s.64-1.012 1.851 0c1.215 1.008 3.477.554 3.477.554.203-1.593.539-3.699 1.527-5.918 2.075-4.652 5.246-6.222 7.825-6.273Zm1.515 4.66c-1.363-1.313-5.305 1.316-5.457 7.327 0 0 1.164.356 3.738-1.414 2.579-1.77 3.086-4.597 1.72-5.914Zm0 0" style="stroke:none;fill-rule:evenodd;fill:#fff;fill-opacity:1"/></svg>
