<svg width="40" height="40" viewBox="0 0 40 40" fill="none" xmlns="http://www.w3.org/2000/svg">
  <path fill="#00DC82" d="M21.586 28.667h9.666c.306 0 .608-.08.874-.233a1.722 1.722 0 0 0 .64-2.368l-6.492-11.142a1.74 1.74 0 0 0-.64-.634 1.76 1.76 0 0 0-2.388.634l-1.66 2.851-3.245-5.575a1.761 1.761 0 0 0-3.03 0L7.236 26.067a1.72 1.72 0 0 0 .639 2.367c.266.153.567.233.874.233h6.068c2.403 0 4.176-1.047 5.396-3.089l2.961-5.083 1.587-2.72 4.76 8.171h-6.347l-1.587 2.72Zm-6.87-2.724h-4.233l6.346-10.895 3.167 5.447-2.12 3.641c-.81 1.325-1.73 1.808-3.16 1.808Z"/>
</svg>