<svg width="40" height="40" viewBox="0 0 40 40" fill="none" xmlns="http://www.w3.org/2000/svg">
  <g clip-path="url(#a)">
    <path
      d="m21.76 33.906 9.88-6.247a.077.077 0 1 1 .083.13l-9.913 6.268a.073.073 0 0 1-.04.012l-.01-.163Z"
      fill="url(#b)"
    />
    <path
      d="M21.77 34.07a.09.09 0 0 1-.027-.005l-13.47-5.02a.076.076 0 0 1-.045-.1c.016-.04.06-.06.1-.045l13.435 5.006.007.163Z"
      fill="url(#c)"
    />
    <path
      d="m35.905 10.067-1.556 2.575-6.247 2.656-.348.148-5.614 5.25a.733.733 0 0 0-.195.35c-.005.029-.03.016-.054.015-.026-.002-.06.008-.064-.023-.003-.112-.015-.238-.197-.35l-2.813-1.822-2.052-1.33-5.78-1.483-4.837-1.24-3.064-4.76.047-.054.002-.004 11.503-2.99c.017-.005.02-.002.027.008l3.923 5.876.077.116c.085.123.093.2.093.254h.072v-.013l.001-.02.002-.013c.001-.006.001-.012.003-.017l.002-.018.016-.065c.001-.007.004-.014.006-.02l.022-.069.011-.026a.643.643 0 0 1 .07-.133l3.536-5.144c.008-.012.012-.018.03-.015l13.355 2.298.023.063Z"
      fill="#E8B67F"
    />
    <path
      d="M18.817 18.864h-.002l-2.05-1.329-5.78-1.482 7.771-2.794.021-.04v.04l.04 5.605Z"
      fill="url(#d)"
    />
    <path
      d="m18.756 13.259-7.77 2.793-.7-.18-4.138-1.062-3.064-4.76.05-.058 11.502-2.99c.017-.005.02-.002.027.008l3.923 5.876.077.116c.085.126.093.202.093.257Z"
      fill="url(#e)"
    />
    <path
      d="m18.784 13.556-7.348 2.64-1.146-.293 8.301-2.984.077.115c.085.124.093.2.093.255h.021l.002.267Z"
      fill="url(#f)"
    />
    <path d="m6.254 14.838-.104-.026-3.064-4.76.046-.054 3.122 4.84Z" fill="#D2A679" />
    <path
      d="m28.102 15.298-.348.148-5.614 5.25a.735.735 0 0 0-.195.35c-.005.029-.03.016-.054.015-.026-.002-.06.008-.064-.023-.002-.112-.015-.238-.197-.35l-2.813-1.824-.038-5.604v-.04l.052.04 9.27 2.038Z"
      fill="url(#g)"
    />
    <path
      d="m35.905 10.067-1.555 2.575-5.687 2.417-.56.238-9.274-2.038c-.005-.072.044-.235.097-.339a.396.396 0 0 1 .034-.056l3.537-5.144c.008-.013.012-.018.03-.015l13.355 2.297.023.065Z"
      fill="url(#h)"
    />
    <path
      d="m28.663 15.059-.907.385-.117.113-8.862-1.96.041-.34h.011c-.005-.071.044-.234.097-.338l9.737 2.14Z"
      fill="url(#i)"
    />
    <path
      opacity=".75"
      d="M19.023 13.301v5.697l-.206-.134h-.002l-.271-.177v-5.352l.212-.076h.072l.195.042Z"
      fill="url(#j)"
    />
    <path
      d="m21.715 33.978-13.481-5.03c-.076-.032-.088-.104-.092-.193l-.58-11.49c-.002-.03.035-.047.032-.066a.792.792 0 0 0-.12-.225L2 13.864l.046-.106 14.719 3.777 4.864 3.152c.181.112.195.237.197.35.001.03.038.02.063.022.026.002.05.014.055-.015a.724.724 0 0 1 .194-.348l5.615-5.25 10.182-4.329.062.086-5.497 4.83c-.106.107-.156.238-.135.292l-.562 11.259c-.009.072-.042.093-.114.142l-9.855 6.238c-.039.025-.081.032-.12.014Z"
      fill="#BF9064"
    />
    <path
      d="m21.89 21.06-.098 12.924a.116.116 0 0 1-.079-.006l-13.48-5.029c-.077-.032-.088-.105-.092-.192l-.58-11.49v-.012c0-.002.002-.004.003-.005l.005-.007.004-.007c.005-.009.014-.017.017-.024l.001-.004v-.002l14.236 3.836c.006.026.04.016.062.017Z"
      fill="#BD8F63"
    />
    <path
      opacity=".54"
      d="M21.794 33.946v.036a.116.116 0 0 1-.08-.005l-13.48-5.029c-.054-.023-.075-.066-.085-.12l13.645 5.118Z"
      fill="url(#k)"
    />
    <path
      d="m15.698 26.106 5.22 1.707-.013 5.09-5.123-1.88-.084-4.917Zm2.615 3.42.013 2.358 2.528.929v-2.404l-2.54-.883Zm.747.762.511.813.5-.439.088.1-.517.452.518.824-.075.047-.51-.812-.498.437-.087-.1.514-.45-.519-.825.075-.047Zm1.505.915v.233l.133.043v.262l-.133-.054v.211l-.293-.444.293-.25Zm-.45-.282.102.032v.927l-.102-.037v-.922ZM15.8 28.653l.038 2.321 2.416.883-.014-2.352-2.44-.852Zm3.777 2.767.265.426-.527-.191.262-.235Zm.408-.39v.604l-.274-.387.274-.218Zm-1.046-.54.101.034v.926l-.101-.036v-.923Zm.228.25.261.403-.261.201v-.605Zm-2.185-1.121.1.032v.06c.297.119.59.417.732.88-.093-.155-.174-.185-.32-.136-.053-.11-.21-.17-.304-.11a.271.271 0 0 0-.105-.11l.005.883c0 .081-.056.154-.196.126-.126-.03-.178-.128-.164-.294l.07.012c0 .11.009.174.093.194.072.017.104-.01.104-.076l-.01-.876a.138.138 0 0 0-.102.03c-.033-.08-.186-.19-.301-.11-.082-.128-.235-.178-.321-.083.11-.332.407-.448.72-.364l-.001-.058Zm1.6.862.285.45-.282.235.005-.221-.137-.033v-.255l.129.047v-.223Zm.724.097.534.194-.267.235-.267-.43Zm-.997-3.544.006 2.405 2.54.886v-2.457l-2.546-.834Zm.474 2.077 1.519.519v.302l-1.52-.523v-.298Zm-1.313.572.005.002c.01.01.01.115-.022.139a.058.058 0 0 1-.06-.007c-.02-.015-.03-.038-.022-.072.009-.034.093-.07.104-.06l-.005-.002Zm.14-.24.006.001c.011.01.011.116-.023.14a.058.058 0 0 1-.059-.008c-.02-.015-.03-.037-.022-.071.008-.034.093-.07.104-.06l-.006-.002Zm-.393-.01.005.002c.011.01.011.115-.022.139a.058.058 0 0 1-.06-.007c-.02-.016-.03-.038-.022-.072.008-.034.093-.07.104-.06l-.005-.002Zm-.398-.058.005.002c.011.01.011.115-.022.14a.058.058 0 0 1-.06-.008c-.02-.015-.03-.038-.022-.072.009-.033.093-.07.104-.06l-.005-.002Zm3.137-1.579.368.727-.252-.085v1.053l-.251-.087.001-1.045-.25-.082.384-.48Zm-4.203-1.6.043 2.372 2.446.841-.021-2.403-2.468-.81Zm3.372 1.323.368.727-.252-.085v1.053l-.251-.087.003-1.045L18.74 28l.384-.48Zm-2.825-.846.2.066.092.336-.104-.007.297.717-.154-.59.088-.002-.089-.412 1.03.34v.567a.398.398 0 0 1-.562.352l.002.57.472.303-1.143-.397.46.023-.009-.564c-.326-.097-.562-.49-.562-.729l-.018-.573Z"
      fill="#322214"
    />
    <path
      d="M21.89 21.06c-.057 0-.1.075-.1.143l-.013.005L7.56 17.265c-.001-.026.03-.043.032-.06a.792.792 0 0 0-.12-.23L2 13.865l.046-.106 14.718 3.776h.001l4.864 3.151c.181.114.195.238.197.35l.001.006c.006.027.04.017.062.018Z"
      fill="url(#l)"
    />
    <path
      d="M32.502 16.032c-.107.107-.156.238-.135.291l-10.354 4.9-.021-.017c-.002-.082-.054-.137-.093-.145.021.002.04.01.046-.017a.381.381 0 0 1 .038-.117.791.791 0 0 1 .133-.205l.025-.027 5.615-5.25 10.182-4.329.062.086-5.498 4.83Z"
      fill="#CD9C6B"
    />
    <path
      d="M15.5 22.347c.015.005.02.006.02-.007l-.053-2.86c-.004-.097-.028-.288-.145-.366l-5.184-3.15-2.43-.627 5.269 3.149c.132.087.143.25.149.371l.076 2.782c0 .014.003.016.012.02l2.285.688Z"
      fill="url(#m)"
    />
    <path
      d="M21.89 21.06c-.058 0-.1.08-.1.148-.002.006-.012.005-.013 0-.012-.153-.075-.325-.158-.385l-4.903-3.161.048-.128h.001l4.864 3.151c.181.114.196.238.197.35l.001.006c.006.027.04.017.062.018Z"
      fill="#D4A271"
    />
    <path d="m16.764 17.535-.048.127L2 13.864l.046-.104 14.718 3.775Z" fill="#DEB37E" />
    <path
      d="m32.368 16.323-.562 11.26c-.009.071-.043.092-.114.142l-9.855 6.237a.151.151 0 0 1-.043.02l.097-12.924c.025.001.049.014.055-.016v-.01l10.42-4.721c0 .006 0 .01.002.012Z"
      fill="#DBAD77"
    />
    <path
      opacity=".54"
      d="M31.806 27.578v.006c-.009.072-.043.093-.114.142l-9.855 6.238a.151.151 0 0 1-.043.02v-.037l10.012-6.369Z"
      fill="url(#n)"
    />
    <path
      d="m31.622 22.68-.226 4.583-3.276 2.04.169-4.77 3.332-1.854Zm-1.753 3.318-1.628.957-.077 2.257 1.621-1.008.084-2.206Zm-.777.969-.003.076c.194-.098.378-.03.456.292-.054-.075-.15-.045-.216.107-.03-.063-.18-.011-.202.12-.012-.02-.034-.028-.058-.026l-.036.87c-.003.075-.007.155-.102.213-.043.02-.159.035-.143-.127l.055-.042c-.004.103.022.134.079.1.067-.04.054-.105.057-.166l.03-.824a.197.197 0 0 0-.085.125c-.017-.05-.18-.02-.2.125-.046-.061-.172-.001-.22.155.088-.405.306-.742.524-.887l.002-.066.062-.045Zm2.376-1.914-1.552.918-.086 2.212 1.536-.966.102-2.164Zm-.48.745.046.042-.339.768.28.385-.045.096-.279-.381-.334.76-.047-.043.341-.772-.289-.395.05-.096.283.39.334-.754Zm-.944.882.175.213-.187.403v-.177l-.078.047.004-.229.079-.046.007-.211Zm.303-.279-.036.848-.063.043.035-.846.064-.045Zm.297.443.15.199-.323.196.173-.395Zm-1.722.062c.007 0 .002.097-.021.145-.009.017-.024.035-.037.037-.013.001-.018-.013-.011-.05a.43.43 0 0 1 .069-.132Zm1.496-.39.149.185-.175.344.026-.528Zm-1.069.214a.319.319 0 0 1-.021.145c-.008.017-.024.035-.037.037-.012.001-.018-.013-.01-.05a.427.427 0 0 1 .068-.132Zm.624-3.07-1.645.922-.086 2.302 1.633-.962.098-2.263Zm1.085 2.31-.04.846-.056.037.038-.845.058-.038Zm-1.864.697c.007 0 .003.097-.02.145-.01.017-.025.035-.037.037-.013 0-.018-.013-.012-.05a.43.43 0 0 1 .07-.132Zm1.719-.451-.023.54-.146-.175.169-.365Zm.349-.258-.009.209.082-.046-.01.231-.079.046-.003.19-.17-.204.189-.426Zm-1.805.43c.007 0 .003.098-.02.145-.01.017-.025.036-.037.037-.013.002-.019-.013-.012-.05a.432.432 0 0 1 .07-.131Zm1.376-.326-.175.4-.15-.204.325-.195ZM29.59 24.15l-.021.579c-.009.197-.166.554-.4.703l-.026.547.313-.067-.763.441.318-.302.017-.537c-.204.116-.368-.1-.358-.32l.019-.531.137-.075.045.256-.074.06.164.477-.063-.434.056-.065-.043-.341.679-.391Zm1.997-1.387-1.575.88-.099 2.263 1.561-.934.113-2.209Zm-.41 1.95-.02.27-.923.545.013-.272.93-.543Zm-.653-1.16.204.43-.154.087-.046.966-.146.084.028-.966-.148.088.262-.689Zm.512-.284.198.424-.163.091-.034.959-.156.087.049-.966-.153.087.259-.682Z"
      fill="#322214"
    />
    <path
      d="M27.837 15.555 22.27 20.73c-.157.15-.261.376-.257.492-.003.006-.017.01-.023 0 .008-.09-.05-.152-.092-.161.02.002.04.01.046-.017a.37.37 0 0 1 .038-.117.796.796 0 0 1 .156-.23l5.615-5.251.084.11Z"
      fill="#D7AA77"
    />
    <path
      d="M26.61 21.833c0 .015.007.022.017.018l1.672-.858c.003-.001.004-.004.005-.01l.093-2.74c.003-.15.087-.3.203-.403l5.553-4.99-1.69.724-5.582 5.057a.636.636 0 0 0-.195.447l-.076 2.755Z"
      fill="url(#o)"
    />
    <path d="M27.837 15.555 38 11.202l-.062-.085-10.182 4.327.082.111Z" fill="#F8CE93" />
  </g>
  <defs>
    <linearGradient
      id="b"
      x1="26.698"
      y1="30.826"
      x2="26.75"
      y2="30.909"
      gradientUnits="userSpaceOnUse"
    >
      <stop />
      <stop offset="1" stop-opacity="0" />
    </linearGradient>
    <linearGradient
      id="c"
      x1="15.016"
      y1="31.479"
      x2="15.009"
      y2="31.497"
      gradientUnits="userSpaceOnUse"
    >
      <stop />
      <stop offset="1" stop-opacity="0" />
    </linearGradient>
    <linearGradient
      id="d"
      x1="17.368"
      y1="15.846"
      x2="18.259"
      y2="16.215"
      gradientUnits="userSpaceOnUse"
    >
      <stop stop-color="#C37A44" />
      <stop offset=".444" stop-color="#BB713D" />
      <stop offset=".641" stop-color="#A05728" />
      <stop offset="1" stop-color="#964E23" />
    </linearGradient>
    <linearGradient
      id="e"
      x1="13.032"
      y1="12.55"
      x2="11.101"
      y2="9.84"
      gradientUnits="userSpaceOnUse"
    >
      <stop stop-color="#E9B880" />
      <stop offset="1" stop-color="#E4AF76" />
    </linearGradient>
    <linearGradient
      id="f"
      x1="14.613"
      y1="14.594"
      x2="14.576"
      y2="14.494"
      gradientUnits="userSpaceOnUse"
    >
      <stop stop-color="#C37A45" stop-opacity="0" />
      <stop offset=".133" stop-color="#C37A45" />
      <stop offset=".294" stop-color="#D08D55" />
      <stop offset=".502" stop-color="#DEA167" />
      <stop offset=".697" stop-color="#E8AF73" />
      <stop offset=".863" stop-color="#ECB477" />
      <stop offset="1" stop-color="#ECB477" stop-opacity="0" />
    </linearGradient>
    <linearGradient
      id="g"
      x1="23.2"
      y1="15.49"
      x2="21.434"
      y2="19.549"
      gradientUnits="userSpaceOnUse"
    >
      <stop offset=".088" stop-color="#AF6938" />
      <stop offset=".483" stop-color="#9A5227" />
      <stop offset=".779" stop-color="#8D4520" />
    </linearGradient>
    <linearGradient
      id="h"
      x1="25.855"
      y1="12.054"
      x2="26.876"
      y2="10.219"
      gradientUnits="userSpaceOnUse"
    >
      <stop offset=".033" stop-color="#E4AF76" />
      <stop offset="1" stop-color="#E9B880" />
    </linearGradient>
    <linearGradient
      id="i"
      x1="23.683"
      y1="14.25"
      x2="23.695"
      y2="14.197"
      gradientUnits="userSpaceOnUse"
    >
      <stop stop-color="#AF6A38" stop-opacity="0" />
      <stop offset=".086" stop-color="#AF6A38" />
      <stop offset=".198" stop-color="#B87542" />
      <stop offset=".583" stop-color="#D59C66" />
      <stop offset=".777" stop-color="#E4AF76" />
      <stop offset=".924" stop-color="#E4AF76" stop-opacity="0" />
    </linearGradient>
    <linearGradient
      id="j"
      x1="18.583"
      y1="16.129"
      x2="18.991"
      y2="16.129"
      gradientUnits="userSpaceOnUse"
    >
      <stop stop-color="#743F1A" stop-opacity="0" />
      <stop offset=".493" stop-color="#743F1A" stop-opacity=".887" />
      <stop offset=".5" stop-color="#743F1A" stop-opacity=".9" />
      <stop offset=".53" stop-color="#743F1A" stop-opacity=".847" />
      <stop offset="1" stop-color="#743F1A" stop-opacity="0" />
    </linearGradient>
    <linearGradient
      id="k"
      x1="14.958"
      y1="31.412"
      x2="14.961"
      y2="31.403"
      gradientUnits="userSpaceOnUse"
    >
      <stop stop-color="#322214" />
      <stop offset=".24" stop-color="#322314" stop-opacity=".989" />
      <stop offset="1" stop-color="#322214" stop-opacity="0" />
    </linearGradient>
    <linearGradient
      id="l"
      x1="12.219"
      y1="17.352"
      x2="12.107"
      y2="17.725"
      gradientUnits="userSpaceOnUse"
    >
      <stop offset=".048" stop-color="#C69866" />
      <stop offset=".416" stop-color="#BA8C5E" />
      <stop offset=".814" stop-color="#B5875B" />
    </linearGradient>
    <linearGradient
      id="m"
      x1="12.633"
      y1="18.622"
      x2="9.979"
      y2="15.675"
      gradientUnits="userSpaceOnUse"
    >
      <stop stop-color="#845F35" />
      <stop offset=".431" stop-color="#91673C" />
      <stop offset=".441" stop-color="#976A40" />
      <stop offset=".874" stop-color="#986B40" />
      <stop offset="1" stop-color="#AB8157" />
    </linearGradient>
    <linearGradient
      id="n"
      x1="26.799"
      y1="30.781"
      x2="26.806"
      y2="30.791"
      gradientUnits="userSpaceOnUse"
    >
      <stop stop-color="#322214" stop-opacity="0" />
      <stop offset="1" stop-color="#322214" />
    </linearGradient>
    <linearGradient
      id="o"
      x1="30.054"
      y1="18.487"
      x2="30.566"
      y2="15.898"
      gradientUnits="userSpaceOnUse"
    >
      <stop stop-color="#A9794B" />
      <stop offset=".386" stop-color="#AE7F53" />
      <stop offset=".456" stop-color="#AC7D50" />
      <stop offset=".624" stop-color="#A9794B" />
      <stop offset="1" stop-color="#B2875D" />
    </linearGradient>
    <clipPath id="a"><path fill="#fff" d="M2 7h36v27.141H2z" /></clipPath>
  </defs>
</svg>
