<svg width="40" height="40" viewBox="0 0 40 40" fill="none" xmlns="http://www.w3.org/2000/svg">
<path d="M16.7145 25.4098C16.5536 25.3809 16.4906 25.3699 16.4275 25.3582C14.3892 24.9791 13.1007 23.7457 12.4901 21.8067C12.1095 20.5981 12.8011 19.708 14.0688 19.6494C15.1068 19.6013 15.8172 20.1979 16.4455 20.8921C17.2553 21.7871 17.9977 22.7428 18.7932 23.6513C19.9385 24.959 21.2879 25.8011 23.1342 25.5412C24.7897 25.3081 26.2325 24.6438 27.4879 23.5503C27.6766 23.3859 27.8836 23.2427 28.0823 23.0896C28.0405 23.0404 27.9989 22.9912 27.9571 22.942C26.9032 23.2692 25.8284 23.3792 24.7303 23.324C23.0686 23.2404 21.4852 22.8935 20.0684 21.9812C18.7757 21.1486 17.8223 20.033 17.369 18.5429C17.003 17.3392 17.7522 16.4971 18.9996 16.6711C19.4928 16.7399 19.9079 16.962 20.2806 17.277C20.584 17.5332 20.875 17.8048 21.1845 18.0533C22.6404 19.2233 24.6749 19.2883 26.523 18.0181C23.4847 18.0043 21.4176 16.333 19.6019 14.2149C18.8914 13.386 18.1976 12.5421 17.4723 11.7263C16.069 10.1475 14.5122 8.75653 12.3804 8.28204C9.65733 7.67589 7.02841 8.07205 4.50505 9.22773C4.00189 9.45812 3.51871 9.72604 3 10.1577C3.25679 10.1577 3.39688 10.1609 3.53668 10.1573C4.80892 10.1245 5.76231 10.6898 6.44992 11.7305C6.95037 12.4879 7.18619 13.3444 7.36594 14.2256C7.63271 15.5334 7.49462 16.8667 7.64869 18.1804C8.04471 21.5579 9.77088 23.9148 12.985 25.1217C14.1636 25.5643 15.3725 25.7117 16.7145 25.4098ZM8.59166 10.0031C8.0838 10.1312 7.67793 9.92619 7.25966 9.50292C7.97595 9.32445 8.60764 9.25526 9.28641 9.22859C9.23092 9.66926 8.97099 9.9075 8.59166 10.0031ZM25.234 29.7258C25.1898 29.4007 24.912 29.2575 24.6936 29.0874C23.7275 28.3355 22.5976 28.0693 21.3997 28.0472C20.6849 28.034 19.9774 27.9807 19.3032 27.73C18.9942 27.6152 18.6486 27.4677 18.6564 27.0684C18.6642 26.6632 19.0168 26.5487 19.3376 26.4528C19.6002 26.3743 19.8713 26.3243 20.1703 26.2544C19.4108 25.7676 18.6688 25.7001 17.6802 26.0977C16.1239 26.7234 14.5896 26.6493 13.0382 26.089C12.1623 25.7729 11.3849 25.2766 10.5756 24.8371L10.5535 24.8523C10.5641 24.845 10.5745 24.8378 10.5745 24.8378C10.5545 24.7767 10.5183 24.7751 10.4718 24.8092C10.493 24.8278 10.5141 24.8463 10.5353 24.8649C11.2065 25.9649 12.1132 26.85 13.1375 27.6064C15.1102 29.0629 17.2649 29.9316 19.7861 29.5461C20.6004 29.4215 21.4208 29.325 22.2421 29.2588C23.2718 29.1756 24.2529 29.4653 25.234 29.7258ZM20.4807 13.945C20.4262 13.9055 20.3739 13.8064 20.2626 13.9089C21.1696 15.1358 22.3349 16.0403 23.7379 16.6096C26.0023 17.5285 28.3006 17.6857 30.6512 16.8748C32.4761 16.2454 33.7884 16.8604 34.4699 18.6322C34.5684 16.5757 33.3586 15.0772 31.4314 14.7834C30.3472 14.6182 29.3461 14.9779 28.3305 15.2725C25.5043 16.0919 22.878 15.6873 20.4807 13.945ZM34.5665 21.9665C34.9348 21.9974 35.3029 22.0308 35.6711 22.063C34.8391 21.3322 33.8251 21.2743 32.7992 21.3326C31.2371 21.4214 30.1116 22.3223 29.0856 23.3986C28.1816 24.3473 27.3647 25.4115 26.0156 25.7927C26.0381 25.8332 26.044 25.8535 26.0503 25.8535C26.2317 25.8562 26.4136 25.8648 26.5947 25.8565C28.5541 25.7678 30.4 25.3545 31.8683 23.9325C32.3307 23.4846 32.7446 22.9872 33.1909 22.5224C33.5633 22.1348 34.0148 21.92 34.5665 21.9665ZM30.0146 19.5381C28.5524 19.6659 27.2821 20.2708 26.0891 21.0684C25.1708 21.6823 24.1887 21.9727 23.0851 21.7807C22.8909 21.7469 22.6954 21.7217 22.5005 21.6924C22.4982 21.7197 22.4961 21.7468 22.4938 21.774C22.564 21.8101 22.6317 21.8523 22.7048 21.8813C22.8887 21.9541 23.0698 22.0417 23.2607 22.087C25.3843 22.5919 27.4172 22.3332 29.2501 21.1493C30.4054 20.4031 31.6013 20.2617 32.8975 20.4544C33.0284 20.474 33.1588 20.4978 33.2904 20.5101C33.4122 20.5216 33.5394 20.6427 33.7039 20.5116C32.5708 19.6931 31.3502 19.4214 30.0146 19.5381ZM24.7885 14.5746C25.5555 14.6011 26.3192 14.5007 27.1215 14.0241C26.8865 14.0449 26.7868 14.0445 26.6912 14.0636C25.5859 14.2839 24.5937 14.0428 23.71 13.344C23.3857 13.0875 23.056 12.8379 22.7276 12.5866C21.4257 11.5909 19.9328 11.2578 18.2998 11.286C18.3261 11.3663 18.3277 11.4214 18.3561 11.4499C20.1329 13.2471 22.1894 14.485 24.7885 14.5746ZM37.648 23.7958C36.5484 22.7052 35.0727 22.5646 33.7072 23.5165C34.6111 23.5571 35.2896 23.8454 35.8398 24.4152C36.0346 24.6168 36.2364 24.8147 36.4543 24.9904C37.2862 25.6615 38.6967 25.6937 39.5207 25.0712C38.5528 24.6934 38.5528 24.6934 37.648 23.7958ZM26.6965 32.1478C25.7301 30.349 24.106 29.9431 22.2297 30.0638C22.7844 30.2176 23.3024 30.4543 23.7777 30.7861C24.2144 31.0909 24.5819 31.4684 24.9441 31.855C25.6618 32.621 26.782 33.091 27.5242 32.9321C27.1834 32.7173 26.8807 32.4904 26.6965 32.1478ZM35.6885 22.1001C35.6887 22.0887 35.689 22.0772 35.6897 22.0652C35.6897 22.0652 35.6883 22.0666 35.6869 22.0682L35.6897 22.0652C35.6835 22.0646 35.6773 22.0636 35.6711 22.063C35.6748 22.0665 35.6788 22.0692 35.6825 22.0726C35.6845 22.0817 35.6865 22.091 35.6885 22.1001ZM25.2876 29.7682C25.2749 29.7609 25.2622 29.7538 25.2495 29.7467C25.2512 29.7548 25.2532 29.7628 25.2575 29.7693C25.2601 29.7736 25.2772 29.7688 25.2876 29.7682ZM25.2495 29.7467C25.2484 29.7408 25.2474 29.7348 25.2458 29.729C25.2458 29.729 25.2437 29.7317 25.2414 29.7344L25.2458 29.729C25.242 29.7278 25.238 29.727 25.234 29.7258C25.2347 29.7307 25.2364 29.7347 25.237 29.7397C25.2413 29.742 25.2454 29.7444 25.2495 29.7467Z" fill="#FD4F00"/>
</svg>
