<?xml version="1.0" encoding="UTF-8"?>
<svg width="287" height="196" viewBox="0 0 287 196" version="1.1" xmlns="http://www.w3.org/2000/svg" xmlns:xlink="http://www.w3.org/1999/xlink">
    <title>Phoenix Framework</title>
    <g id="Icons" stroke="none" stroke-width="1" fill="none" fill-rule="evenodd">
        <g id="icons/phoenix" transform="translate(19.000000, -40.000000)" fill="#FD4F00" fill-rule="nonzero">
            <g id="phoenix" transform="translate(-19.000000, 40.000000)">
                <path d="M107.776348,136.695805 C106.511754,136.468423 106.01623,136.382175 105.520707,136.290326 C89.5025195,133.314199 79.3768008,123.629744 74.5785195,108.405235 C71.5874414,98.9156792 77.0225039,91.9273247 86.984543,91.4669603 C95.1416211,91.0894838 100.724668,95.773776 105.661965,101.224222 C112.026414,108.25178 117.860586,115.755384 124.111805,122.888233 C133.111945,133.156264 143.716371,139.768262 158.225566,137.727425 C171.235859,135.897168 182.57348,130.680825 192.439105,122.095196 C193.922313,120.804832 195.54902,119.680243 197.110703,118.478367 C196.782223,118.09193 196.454863,117.705492 196.126383,117.319055 C187.844863,119.888583 179.398543,120.752187 170.768363,120.318705 C157.709863,119.662321 145.266844,116.938218 134.133262,109.775127 C123.97391,103.238176 116.481641,94.478931 112.919926,82.7794017 C110.043199,73.3279295 115.931184,66.7159313 125.734027,68.0824632 C129.609648,68.6223553 132.872031,70.3663636 135.800328,72.8395623 C138.184895,74.8512765 140.471926,76.9839624 142.903578,78.9351907 C154.345461,88.1211973 170.333379,88.6319666 184.857148,78.658524 C160.980094,78.5498735 144.735445,65.427807 130.467285,48.7975618 C124.883117,42.2886136 119.431238,35.6631741 113.731598,29.2572758 C102.703398,16.8610393 90.4689023,5.93998518 73.7163984,2.2145056 C52.3169609,-2.54483378 31.6574453,0.565706451 11.8275391,9.63970228 C7.87344141,11.4486769 4.07629688,13.5522399 0,16.9416871 C2.01796875,16.9416871 3.11888281,16.9663294 4.21755469,16.9383267 C14.2154688,16.6807019 21.7077383,21.1196903 27.1114102,29.290879 C31.044207,35.237533 32.897375,41.9626621 34.3099531,48.8815699 C36.4063984,59.149601 35.3211797,69.6181314 36.5319609,79.933207 C39.6441172,106.451767 53.2093516,124.957072 78.4675938,134.433187 C87.7300703,137.908883 97.2302188,139.065954 107.776348,136.695805 L107.776348,136.695805 Z M43.9423906,15.7274899 C39.9512969,16.733347 36.7617852,15.1237516 33.4747383,11.8003908 C39.10375,10.3991356 44.0679531,9.85588315 49.4021172,9.64642293 C48.9660117,13.1064369 46.9233789,14.9770174 43.9423906,15.7274899 Z M174.726945,170.583556 C174.379406,168.03083 172.196637,166.906241 170.480242,165.571072 C162.888195,159.666983 154.009133,157.576861 144.595309,157.403244 C138.977508,157.300194 133.418004,156.881274 128.119715,154.913244 C125.691426,154.011557 122.975016,152.853365 123.036676,149.718182 C123.098336,146.537075 125.868559,145.637628 128.389898,144.884916 C130.453832,144.268856 132.58391,143.875698 134.933723,143.326845 C128.96502,139.505037 123.134211,138.975225 115.365031,142.096967 C103.13502,147.009761 91.0776562,146.427305 78.8857617,142.02864 C72.0022461,139.546481 65.8934062,135.649624 59.5334414,132.198571 L59.3596719,132.318423 C59.4426328,132.261297 59.5300781,132.200812 59.5244727,132.204172 C59.3675195,131.724766 59.0827617,131.712444 58.7172852,131.98015 C58.8843281,132.125764 59.05025,132.271378 59.2161719,132.416992 C64.490918,141.054146 71.6165898,148.003297 79.666043,153.94211 C95.1685273,165.378414 112.101527,172.198752 131.914617,169.17222 C138.31382,168.194366 144.76123,167.436052 151.215367,166.916322 C159.307422,166.263299 167.017184,168.538239 174.726945,170.583556 Z M137.373223,46.6783173 C136.944965,46.3680473 136.533523,45.5895722 135.65907,46.3949299 C142.786984,56.0278597 151.944078,63.1293451 162.970035,67.5996966 C180.765156,74.8143129 198.825977,76.0486721 217.298238,69.6819776 C231.63927,64.7400606 241.952211,69.5688467 247.307676,83.4805894 C248.082352,67.3331109 238.574355,55.5674952 223.4295,53.2611926 C214.909187,51.9641074 207.042473,54.7879 199.061406,57.1009232 C176.851418,63.5348242 156.212082,60.3581976 137.373223,46.6783173 Z M248.066656,109.659756 C250.96132,109.90282 253.853742,110.164925 256.747285,110.418069 C250.209066,104.679756 242.240332,104.224992 234.178547,104.683116 C221.90257,105.379823 213.058262,112.453306 204.995355,120.904521 C197.890984,128.35324 191.471602,136.709247 180.869418,139.702176 C181.046551,140.020286 181.092516,140.179342 181.141844,140.179342 C182.567875,140.200624 183.99727,140.26783 185.419937,140.202864 C200.81816,139.506157 215.323992,136.261203 226.86341,125.095966 C230.496875,121.579946 233.749168,117.674129 237.25707,114.024817 C240.183125,110.981484 243.731387,109.294601 248.066656,109.659756 Z M212.295918,90.5932759 C200.804707,91.5968928 190.822488,96.3461512 181.446781,102.608676 C174.230301,107.428501 166.512691,109.709041 157.83991,108.201375 C156.314102,107.93591 154.777082,107.737651 153.245668,107.508029 C153.22773,107.721969 153.210914,107.93479 153.192977,108.14873 C153.744555,108.432118 154.277074,108.76367 154.851074,108.991052 C156.296164,109.562307 157.719953,110.250053 159.219977,110.606248 C175.908578,114.57031 191.884164,112.539554 206.287977,103.243777 C215.366594,97.3844914 224.764723,96.2744643 234.95098,97.7877303 C235.980145,97.9411852 237.004824,98.1282432 238.038473,98.2245725 C238.995887,98.3153013 239.995902,99.2662731 241.288523,98.2368937 C232.383676,91.8097133 222.791598,89.6770275 212.295918,90.5932759 Z M171.22577,51.6213544 C177.253891,51.8296945 183.255105,51.0411384 189.560137,47.2988571 C187.713695,47.4623929 186.930051,47.4590326 186.178918,47.6091271 C177.492684,49.338574 169.695477,47.4455913 162.750301,41.9593018 C160.202055,39.9453474 157.611207,37.9851582 155.030449,36.0126478 C144.799348,28.1942932 133.067102,25.5788407 120.233941,25.8006221 C120.441344,26.431243 120.453676,26.8636047 120.676773,27.0876264 C134.639996,41.1987484 150.800562,50.9179265 171.22577,51.6213544 Z M272.283402,124.022902 C263.642012,115.459676 252.045418,114.356369 241.314309,121.829731 C248.417559,122.148961 253.74948,124.4127 258.073539,128.886412 C259.603832,130.469124 261.19018,132.022714 262.90209,133.402688 C269.440309,138.671676 280.524563,138.924821 287,134.036669 C279.393379,131.070622 279.393379,131.070622 272.283402,124.022902 Z M186.220398,189.599632 C178.626109,175.476189 165.862457,172.289481 151.117832,173.237092 C155.476645,174.444569 159.547336,176.302828 163.28282,178.9082 C166.714488,181.301871 169.602426,184.265677 172.448883,187.30117 C178.089105,193.31503 186.891934,197.005787 192.724984,195.757986 C190.046691,194.071103 187.66773,192.290131 186.220398,189.599632 Z M256.884059,110.709298 C256.886301,110.619689 256.888543,110.52896 256.894148,110.434871 C256.894148,110.433751 256.882937,110.446072 256.871727,110.458393 L256.896391,110.431511 C256.847062,110.42703 256.796613,110.42255 256.747285,110.418069 C256.776434,110.444952 256.807824,110.466234 256.836973,110.493117 C256.852668,110.564804 256.868363,110.637611 256.884059,110.709298 Z M175.148477,170.916228 C175.048699,170.859103 174.948922,170.803097 174.849145,170.747092 C174.862598,170.810938 174.878293,170.873664 174.911926,170.925189 C174.932105,170.958792 175.066637,170.920709 175.148477,170.916228 Z M174.849145,170.747092 C174.840176,170.701168 174.832328,170.654123 174.819996,170.608199 C174.819996,170.608199 174.80318,170.629481 174.785242,170.650763 L174.819996,170.609319 C174.789727,170.600358 174.758336,170.592517 174.726945,170.583556 C174.732551,170.62164 174.746004,170.653003 174.750488,170.692207 C174.784121,170.710128 174.816633,170.72917 174.849145,170.747092 Z" id="Shape"></path>
            </g>
        </g>
    </g>
</svg>
