<svg width="40" height="40" viewBox="0 0 90 32" fill="none" xmlns="http://www.w3.org/2000/svg">
  <path d="M89.0824 15.9995V20.113H81.782V22.0116H85.4661C87.4386 22.0116 89.5386 23.478 89.6641 25.9781L89.67 26.2155V27.7976C89.5822 30.8056 87.1269 31.9366 85.5984 31.9988L85.4661 32.0015H78.0753V27.9106L85.5565 27.888V25.8991L84.3664 25.8998L84.0195 25.9006L83.9349 25.901L83.8073 25.9017L83.7625 25.9021L83.7067 25.9028L83.6903 25.9037C83.6909 25.9041 83.7036 25.9045 83.7247 25.9049L83.7769 25.9057C83.8074 25.9061 83.8438 25.9065 83.8821 25.9069L83.9603 25.9075L83.8049 25.9071C83.4905 25.9055 82.9524 25.903 82.0758 25.8991C80.3006 25.8991 77.994 24.5602 77.8558 21.9442L77.8493 21.6952V20.2713C77.8493 17.573 80.1275 16.0884 81.9148 16.0034L82.0758 15.9995H89.0824ZM70.3908 15.9995V27.8654H76.561V32.0015H65.8252V15.9995H70.3908ZM63.9493 15.9995V32.0015H59.3612V15.9995H63.9493ZM53.1457 15.9995C54.2034 15.9995 57.1949 16.7301 57.3438 19.9508L57.3496 20.2035V32.0015H53.0779V29.1763H48.9418V32.0015H44.5345V20.2035C44.5345 18.885 45.5386 16.1566 48.4814 16.006L48.7384 15.9995H53.1457ZM28.9985 15.9968L37.5787 15.9974C37.7581 16.017 42.3321 16.5676 42.3321 21.5412C42.3321 26.5148 38.5564 26.9359 38.4083 26.9505L38.4038 26.9509L43.4095 32.0015H37.0346L33.3083 28.1406V32.0015H28.9985V15.9968ZM51.4172 13.2996L51.4506 13.3325C51.4506 13.3325 51.0663 13.6038 50.6595 13.9428C37.8218 4.45009 29.979 8.92522 27.5154 10.1231C16.3276 16.3659 19.5607 31.691 19.6264 31.9969L19.6274 32.0015H1.77213C1.77213 32.0015 2.45015 25.3114 7.1965 17.4008C11.9429 9.49026 20.0343 3.50082 26.6114 2.91318C39.293 1.64282 50.7223 12.6194 51.4172 13.2996V13.2996ZM20.3055 27.4812L22.7465 28.3627C22.8595 29.2479 23.0196 30.086 23.1875 30.8509L23.2889 31.3009L20.5767 30.329C20.4637 29.6509 20.3507 28.6791 20.3055 27.4812V27.4812ZM51.8122 19.8192H50.2979C49.1699 19.8192 48.9648 20.4093 48.9275 20.6239L48.9202 20.6802L48.9193 20.6954L48.9192 24.6108H53.0553L53.055 20.6943C53.0501 20.6147 52.9717 19.8192 51.8122 19.8192V19.8192ZM1.32007 20.1582L3.91928 21.1075C3.60286 21.8392 3.19992 22.7786 2.90729 23.5168L2.78918 23.8197L0.190002 22.8704C0.416019 22.2602 0.890637 21.1301 1.32007 20.1582ZM36.7652 20.0148H33.3083V23.6737H36.7428C36.7428 23.6737 37.7304 23.2921 37.7304 21.833C37.7304 20.374 36.7652 20.0148 36.7652 20.0148V20.0148ZM21.3226 19.2542L22.9499 20.5425C22.7691 21.2476 22.6317 21.9528 22.5376 22.658L22.4753 23.1869L20.6445 21.7404C20.8253 20.9267 21.0287 20.0904 21.3226 19.2542V19.2542ZM25.3231 12.9483L26.3401 14.4852C25.9423 14.9011 25.5735 15.317 25.2451 15.756L25.0066 16.0899L23.9218 14.4626C24.3286 13.9428 24.8032 13.423 25.3231 12.9483V12.9483ZM9.14026 9.60327L10.745 11.0046C10.3381 11.4284 9.94404 11.8776 9.57217 12.3331L9.20807 12.7901L7.46774 11.2984C7.98758 10.7334 8.55262 10.1683 9.14026 9.60327ZM31.5385 9.51286L32.0357 11.0046C31.5114 11.1673 30.987 11.3734 30.4627 11.6114L30.0694 11.7956L29.5496 10.2361C30.1146 9.9875 30.7701 9.73888 31.5385 9.51286V9.51286ZM36.8273 8.97042C37.4059 9.00659 37.999 9.07168 38.6065 9.17727L39.0649 9.26425L38.9745 10.6655C38.3778 10.539 37.7811 10.4558 37.1844 10.416L36.7369 10.3943L36.8273 8.97042ZM18.2713 2.73236L19.2884 4.29188C18.8477 4.51224 18.4197 4.75804 17.9853 5.01972L17.5481 5.28635L16.5084 3.70423C17.1186 3.34261 17.7063 3.02618 18.2713 2.73236V2.73236ZM36.8725 1.8735C38.2173 2.25773 38.796 2.521 39.0275 2.64426L39.0649 2.66456L38.9745 4.17887C38.4923 3.98299 38.0101 3.79715 37.5213 3.62136L36.7821 3.36521L36.8725 1.8735ZM28.2387 0.540001L28.6907 1.9187H28.4647C27.9731 1.9187 27.4815 1.93142 26.9899 1.96638L26.4984 2.00911L26.0689 0.675611C26.8148 0.585204 27.538 0.540001 28.2387 0.540001V0.540001Z" fill="#CC0000"/>
</svg>
