<svg fill="none" height="40" viewBox="0 0 40 40" width="40" xmlns="http://www.w3.org/2000/svg"><path clip-rule="evenodd" d="m13.8985 9.68827 5.6405 3.85023c.1273.0848.276.1312.4286.1338.1529-.0011.302-.0477.4286-.1338l5.6449-3.86318c.2193-.15704.3402-.41883.3183-.68894-.022-.27011-.1837-.50857-.4255-.62755l-5.6405-2.79268c-.214-.10382-.4633-.10382-.6772 0l-5.6234 2.79268c-.2462.11962-.41.36269-.4295.63722-.0194.27454.1084.53859.3352.69222zm7.9852 5.05843c.0004.2554.1254.4942.3343.6389l4.5219 3.0905c.2894.1996.6767.1746.9386-.0605l3.7933-3.3926c.169-.151.2629-.3698.2563-.5973-.0067-.2275-.1131-.4403-.2906-.5811l-3.6218-2.8963c-.2633-.2091-.6305-.2231-.9087-.0345l-4.689 3.2071c-.2052.142-.3297.3751-.3343.6258zm-11.2468 4.2045c.1827.1642.2767.4063.2528.6518-.0237.2468-.1663.4663-.3814.587l-2.70028 1.6186c-.27372.1636-.61933.14-.86863-.0593-.24929-.1993-.35049-.5329-.25434-.8385l.99867-3.1423c.07834-.249.27692-.4408.52719-.5093.25009-.0728.51976-.009.7115.1683zm14.6455.3281-4.8819-3.3409c-.2594-.1746-.5978-.1746-.8572 0l-4.8819 3.3409c-.1942.1343-.3172.3503-.3343.587-.0127.2383.0818.4697.2571.6302l4.8777 4.3638c.1406.1255.3221.1946.51.1942.1878 0 .3692-.0691.5101-.1942l4.8776-4.3638c.1759-.1599.2691-.3922.2529-.6302-.0137-.2367-.1356-.4535-.3301-.587zm-13.0213-.8639-3.7889-3.3927c-.17048-.1548-.26456-.3775-.25717-.6086.00412-.2277.10953-.4416.28717-.5827l3.6218-2.9135c.2651-.2086.633-.2225.9129-.0345l4.6848 3.207c.2174.1426.3485.3862.3485.6475 0 .2612-.1311.5048-.3485.6474l-4.5176 3.0905c-.2913.1987-.6791.1739-.943-.0604zm19.4548 4.8733-3.8575-2.3093c-.2865-.1726-.6511-.1376-.9001.0864l-4.7147 4.2084c-.1989.1776-.2923.4463-.2469.71.0454.2638.2231.4851.4697.5849l6.5407 2.6503c.0897.0372.1858.0563.2829.0561.3035.0009.5791-.1784.7029-.4576l2.0273-4.5408c.165-.3593.0336-.7861-.3043-.9884zm.5358-5.5204.9986 3.1423h-.0085c.0738.235.0318.4914-.113.6902-.1448.1987-.3752.3159-.62.3155-.1373.0004-.2722-.0369-.39-.1079l-2.7046-1.6187c-.2107-.1232-.3483-.3424-.3686-.587-.0252-.2456.069-.4884.2529-.6518l1.7145-1.528c.1937-.1735.4613-.2369.7115-.1683.2501.0715.448.2643.5272.5137zm-14.3072 8.2138c.0461-.2627-.0464-.5306-.2443-.7079l-4.7147-4.2084c-.249-.224-.6137-.259-.9001-.0864l-3.85754 2.3093c-.334.2032-.46614.6246-.3086.9841l2.03163 4.5408c.16831.3787.60351.5559.98581.4015l6.5363-2.6503c.2468-.099.4251-.3194.4715-.5827zm2.3148 1.2953 5.2462 2.1236c.2565.1098.4337.351.4629.6302.0332.2826-.0923.5604-.3258.7208l-5.2505 3.6473c-.1258.0884-.2752.1366-.4286.1382-.1533-.0024-.3024-.0505-.4286-.1382l-5.2462-3.6473c-.2343-.16-.3613-.4375-.33-.7208.035-.2821.2186-.5231.48-.6302l5.2462-2.1236c.1845-.0736.3899-.0736.5744 0z" fill="#bf4722" fill-rule="evenodd"/></svg>