<svg width="40" height="40" viewBox="0 0 40 40" fill="none" xmlns="http://www.w3.org/2000/svg"><path d="M20.1005 15.8168C20.3855 15.2468 20.7519 14.7379 21.1997 14.29C22.1768 13.3129 23.7646 13.1908 25.1081 13.4961C25.5152 13.6183 25.8817 13.8218 26.2074 14.1068L26.4516 14.29L26.818 14.5954H26.8791L26.9402 14.229L27.0012 13.4961C27.0012 13.3333 26.9402 13.2315 26.818 13.1908C26.4923 13.0687 26.1259 12.9872 25.7188 12.9465L24.0089 12.8244C23.3371 12.7633 22.0547 12.6412 22.1768 11.6641C22.2379 10.8702 22.9707 10.1374 23.5814 9.64882C24.7213 8.63101 25.9631 7.81676 27.3066 7.20607C28.1005 6.83966 28.8944 6.53431 29.6883 6.41218L31.3982 6.29004C31.9478 6.35111 32.0089 6.83966 31.7646 7.20607C31.6018 7.45034 31.3778 7.67426 31.0928 7.87783L29.444 9.34347V9.40454C30.0954 9.36383 30.7061 9.40454 31.2761 9.52668C32.0699 9.70989 32.7417 10.1374 32.7417 10.9923C32.8028 11.603 32.3753 12.3358 31.9478 12.8244C31.4593 13.3129 30.8486 13.8015 30.2379 14.229V14.29C30.7875 14.29 31.215 14.4122 31.5814 14.7786C32.3142 15.3486 32.7621 16.1017 32.9249 17.0381H32.986C33.4338 17.0381 33.902 17.0992 34.3906 17.2213C34.818 17.4045 35.4287 17.6488 35.7951 17.9542C36.6501 18.6259 37.2608 19.7252 37.5051 20.7633C37.6679 21.5369 37.6679 22.3104 37.5051 23.0839C37.4236 23.4096 37.2404 23.6539 36.9554 23.8168C36.9392 23.8168 36.9237 23.8232 36.9123 23.8346C36.9008 23.8461 36.8944 23.8616 36.8944 23.8778C36.7112 24.1832 36.589 24.5496 36.3448 24.8549L36.1005 25.2824C35.6119 25.832 34.757 26.3206 34.0852 26.5038L33.902 26.6259L33.6577 26.9313L33.3524 27.8473C33.3931 27.9694 33.4745 28.0712 33.5967 28.1526C34.1259 28.3969 34.5534 28.8244 34.8791 29.4351C35.0012 29.6794 35.1234 29.9236 35.0623 30.1679C34.9809 30.4529 34.7773 30.5954 34.4516 30.5954C34.4354 30.5954 34.4199 30.6018 34.4084 30.6133C34.397 30.6247 34.3906 30.6403 34.3906 30.6565C34.5738 31.0839 34.757 31.6946 34.4516 32.061C34.3702 32.1425 34.2684 32.1628 34.1463 32.1221L34.0852 32.1832V32.4274C34.1463 32.6717 34.2684 33.0992 34.0241 33.3435C33.7799 33.5877 33.4745 33.5267 33.1692 33.4045L31.3371 32.7939C30.93 32.631 30.3397 32.4885 29.5661 32.3664L28.3448 32.3053L26.9402 32.3664L25.9631 32.4274H23.4593L22.299 32.3053C21.729 32.2239 21.159 32.2442 20.589 32.3664L19.3066 32.5496C19.103 32.5496 18.9198 32.5903 18.757 32.6717L17.9631 32.8549L16.2532 33.2213L14.1768 33.6488C12.8944 33.8931 13.0165 32.6717 13.2608 31.9389C13.4236 31.4911 13.6679 31.0636 13.9936 30.6565V30.5954C13.5661 30.7786 13.1997 30.9007 12.7722 30.9618C12.2837 31.0229 11.8562 30.7786 11.9173 30.1679C11.958 29.8015 12.1005 29.4554 12.3448 29.1297L12.2837 29.0687C11.9173 29.1908 11.2455 29.1908 11.1234 28.7633C11.0012 28.3969 11.1845 27.9694 11.4287 27.6641C11.7544 27.257 12.1819 26.9313 12.7112 26.687V26.6259C11.3677 26.5648 10.1463 26.1984 8.86384 25.7099C7.52033 25.1399 6.42109 24.2442 5.56613 23.0229L4.83331 21.9847C4.54832 21.4961 4.30405 20.9872 4.10048 20.458C4.10048 20.3766 4.05977 20.3155 3.97835 20.2748L3.91728 20.2137C3.42873 20.2748 3.00125 20.1526 2.6959 19.7252C2.45163 19.3587 2.34985 18.9109 2.39056 18.3816C2.39056 17.7099 2.63483 17.0992 2.87911 16.4885C3.36766 15.0839 4.22262 13.6183 5.38293 12.5801L6.29896 11.7862C7.52033 10.8091 9.16919 10.0152 10.757 9.95416C11.5305 9.91345 12.2837 9.9338 13.0165 10.0152C14.5636 10.2188 15.9071 10.7888 17.047 11.7252C17.7799 12.3358 18.4516 13.089 19.0623 13.9847C19.4898 14.5343 19.8562 15.145 20.1005 15.8168C20.1005 15.8575 20.1005 15.8575 20.1005 15.8168ZM23.4593 10.5038C23.1336 10.7888 22.9096 11.1145 22.7875 11.4809C22.7061 11.6437 22.6857 11.7659 22.7264 11.8473C22.7875 12.1526 23.6425 12.2748 23.9478 12.2748C24.6806 12.3562 25.556 12.3969 26.5738 12.3969L28.589 12.6412C28.6705 12.6412 28.7112 12.6819 28.7112 12.7633C28.7112 12.9465 28.528 13.0076 28.4058 13.0076H27.8562C27.7341 13.0076 27.5509 13.1297 27.5509 13.3129C27.5509 13.8829 27.4898 14.514 27.3677 15.2061C27.3677 15.2875 27.4084 15.2875 27.4898 15.2061L28.2226 14.7786C28.3448 14.6565 28.5687 14.5343 28.8944 14.4122C29.6883 14.0458 30.4211 13.4351 31.0928 12.8244C31.5814 12.3969 32.0089 11.9694 32.1921 11.3587C32.3753 10.7481 31.9478 10.2595 31.3371 10.1374C31.0928 10.0559 30.8079 10.0152 30.4822 10.0152L28.4058 10.0763C28.243 10.0763 28.1819 9.99487 28.2226 9.83202C28.2226 9.7506 28.2837 9.64882 28.4058 9.52668L29.5051 8.61065L30.6043 7.63355L31.2761 6.90073V6.83966C30.4822 6.83966 29.6883 6.90073 28.9554 7.145C28.589 7.22643 28.2633 7.34856 27.9783 7.51141C26.5534 8.1221 25.2506 8.93635 24.0699 9.95416L23.4593 10.5038ZM4.22262 19.603L5.07758 19.3587L7.45926 18.3206L7.82567 18.2595C8.37529 18.1984 8.37529 18.9923 8.43636 19.3587C8.43636 19.9287 8.5585 20.4376 8.80277 20.8855C9.04705 21.3129 9.5356 21.4351 10.0241 21.4351C10.6755 21.3944 11.3473 21.2926 12.0394 21.1297L14.2379 20.7023L14.9707 20.519L15.3371 20.458C15.7035 20.519 15.8257 20.8855 15.8867 21.1908L15.9478 21.9847C15.9478 22.1475 15.8664 22.2493 15.7035 22.29C15.5814 22.29 15.3982 22.1679 15.3982 22.0458V21.7404L15.3371 21.4351L15.2761 21.0687L15.215 21.0076L15.0318 21.0687L11.8562 21.7404L10.3295 21.9236C9.5356 21.9847 8.80277 21.9236 8.37529 21.1908C8.17173 20.9058 8.02924 20.5801 7.94781 20.2137L7.82567 19.6641V18.8091H7.76461L6.11575 19.4809L5.01651 19.9694V20.3969L5.38293 21.6183C6.07504 23.0432 7.09285 24.1221 8.43636 24.8549L8.7417 25.0381C9.63738 25.4453 10.5127 25.7302 11.3677 25.8931C12.1412 26.0559 12.874 26.1374 13.5661 26.1374C14.3397 26.0967 15.0928 25.9134 15.8257 25.5877C16.5178 25.3028 17.1488 24.916 17.7188 24.4274L17.9631 24.2442C18.3906 23.8168 18.818 23.2671 19.1234 22.6565L19.3677 22.0458C19.6934 21.1501 19.8969 20.2137 19.9783 19.2366L19.9173 17.832C19.8766 17.0585 19.7137 16.3257 19.4287 15.6336C19.1845 15.145 18.8791 14.6361 18.5127 14.1068C17.9834 13.3333 17.332 12.6412 16.5585 12.0305L16.1921 11.7252C15.0928 10.9923 13.8715 10.6259 12.589 10.5038L11.3677 10.4427C8.7417 10.4427 6.48216 11.9694 4.83331 13.9847C4.03941 15.0229 3.4898 16.3053 3.06232 17.5877C2.87911 18.1984 2.81804 18.8091 3.12338 19.3587C3.24552 19.5623 3.40837 19.6641 3.61193 19.6641L4.22262 19.603ZM21.7493 21.5572C21.2608 21.4961 20.7112 21.3129 20.4058 20.8855C20.4058 21.6794 21.0165 22.4732 21.6883 22.7786L22.7264 23.0839C23.2761 23.2061 23.7035 23.0839 24.1921 22.7786C24.7417 22.4122 25.2913 21.9847 25.5967 21.4351C25.8002 21.1094 25.9427 20.7633 26.0241 20.3969C26.2277 19.8269 26.4109 19.1755 26.5738 18.4427C26.6959 17.6488 26.818 16.916 26.6959 16.1221C26.5738 15.6946 26.4516 15.2671 26.2074 14.9007C26.1666 14.86 26.1463 14.8804 26.1463 14.9618C26.3668 16.6534 26.0233 18.3706 25.1692 19.8473C25.0063 20.1323 24.8231 20.3562 24.6196 20.519C24.2394 20.8818 23.7878 21.1614 23.2937 21.3402C22.7996 21.5189 22.2736 21.5928 21.7493 21.5572ZM21.8715 19.5419C21.7493 19.6641 21.6679 19.8269 21.6272 20.0305V20.458L21.7493 20.8244L21.8715 21.0076L21.9936 21.1297L22.0547 21.1908C22.6654 21.1908 23.215 21.028 23.7035 20.7023C24.1921 20.3969 24.6196 20.0305 24.9249 19.4809C24.9249 19.4647 24.9185 19.4491 24.907 19.4377C24.8956 19.4262 24.88 19.4198 24.8638 19.4198L24.7417 19.2366L24.5585 19.1755L24.4364 19.0534H24.3142V18.9923L23.7646 18.9313L23.6425 18.9923C23.6239 19.003 23.6028 19.0087 23.5814 19.0087C23.56 19.0087 23.5389 19.003 23.5203 18.9923L23.3371 19.0534H23.215C23.7442 18.4427 23.9682 17.7099 23.8867 16.8549C23.7646 15.7557 22.6654 14.9007 21.6272 15.6946C21.0776 16.061 20.8333 16.6717 20.7112 17.2824C20.528 18.1984 20.8944 19.3587 21.8715 19.5419ZM27.673 20.1526C27.4694 20.3969 27.3269 20.6615 27.2455 20.9465L27.1234 21.4351V21.4961C27.5305 21.9033 28.0394 22.0661 28.6501 21.9847C29.3829 21.944 29.9733 21.6794 30.4211 21.1908L30.5432 21.0076L30.6043 20.7023L30.6654 20.458V20.0916L30.5432 19.7862L30.2379 19.5419L29.8715 19.3587C30.075 18.9516 30.1565 18.5038 30.1157 18.0152C30.0547 17.1603 29.444 16.3664 28.528 16.6106C27.9173 16.7328 27.4898 17.2824 27.3066 17.832C27.1437 18.2391 27.0827 18.6463 27.1234 19.0534C27.1641 19.5012 27.3473 19.8676 27.673 20.1526ZM31.7035 21.6794C32.0699 20.8855 32.2532 19.8473 32.3753 18.9923C32.4567 18.4631 32.4567 17.8931 32.3753 17.2824C32.3753 17.0381 32.3346 16.8142 32.2532 16.6106H32.1921V18.1984C32.0089 19.1755 31.7646 20.0305 31.215 20.8855C30.9092 21.3662 30.4841 21.7595 29.9811 22.0271C29.4781 22.2947 28.9143 22.4273 28.3448 22.4122C27.7951 22.4122 27.3066 22.1679 26.8791 21.7404V21.8015L27.1234 22.5343C27.3677 23.0839 28.1005 23.5114 28.7112 23.6946C28.9962 23.8168 29.3015 23.8168 29.6272 23.6946C30.6654 23.3893 31.215 22.5954 31.7035 21.6794ZM33.7188 24.7328V26.0152C33.9631 25.9745 34.2277 25.8727 34.5127 25.7099C34.9402 25.5267 35.3677 25.2824 35.6119 24.916C35.8562 24.6717 35.9783 24.2442 36.1616 23.9389V23.8778H36.1005L35.5509 23.5725H35.4287L35.3066 23.8168C35.1845 24.061 34.818 24 34.818 23.6946C34.818 23.145 35.3066 22.8397 35.8562 23.0839C36.1616 23.2671 36.528 23.5725 36.8333 23.2061C36.9554 23.0839 37.0165 22.8397 37.0165 22.6565C37.0979 22.1679 37.0979 21.659 37.0165 21.1297L36.8944 20.7633C36.6908 19.9898 36.3448 19.3384 35.8562 18.8091C35.5305 18.402 35.103 18.117 34.5738 17.9542C34.3295 17.7913 34.1056 17.7099 33.902 17.7099C33.4745 17.6488 33.2303 17.9542 33.047 18.2595L32.986 18.5648L32.8638 19.2366C32.7824 19.9287 32.6399 20.5598 32.4364 21.1297L32.4974 21.1908L32.6806 21.4351C33.2099 22.2086 33.5356 23.0839 33.6577 24.061L33.7188 24.7328ZM22.4822 23.5725C21.444 23.3893 20.6501 22.9618 20.2226 22.0458H20.1616L19.5509 23.2061C19.1234 23.9389 18.5738 24.4885 17.902 25.0381C17.2913 25.486 16.6196 25.8727 15.8867 26.1984H15.8257C15.785 26.5241 15.8257 26.7888 15.9478 26.9923C16.1921 27.2977 16.4974 27.603 16.8028 27.7862L17.1081 28.0916C17.5356 28.519 18.1463 29.0076 18.6959 29.1908C19.0012 29.3129 19.2455 29.4961 19.4898 29.7404L20.1616 30.4732L20.7722 31.2061C20.8537 31.2875 20.9554 31.3282 21.0776 31.3282C21.8511 31.5725 22.7061 31.776 23.6425 31.9389C24.5789 32.1017 25.5356 32.1425 26.5127 32.061L27.9783 31.7557C28.5076 31.5928 29.0572 31.3486 29.6272 31.0229C29.9936 30.8193 30.3397 30.575 30.6654 30.29C31.1539 29.8422 31.5407 29.4351 31.8257 29.0687C32.1514 28.7023 32.4364 28.173 32.6806 27.4809C32.9249 26.8702 33.0674 26.2799 33.1081 25.7099V25.4045C33.0674 24.1425 32.7824 22.9414 32.2532 21.8015H32.1921C31.7035 22.9618 30.9707 23.8778 29.6883 24.2442C28.8944 24.4885 28.1005 24.1832 27.4287 23.6946C26.5738 23.145 26.3906 22.3511 26.2684 21.374C26.2684 21.3333 26.2684 21.3333 26.2684 21.374C25.8409 22.229 25.1081 22.9007 24.3142 23.3282C23.7442 23.6539 23.1336 23.7353 22.4822 23.5725ZM11.7341 28.5801H12.1616L12.8944 28.3358L13.1387 28.2137C13.7901 27.6844 14.5636 27.4402 15.4593 27.4809L15.5203 27.4198C15.5203 27.1755 15.0318 26.9923 14.8486 26.9313C13.8104 26.687 12.589 27.1755 11.9173 27.9694C11.7544 28.1323 11.6526 28.3155 11.6119 28.519V28.5801H11.7341ZM13.1387 29.0076L12.7112 29.5572C12.589 29.7608 12.5076 30.0254 12.4669 30.3511C12.6705 30.3918 12.9147 30.3715 13.1997 30.29C13.6883 30.1068 14.1768 29.9236 14.7264 29.8626H14.7875C15.3982 29.3129 16.131 29.0076 16.986 28.9465V28.8855C16.8638 28.4783 16.5585 28.2137 16.0699 28.0916C15.5814 27.9694 15.0725 27.9694 14.5432 28.0916C14.1768 28.173 13.8511 28.3155 13.5661 28.519L13.3829 28.7023L13.1387 29.0076ZM33.047 28.519L32.8028 28.9465H32.8638L33.1081 29.1297L33.5967 29.5572L33.902 29.8015L34.5127 30.0458V29.9847C34.5127 29.8015 34.3906 29.6794 34.2684 29.4961C33.9834 29.0483 33.5763 28.7226 33.047 28.519C33.047 28.4783 33.047 28.4783 33.047 28.519C33.0063 28.519 33.0063 28.519 33.047 28.519ZM32.131 30.0458L31.7646 30.29V30.3511L32.3753 30.5954L32.4974 30.6565C32.7417 30.7379 32.9453 30.86 33.1081 31.0229L33.4745 31.2061L34.0241 31.6336H34.0852L34.0241 31.2671C33.8613 30.8193 33.6374 30.4122 33.3524 30.0458C33.1488 29.8015 32.9046 29.6183 32.6196 29.4961H32.5585L32.131 30.0458ZM15.2761 30.1679C14.6247 30.6565 14.1565 31.2264 13.8715 31.8778C13.7086 32.2442 13.6476 32.631 13.6883 33.0381C13.7002 33.0593 13.7182 33.0764 13.74 33.0873C13.7618 33.0982 13.7863 33.1023 13.8104 33.0992H14.1157L15.3371 32.8549L16.5585 32.5496L17.6577 32.3664L18.6959 32.061C19.0216 31.9796 19.2455 31.8168 19.3677 31.5725C19.5305 31.2875 19.5305 30.9822 19.3677 30.6565C19.2048 30.3715 18.9809 30.1272 18.6959 29.9236C18.5331 29.7608 18.3702 29.659 18.2074 29.6183L16.986 29.4961C16.3753 29.5369 15.8053 29.7608 15.2761 30.1679ZM30.7875 31.2061C30.5432 31.3282 30.3397 31.4911 30.1768 31.6946C30.1638 31.7061 30.1534 31.7202 30.1463 31.736C30.1392 31.7518 30.1355 31.7689 30.1355 31.7862C30.1355 31.8036 30.1392 31.8207 30.1463 31.8365C30.1534 31.8523 30.1638 31.8664 30.1768 31.8778L30.4211 32L31.7646 32.3664L33.4745 32.916H33.6577L33.7188 32.7328C33.6374 31.9593 33.2506 31.4503 32.5585 31.2061C32.3956 31.1246 32.2735 31.1043 32.1921 31.145C31.7646 31.0839 31.1539 31.0229 30.7875 31.2061Z" fill="#564341"/><path d="M31.3368 10.1376L31.2758 10.1986V10.2597L30.9704 10.9925L30.604 11.2979L29.8101 11.6643L28.2834 11.9696H27.2452L26.3292 11.8475L24.8025 11.4811L24.375 11.2979L24.0086 11.1147L23.7033 10.8093L23.6422 10.7482L23.5811 10.6872L23.5201 10.6261L23.459 10.504L24.0697 9.95435C25.2503 8.93654 26.5531 8.12229 27.9781 7.5116C28.2631 7.34875 28.5888 7.22661 28.9552 7.14519C29.688 6.90091 30.4819 6.83984 31.2758 6.83984V6.90091L30.604 7.63374L29.5048 8.61084L28.4055 9.52687C28.2834 9.649 28.2223 9.75079 28.2223 9.83221C28.1816 9.99506 28.2427 10.0765 28.4055 10.0765L30.4819 10.0154C30.8076 10.0154 31.0926 10.0561 31.3368 10.1376Z" fill="#FFE868"/><path d="M31.3371 10.1372C31.9478 10.2593 32.3753 10.7479 32.1921 11.3586C32.0089 11.9693 31.5814 12.3967 31.0928 12.8242C30.4211 13.4349 29.6882 14.0456 28.8943 14.412C28.5686 14.5342 28.3447 14.6563 28.2226 14.7784L27.4898 15.2059C27.4083 15.2873 27.3676 15.2873 27.3676 15.2059C27.4898 14.5138 27.5508 13.8828 27.5508 13.3128C27.5508 13.1296 27.734 13.0074 27.8562 13.0074H28.4058C28.5279 13.0074 28.7111 12.9464 28.7111 12.7632C28.7111 12.6817 28.6704 12.641 28.589 12.641L26.5737 12.3967C25.5559 12.3967 24.6806 12.356 23.9478 12.2746C23.6424 12.2746 22.7875 12.1525 22.7264 11.8471C22.6857 11.7657 22.7061 11.6436 22.7875 11.4807C22.9096 11.1143 23.1335 10.7886 23.4592 10.5036L23.5203 10.6258L23.5814 10.6868L23.6424 10.7479L23.7035 10.809L24.0089 11.1143L24.3753 11.2975L24.8027 11.4807L26.3295 11.8471L27.2455 11.9693H28.2837L29.8104 11.6639L30.6043 11.2975L30.9707 10.9922L31.276 10.2593V10.1983L31.3371 10.1372Z" fill="#FFBB49"/><path d="M16.1916 11.7253L15.7031 11.8475H15.642L15.5199 11.9085L15.4588 11.9696C15.4495 11.9749 15.439 11.9778 15.4283 11.9778C15.4175 11.9778 15.407 11.9749 15.3977 11.9696H15.3367L15.2756 12.0307L15.1535 12.0917H15.0924L15.0313 12.1528H14.9702L14.9092 12.2139H14.8481C14.7667 12.2139 14.7056 12.2546 14.6649 12.336H14.4817C14.4817 12.344 14.4801 12.352 14.477 12.3594C14.474 12.3668 14.4695 12.3735 14.4638 12.3792C14.4581 12.3849 14.4514 12.3894 14.444 12.3924C14.4366 12.3955 14.4286 12.3971 14.4206 12.3971L14.2985 12.4581H13.8099L13.7489 12.5192H12.7107L12.6496 12.5803H12.1611L12.1 12.6413H11.7947L11.7336 12.7024C11.184 11.9085 10.268 11.7253 9.35193 11.8475C8.31376 12.0307 7.15345 12.5192 6.4817 13.3131C5.80994 14.107 5.68781 15.0841 6.23742 15.9391C6.11529 15.9391 6.05422 15.9798 6.05422 16.0612L5.99315 16.1223L5.80994 16.3055V16.4276L5.56567 16.6108V16.7329L5.44353 16.794V16.8551C5.44889 16.8644 5.45171 16.8749 5.45171 16.8856C5.45171 16.8963 5.44889 16.9069 5.44353 16.9162L5.32139 16.9772V17.0994L5.19926 17.2215L5.13819 17.2826V17.4047L5.07712 17.4658C5.08248 17.4751 5.0853 17.4856 5.0853 17.4963C5.0853 17.507 5.08248 17.5176 5.07712 17.5268L4.95498 17.649L4.89391 17.71V17.7711C4.89927 17.7804 4.90209 17.7909 4.90209 17.8017C4.90209 17.8124 4.89927 17.8229 4.89391 17.8322L4.83284 17.8933V17.9543L4.77178 18.0154V18.0765C4.69035 18.1172 4.66999 18.1579 4.71071 18.1986C4.71071 18.2148 4.70427 18.2303 4.69282 18.2418C4.68137 18.2532 4.66583 18.2597 4.64964 18.2597V18.3818C4.56821 18.4225 4.54786 18.4632 4.58857 18.5039C4.58857 18.5201 4.58214 18.5357 4.57068 18.5471C4.55923 18.5586 4.5437 18.565 4.5275 18.565V18.6871L4.46643 18.8093V18.8704C4.38501 18.9111 4.36465 18.9518 4.40536 18.9925C4.41072 19.0018 4.41354 19.0123 4.41354 19.023C4.41354 19.0337 4.41072 19.0443 4.40536 19.0536L4.34429 19.1757L4.28323 19.2368V19.2978L4.22216 19.3589V19.6032L3.61147 19.6642C3.40791 19.6642 3.24506 19.5625 3.12292 19.3589C2.81758 18.8093 2.87865 18.1986 3.06185 17.5879C3.48933 16.3055 4.03895 15.023 4.83284 13.9849C6.4817 11.9696 8.74124 10.4429 11.3672 10.4429L12.5886 10.5039C13.871 10.6261 15.0924 10.9925 16.1916 11.7253Z" fill="#FFC98A"/><path d="M16.1924 11.7251L16.5588 12.0304V12.0915H16.6199V12.1526H16.4977L16.3756 12.2136H16.3145L16.1313 12.2747C16.1113 12.2695 16.0903 12.2695 16.0703 12.2747H15.9481L15.887 12.3358L15.6428 12.3969L15.5817 12.4579H15.4596L15.3985 12.519H15.3374L15.2153 12.7022H15.1542C15.1449 12.6968 15.1344 12.694 15.1237 12.694C15.113 12.694 15.1024 12.6968 15.0932 12.7022L14.971 12.8243L14.9099 12.8854L14.7878 12.9465V13.0075L14.3603 13.1907H14.2382L14.1161 13.2518H13.7496L13.6275 13.3129H12.5893V13.374H12.284L12.1008 13.435L11.9786 13.1297L11.7344 12.7022L11.7954 12.6411H12.1008L12.1619 12.5801H12.6504L12.7115 12.519H13.7496L13.8107 12.4579H14.2993L14.4214 12.3969C14.4294 12.3969 14.4374 12.3953 14.4448 12.3922C14.4522 12.3891 14.4589 12.3846 14.4646 12.379C14.4703 12.3733 14.4747 12.3666 14.4778 12.3592C14.4809 12.3517 14.4825 12.3438 14.4825 12.3358H14.6657C14.7064 12.2544 14.7675 12.2136 14.8489 12.2136H14.9099L14.971 12.1526H15.0321L15.0932 12.0915H15.1542L15.2764 12.0304L15.3374 11.9694H15.3985C15.4078 11.9747 15.4183 11.9776 15.429 11.9776C15.4398 11.9776 15.4503 11.9747 15.4596 11.9694L15.5206 11.9083L15.6428 11.8472H15.7038L16.1924 11.7251Z" fill="#FFC293"/><path d="M11.7339 12.7025L11.9782 13.1299L11.7339 13.0689L11.4896 12.9467H11.0011L10.4515 13.0689L10.3904 13.1299H10.3293L10.2072 13.191L9.84079 13.3131C8.98583 13.6388 8.19193 14.107 7.45911 14.7177L6.72628 15.4505L6.60415 15.6338H6.66521V15.9391C6.65985 15.9484 6.65703 15.9589 6.65703 15.9696C6.65703 15.9804 6.65985 15.9909 6.66521 16.0002L7.15376 16.4276L7.2759 16.5498C7.35733 16.5905 7.37768 16.6516 7.33697 16.733C7.13341 16.6923 6.9502 16.6109 6.78735 16.4887C6.54308 16.3259 6.35987 16.1427 6.23773 15.9391C5.68812 15.0841 5.81025 14.107 6.48201 13.3131C7.15376 12.5192 8.31407 12.0307 9.35224 11.8475C10.2683 11.7254 11.1843 11.9086 11.7339 12.7025Z" fill="#FFFBD8"/><path d="M16.5586 12.0303C17.3321 12.641 17.9835 13.3331 18.5128 14.1066C18.7163 14.8394 18.8181 15.4501 18.8181 15.9387V17.2822C18.8181 18.015 18.696 18.6868 18.3296 19.3585L17.4135 20.7631C16.3143 22.1066 14.9708 23.2058 13.383 24.0608C12.6909 24.4272 12.0191 24.6715 11.3677 24.7936L9.23034 24.9768L8.74179 25.0379L8.43645 24.8547C7.09294 24.1219 6.07513 23.043 5.38301 21.6181L5.0166 20.3967C5.58658 20.2745 6.15655 20.2338 6.72653 20.2745C7.03187 20.2745 7.39828 20.2745 7.64256 20.5188C7.88683 20.7631 8.11075 21.1092 8.31431 21.557C8.47716 21.8827 8.76215 22.0659 9.16927 22.1066C9.65782 22.188 10.1667 22.188 10.696 22.1066L14.8487 21.3738C15.0115 21.3331 15.1133 21.3738 15.154 21.4959L15.3983 21.7402V22.0455C15.3983 22.1677 15.5815 22.2898 15.7036 22.2898C15.8665 22.2491 15.9479 22.1473 15.9479 21.9845L15.8868 21.1906C15.8258 20.8852 15.7036 20.5188 15.3372 20.4578L14.9708 20.5188L14.238 20.702L12.0395 21.1295C11.3474 21.2924 10.6756 21.3941 10.0242 21.4349C9.53569 21.4349 9.04714 21.3127 8.80286 20.8852C8.55859 20.4374 8.43645 19.9285 8.43645 19.3585C8.37538 18.9921 8.37538 18.1982 7.82576 18.2593L7.45935 18.3203L5.07767 19.3585V19.2974H5.13874L5.19981 19.2364L5.13874 19.1753L5.19981 19.1142V19.0532C5.19445 19.0439 5.19163 19.0334 5.19163 19.0226C5.19163 19.0119 5.19445 19.0014 5.19981 18.9921L5.26088 18.931V18.87L5.32195 18.8089V18.7478L5.38301 18.6868C5.37765 18.6775 5.37483 18.6669 5.37483 18.6562C5.37483 18.6455 5.37765 18.635 5.38301 18.6257L5.44408 18.5646V18.5036L5.50515 18.4425V18.3814C5.58658 18.3407 5.60693 18.3 5.56622 18.2593C5.56086 18.25 5.55804 18.2395 5.55804 18.2287C5.55804 18.218 5.56086 18.2075 5.56622 18.1982L5.62729 18.1371C5.62729 18.1291 5.62887 18.1212 5.63194 18.1138C5.63501 18.1064 5.6395 18.0996 5.64518 18.094C5.65085 18.0883 5.65758 18.0838 5.66499 18.0807C5.6724 18.0777 5.68034 18.0761 5.68836 18.0761V17.9539L5.74943 17.8929C5.74407 17.8836 5.74124 17.8731 5.74124 17.8623C5.74124 17.8516 5.74407 17.8411 5.74943 17.8318L5.87156 17.7097L5.93263 17.6486V17.5265L5.9937 17.4654V17.4043L6.11584 17.3433V17.2211L6.23798 17.16V17.0379L6.42118 16.9158V16.7936L6.60439 16.6715V16.6104L6.72653 16.4883H6.78759C6.95044 16.6104 7.13365 16.6919 7.33721 16.7326L7.88683 16.8547C9.35248 17.16 10.8181 16.3662 11.612 15.2058C12.0191 14.6766 12.182 14.0863 12.1006 13.4349L12.2838 13.3738H12.5891V13.3127H13.6273L13.7494 13.2516H14.1158L14.238 13.1906H14.3601L14.7876 13.0074V12.9463L14.9097 12.8852L14.9708 12.8242L15.0929 12.702C15.1022 12.6967 15.1128 12.6938 15.1235 12.6938C15.1342 12.6938 15.1447 12.6967 15.154 12.702H15.2151L15.3372 12.5188H15.3983L15.4593 12.4578H15.5815L15.6426 12.3967L15.8868 12.3356L15.9479 12.2745H16.07C16.0901 12.2694 16.1111 12.2694 16.1311 12.2745L16.3143 12.2135H16.3754L16.4975 12.1524H16.6197V12.0913H16.5586V12.0303ZM11.4288 17.2211C11.5102 17.5061 11.7138 17.6893 12.0395 17.7707C12.7113 17.9539 13.383 17.7097 13.9326 17.2822C14.4823 16.8547 14.9097 16.0608 14.3601 15.3891C14.238 15.2669 14.0751 15.1855 13.8716 15.1448C13.1387 14.9005 12.3448 15.3891 11.8563 15.9387L11.551 16.3662C11.3677 16.6104 11.3067 16.9768 11.4288 17.2211Z" fill="#FFBC9C"/><path d="M11.9785 13.1295L12.1007 13.4348C12.1821 14.0862 12.0193 14.6766 11.6121 15.2058L11.7953 14.7173V14.5951L11.9175 14.2898C11.9582 14.2084 11.9378 14.127 11.8564 14.0455H11.3679L11.2457 14.1066C11.2364 14.1012 11.2259 14.0984 11.2152 14.0984C11.2045 14.0984 11.1939 14.1012 11.1846 14.1066L11.0625 14.1677H11.0014L10.8793 14.2287H10.8182V14.2898H10.7572L10.635 14.3509H10.574L10.4518 14.4119H10.3908L10.2686 14.473H10.2075L10.1465 14.5341H10.0243L9.96327 14.5951L9.59686 14.7173L9.16938 14.9616L9.10831 15.0226L8.98617 15.1448L8.80297 15.328C8.79368 15.3333 8.78315 15.3361 8.77243 15.3361C8.76171 15.3361 8.75118 15.3333 8.7419 15.328H8.68083L8.55869 15.5112H8.43655L8.13121 15.8776H8.00907L7.52052 16.3661V16.6104L7.58159 16.6715L7.88693 16.8547L7.33732 16.7325C7.37803 16.6511 7.35767 16.5901 7.27625 16.5493L7.15411 16.4272L6.66556 15.9997C6.6602 15.9904 6.65738 15.9799 6.65738 15.9692C6.65738 15.9585 6.6602 15.9479 6.66556 15.9387V15.6333H6.60449L6.72663 15.4501L7.45945 14.7173C8.19228 14.1066 8.98617 13.6384 9.84113 13.3127L10.2075 13.1906L10.3297 13.1295H10.3908L10.4518 13.0684L11.0014 12.9463H11.49L11.7343 13.0684L11.9785 13.1295Z" fill="#FFFDEB"/><path d="M11.6121 15.2062C10.8182 16.3665 9.35257 17.1604 7.88692 16.8551L7.58158 16.6719L7.52051 16.6108V16.3665L8.00906 15.878H8.13119L8.43654 15.5115H8.55868L8.68081 15.3283H8.74188C8.75117 15.3337 8.7617 15.3365 8.77242 15.3365C8.78314 15.3365 8.79367 15.3337 8.80295 15.3283L8.98616 15.1451L9.10829 15.023L9.16936 14.9619L9.59684 14.7177L9.96326 14.5955L10.0243 14.5344H10.1465L10.2075 14.4734H10.2686L10.3907 14.4123H10.4518L10.5739 14.3512H10.635L10.7571 14.2902H10.8182V14.2291H10.8793L11.0014 14.168H11.0625L11.1846 14.107C11.1939 14.1016 11.2044 14.0988 11.2152 14.0988C11.2259 14.0988 11.2364 14.1016 11.2457 14.107L11.3678 14.0459H11.8564C11.9378 14.1273 11.9582 14.2087 11.9175 14.2902L11.7953 14.5955V14.7177L11.6121 15.2062Z" fill="white"/><path d="M18.5129 14.1069C18.8793 14.6362 19.1847 15.1451 19.4289 15.6337C19.7139 16.3258 19.8768 17.0586 19.9175 17.8321V18.5039L19.8564 19.1146C19.7343 20.051 19.5104 20.9466 19.1847 21.8016L18.9404 22.3512H18.7572L18.574 22.5344H18.4518L17.8412 22.9008L17.4747 23.1451L17.1694 23.3283L16.6809 23.6337L16.0702 23.8779C15.5816 24.1222 15.0727 24.3258 14.5434 24.4886L12.4671 24.9161L12.0396 24.9772H11.9175L11.7954 25.0382H11.2457L10.6961 25.0993H9.65795C9.53581 25.14 9.39332 25.0993 9.23047 24.9772L11.3679 24.794C12.0193 24.6718 12.691 24.4275 13.3831 24.0611C14.9709 23.2062 16.3144 22.1069 17.4137 20.7634L18.3297 19.3588C18.6961 18.6871 18.8183 18.0153 18.8183 17.2825V15.939C18.8183 15.4504 18.7165 14.8398 18.5129 14.1069Z" fill="#F28773"/><path d="M20.4059 20.8855C20.7112 21.3129 21.2608 21.4961 21.7494 21.5572C22.8486 21.6183 23.7647 21.2519 24.6196 20.519C24.8232 20.3562 25.0064 20.1323 25.1692 19.8473C26.0234 18.3706 26.3668 16.6534 26.1463 14.9618C26.1463 14.8804 26.1667 14.86 26.2074 14.9007C26.4517 15.2671 26.5738 15.6946 26.696 16.1221C26.8181 16.916 26.696 17.6488 26.5738 18.4427C26.411 19.1755 26.2278 19.8269 26.0242 20.3969C25.9428 20.7633 25.8003 21.1094 25.5967 21.4351C25.2914 21.9847 24.7418 22.4122 24.1921 22.7786C23.7036 23.0839 23.2761 23.2061 22.7265 23.0839L21.6883 22.7786C21.0166 22.4732 20.4059 21.6794 20.4059 20.8855ZM11.4288 17.2213C11.3066 16.9771 11.3677 16.6107 11.5509 16.3664L11.8563 15.9389C12.3448 15.3893 13.1387 14.9007 13.8715 15.145C14.0751 15.1857 14.2379 15.2671 14.3601 15.3893C14.9097 16.061 14.4822 16.8549 13.9326 17.2824C13.383 17.7099 12.7112 17.9542 12.0395 17.771C11.7138 17.6895 11.5102 17.5063 11.4288 17.2213Z" fill="white"/><path d="M23.2154 19.0532C22.8489 19.4603 22.4011 19.6231 21.8718 19.5417C20.8947 19.3585 20.5283 18.1982 20.7115 17.2822C20.8337 16.6715 21.078 16.0608 21.6276 15.6944C22.6657 14.9005 23.765 15.7555 23.8871 16.8547C23.9685 17.7097 23.7446 18.4425 23.2154 19.0532Z" fill="white"/><path d="M6.23792 15.939C6.36006 16.1425 6.54327 16.3257 6.78754 16.4886H6.72647L6.60434 16.6107V16.6718L6.42113 16.7939V16.9161L6.23792 17.0382V17.1603L6.11579 17.2214V17.3435L5.99365 17.4046V17.4657L5.93258 17.5268V17.6489L5.87151 17.71L5.74937 17.8321C5.74401 17.8414 5.74119 17.8519 5.74119 17.8626C5.74119 17.8733 5.74401 17.8839 5.74937 17.8932L5.68831 17.9542V18.0764C5.68029 18.0764 5.67234 18.0779 5.66494 18.081C5.65753 18.0841 5.65079 18.0886 5.64512 18.0943C5.63945 18.0999 5.63495 18.1067 5.63188 18.1141C5.62882 18.1215 5.62724 18.1294 5.62724 18.1374L5.56617 18.1985C5.56081 18.2078 5.55799 18.2183 5.55799 18.229C5.55799 18.2398 5.56081 18.2503 5.56617 18.2596C5.60688 18.3003 5.58652 18.341 5.5051 18.3817V18.4428L5.44403 18.5039V18.5649L5.38296 18.626C5.3776 18.6353 5.37478 18.6458 5.37478 18.6565C5.37478 18.6672 5.3776 18.6778 5.38296 18.6871L5.32189 18.7481V18.8092L5.26082 18.8703V18.9313L5.19976 18.9924C5.1944 19.0017 5.19157 19.0122 5.19157 19.0229C5.19157 19.0337 5.1944 19.0442 5.19976 19.0535V19.1145L5.13869 19.1756L5.19976 19.2367L5.13869 19.2977H5.07762V19.3588L4.22266 19.6031V19.3588L4.28372 19.2977V19.2367L4.34479 19.1756L4.40586 19.0535C4.41122 19.0442 4.41404 19.0337 4.41404 19.0229C4.41404 19.0122 4.41122 19.0017 4.40586 18.9924C4.36515 18.9517 4.38551 18.911 4.46693 18.8703V18.8092L4.528 18.6871V18.5649C4.5442 18.5649 4.55973 18.5585 4.57118 18.547C4.58263 18.5356 4.58907 18.52 4.58907 18.5039C4.54836 18.4631 4.56871 18.4224 4.65014 18.3817V18.2596C4.66633 18.2596 4.68187 18.2531 4.69332 18.2417C4.70477 18.2302 4.71121 18.2147 4.71121 18.1985C4.67049 18.1578 4.69085 18.1171 4.77227 18.0764V18.0153L4.83334 17.9542V17.8932L4.89441 17.8321C4.89977 17.8228 4.90259 17.8123 4.90259 17.8016C4.90259 17.7908 4.89977 17.7803 4.89441 17.771V17.71L4.95548 17.6489L5.07762 17.5268C5.08298 17.5175 5.0858 17.5069 5.0858 17.4962C5.0858 17.4855 5.08298 17.475 5.07762 17.4657L5.13869 17.4046V17.2825L5.19976 17.2214L5.32189 17.0993V16.9771L5.44403 16.9161C5.44939 16.9068 5.45221 16.8962 5.45221 16.8855C5.45221 16.8748 5.44939 16.8643 5.44403 16.855V16.7939L5.56617 16.7329V16.6107L5.81044 16.4275V16.3054L5.99365 16.1222L6.05472 16.0611C6.05472 15.9797 6.11579 15.939 6.23792 15.939Z" fill="#FFC293"/><path d="M29.8716 19.3589C29.6681 19.766 29.4034 20.0713 29.0777 20.2749C28.5892 20.5599 28.121 20.5192 27.6732 20.1528C27.3475 19.8678 27.1643 19.5014 27.1235 19.0535C27.0828 18.6464 27.1439 18.2393 27.3067 17.8321C27.49 17.2825 27.9174 16.7329 28.5281 16.6108C29.4442 16.3665 30.0548 17.1604 30.1159 18.0153C30.1566 18.5039 30.0752 18.9517 29.8716 19.3589Z" fill="white"/><path d="M31.7033 21.6795C31.2148 22.5956 30.6652 23.3895 29.627 23.6948C29.3013 23.8169 28.996 23.8169 28.711 23.6948C28.1003 23.5116 27.3675 23.0841 27.1232 22.5345L26.8789 21.8017V21.7406C27.3064 22.1681 27.7949 22.4124 28.3446 22.4124C29.5659 22.4124 30.543 21.8627 31.2148 20.8856C31.7644 20.0307 32.0087 19.1757 32.1919 18.1986V16.6108H32.253C32.3344 16.8144 32.3751 17.0383 32.3751 17.2826C32.4565 17.8933 32.4565 18.4633 32.3751 18.9925C32.253 19.8475 32.0697 20.8856 31.7033 21.6795Z" fill="white"/><path d="M34.5739 17.9543C34.6146 18.0764 34.6961 18.1782 34.8182 18.2596V18.3818L35.0014 18.5039V18.565C34.996 18.5743 34.9932 18.5848 34.9932 18.5955C34.9932 18.6062 34.996 18.6168 35.0014 18.626L35.2457 18.8092V18.9314L35.4289 19.0535V19.1757L35.6121 19.2978V19.4199L35.7342 19.481V19.6031L35.8564 19.6642V19.7253C35.851 19.7346 35.8482 19.7451 35.8482 19.7558C35.8482 19.7665 35.851 19.7771 35.8564 19.7863L36.1006 19.9696V20.0917L36.2228 20.2138H36.3449V20.336H36.406L36.8945 20.7634L37.0167 21.1299C37.0981 21.6591 37.0981 22.168 37.0167 22.6566C37.0167 22.8398 36.9556 23.0841 36.8335 23.2062C36.5281 23.5726 36.1617 23.2673 35.8564 23.0841C35.3068 22.8398 34.8182 23.1451 34.8182 23.6947C34.8182 24.0001 35.1846 24.0612 35.3068 23.8169L35.4289 23.5726H35.551L36.1006 23.8779C35.6935 24.5293 35.1439 24.9772 34.4518 25.2215H34.2075C33.9022 25.1604 33.8411 25.0383 33.719 24.7329L33.6579 24.0612C33.5358 23.0841 33.2101 22.2087 32.6808 21.4352L32.4976 21.1909L32.4365 21.1299C32.6401 20.5599 32.7826 19.9288 32.864 19.2367L32.9861 18.565L33.0472 18.2596C33.2304 17.9543 33.4747 17.6489 33.9022 17.71C34.1057 17.71 34.3297 17.7914 34.5739 17.9543Z" fill="#F28773"/><path d="M19.9168 17.832L19.9779 19.2366C19.8964 20.2137 19.6929 21.1501 19.3672 22.0458L19.1229 22.6565C18.8176 23.2671 18.3901 23.8168 17.9626 24.2442L17.7183 24.4275C17.1484 24.916 16.5173 25.3028 15.8252 25.5878L16.3137 25.2213L16.558 25.0381L16.8023 24.7939C17.5962 24.1832 18.3901 23.3282 18.9397 22.3511L19.184 21.8015C19.5097 20.9465 19.7336 20.0509 19.8557 19.1145L19.9168 18.5038V17.832Z" fill="#AD6560"/><path d="M34.5742 17.9541C35.1035 18.117 35.531 18.4019 35.8567 18.8091C36.3452 19.3383 36.6913 19.9897 36.8948 20.7633L36.4063 20.3358H36.3452V20.2136H36.2231L36.1009 20.0915V19.9694L35.8567 19.7862C35.8513 19.7769 35.8485 19.7663 35.8485 19.7556C35.8485 19.7449 35.8513 19.7344 35.8567 19.7251V19.664L35.7345 19.603V19.4808L35.6124 19.4198V19.2976L35.4292 19.1755V19.0533L35.246 18.9312V18.8091L35.0017 18.6259C34.9963 18.6166 34.9935 18.606 34.9935 18.5953C34.9935 18.5846 34.9963 18.5741 35.0017 18.5648V18.5037L34.8185 18.3816V18.2594C34.6964 18.178 34.6149 18.0762 34.5742 17.9541Z" fill="#F4986E"/><path d="M7.82516 19.664L7.76409 19.4198C7.70302 19.2976 7.64195 19.1755 7.45875 19.1755L6.90913 19.2976L6.11523 19.4808L7.76409 18.8091H7.82516V19.664Z" fill="#AD6560"/><path d="M21.8712 19.5418C22.4005 19.6233 22.8483 19.4604 23.2147 19.0533H23.3369L23.5201 18.9922C23.5387 19.0029 23.5597 19.0086 23.5812 19.0086C23.6026 19.0086 23.6237 19.0029 23.6422 18.9922L23.7644 18.9312L24.314 18.9922V19.0533H24.4361L24.5583 19.1754L24.7415 19.2365L24.8636 19.4197C24.8798 19.4197 24.8953 19.4261 24.9068 19.4376C24.9182 19.449 24.9247 19.4646 24.9247 19.4808C24.6193 20.0304 24.1918 20.3968 23.7033 20.7021C23.2147 21.0278 22.6651 21.1907 22.0544 21.1907L21.9934 21.1296L21.8712 21.0075L21.7491 20.8243L21.627 20.4579V20.0304C21.6677 19.8268 21.7491 19.664 21.8712 19.5418Z" fill="#81564F"/><path d="M7.82576 19.6643L7.9479 20.2139C8.02932 20.5804 8.17182 20.9061 8.37538 21.191C8.80286 21.9239 9.53569 21.9849 10.3296 21.9239L11.8563 21.7407L15.0319 21.0689C15.2151 21.0689 15.2761 21.3132 15.3372 21.4353L15.3983 21.7407L15.154 21.4964C15.1133 21.3743 15.0115 21.3335 14.8487 21.3743L10.696 22.1071C10.1667 22.1885 9.65782 22.1885 9.16927 22.1071C8.76215 22.0664 8.47716 21.8832 8.31431 21.5575C8.11075 21.1096 7.88683 20.7636 7.64256 20.5193C7.39828 20.275 7.03187 20.275 6.72653 20.275C6.15655 20.2343 5.58658 20.275 5.0166 20.3972V19.9697L6.11584 19.4811L6.90973 19.2979L7.45935 19.1758C7.64256 19.1758 7.70362 19.2979 7.76469 19.4201L7.82576 19.6643Z" fill="#F28773"/><path d="M29.8711 19.3589L30.2376 19.5421L30.5429 19.7864L30.665 20.0917V20.4581L30.604 20.7024L30.5429 21.0077L30.4208 21.1909C29.9729 21.6795 29.3826 21.9441 28.6498 21.9848C28.0391 22.0663 27.5302 21.9034 27.123 21.4963V21.4352L27.2452 20.9467C27.3266 20.6617 27.4691 20.3971 27.6727 20.1528C28.1205 20.5192 28.5887 20.5599 29.0772 20.2749C29.4029 20.0714 29.6676 19.766 29.8711 19.3589Z" fill="#81564F"/><path d="M15.3376 21.4353C15.2765 21.3132 15.2154 21.0689 15.0322 21.0689L15.2154 21.0078L15.2765 21.0689L15.3376 21.4353Z" fill="#AD6560"/><path d="M29.6884 24.244C29.7495 24.9158 30.238 25.3433 30.7876 25.5875C31.1948 25.7504 31.6223 25.8522 32.0701 25.8929C32.4365 25.9336 32.7826 25.8725 33.1083 25.7097C33.0675 26.2796 32.9251 26.87 32.6808 27.4807C32.4365 28.1728 32.1515 28.702 31.8258 29.0685C31.5408 29.4349 31.1541 29.842 30.6655 30.2898C30.3398 30.5748 29.9938 30.8191 29.6273 31.0227C29.0574 31.3484 28.5077 31.5926 27.9785 31.7555L26.5128 32.0608C25.5357 32.1422 24.579 32.1015 23.6426 31.9387C22.7062 31.7758 21.8513 31.5723 21.0777 31.328C20.9556 31.328 20.8538 31.2873 20.7724 31.2059L20.1617 30.473L19.4899 29.7402C19.2457 29.4959 19.0014 29.3127 18.696 29.1906C18.1464 29.0074 17.5357 28.5188 17.1083 28.0914L16.8029 27.786C16.4976 27.6028 16.1922 27.2975 15.948 26.9921C15.8258 26.7886 15.7851 26.5239 15.8258 26.1982H15.8869C16.6197 25.8725 17.2915 25.4858 17.9021 25.0379L18.0854 25.099C18.3296 25.4043 18.7571 25.5265 19.1846 25.5265C19.7546 25.5265 20.3245 25.445 20.8945 25.2822C21.6273 25.0786 22.1362 24.6511 22.4212 23.9998V23.7555L22.4823 23.5723C23.1337 23.7351 23.7444 23.6537 24.3144 23.328C25.1083 22.9005 25.8411 22.2288 26.2686 21.3738C26.2686 21.3331 26.2686 21.3331 26.2686 21.3738C26.3907 22.3509 26.5739 23.1448 27.4289 23.6944C28.1006 24.183 28.8945 24.4883 29.6884 24.244ZM25.9021 24.3051C25.4747 24.1219 24.9861 23.9387 24.864 23.5112L24.8029 23.4501L24.6197 23.5723C24.3754 23.8776 24.6808 24.183 24.9251 24.3051C25.6172 24.6715 26.3296 24.7733 27.0625 24.6104V24.5494C26.6553 24.5087 26.2686 24.4272 25.9021 24.3051Z" fill="#FFBC9C"/><path d="M33.1085 25.7097C32.7828 25.8725 32.4367 25.9336 32.0703 25.8929C31.6224 25.8522 31.195 25.7504 30.7878 25.5875C30.2382 25.3433 29.7497 24.9158 29.6886 24.244C30.971 23.8776 31.7039 22.9616 32.1924 21.8013H32.2535C32.7828 22.9412 33.0677 24.1422 33.1085 25.4043V25.7097ZM22.4825 23.5723L22.4214 23.7555V23.9997C22.1364 24.6511 21.6275 25.0786 20.8947 25.2822C20.3247 25.445 19.7548 25.5265 19.1848 25.5265C18.7573 25.5265 18.3298 25.4043 18.0855 25.099L17.9023 25.0379C18.5741 24.4883 19.1237 23.9387 19.5512 23.2058L20.1619 22.0455H20.223C20.6504 22.9616 21.4443 23.3891 22.4825 23.5723Z" fill="#F28773"/><path d="M18.9407 22.3511C18.391 23.3282 17.5971 24.1831 16.8033 24.7938L16.559 25.0381L16.3147 25.2213L15.8262 25.5877C15.0933 25.9134 14.3402 26.0966 13.5666 26.1373C12.8745 26.1373 12.1417 26.0559 11.3681 25.8931C10.5132 25.7302 9.63786 25.4452 8.74219 25.0381L9.23074 24.977C9.39359 25.0992 9.53608 25.1399 9.65822 25.0992H10.6964L11.246 25.0381H11.7956L11.9178 24.977H12.0399L12.4674 24.916L14.5437 24.4885C15.073 24.3256 15.5819 24.1221 16.0704 23.8778L16.6811 23.6335L17.1697 23.3282L17.475 23.145L17.8414 22.9007L18.4521 22.5343H18.5742L18.7575 22.3511H18.9407Z" fill="#F67954"/><path d="M25.9015 24.3052C26.268 24.4273 26.6547 24.5087 27.0619 24.5494V24.6105C26.329 24.7734 25.6166 24.6716 24.9244 24.3052C24.6802 24.183 24.3748 23.8777 24.6191 23.5723L24.8023 23.4502L24.8634 23.5113C24.9855 23.9387 25.4741 24.122 25.9015 24.3052Z" fill="#564341"/><path d="M36.1004 23.8779H36.1615V23.939C35.9783 24.2443 35.8562 24.6718 35.6119 24.9161C35.3676 25.2825 34.9401 25.5268 34.5126 25.71C34.2277 25.8728 33.963 25.9746 33.7188 26.0153V24.7329C33.8409 25.0382 33.902 25.1604 34.2073 25.2214H34.4516C35.1437 24.9772 35.6933 24.5293 36.1004 23.8779Z" fill="#AD6560"/><path d="M14.8489 26.9314L14.4825 27.2978L13.3222 27.9085L11.7344 28.5802H11.6123V28.5192C11.653 28.3156 11.7548 28.1324 11.9176 27.9695C12.5894 27.1756 13.8108 26.6871 14.8489 26.9314Z" fill="#F28773"/><path d="M14.8489 26.9312C15.0321 26.9922 15.5206 27.1754 15.5206 27.4197L15.4596 27.4808C14.5639 27.4401 13.7904 27.6843 13.139 28.2136L12.8947 28.3357L12.1619 28.58H11.7344L13.3222 27.9083L14.4825 27.2976L14.8489 26.9312Z" fill="#AD6560"/><path d="M16.07 28.0916C15.9885 28.458 15.8053 28.743 15.5204 28.9466L14.6654 29.5573L14.299 29.7405V29.5573L14.2379 29.4962H14.1768L14.1158 29.4351C14.1065 29.4405 14.096 29.4433 14.0852 29.4433C14.0745 29.4433 14.064 29.4405 14.0547 29.4351L13.9936 29.374H13.9326L13.8715 29.313C13.8622 29.3183 13.8517 29.3212 13.841 29.3212C13.8302 29.3212 13.8197 29.3183 13.8104 29.313C13.7697 29.2316 13.729 29.2112 13.6883 29.2519C13.6721 29.2519 13.6566 29.2455 13.6451 29.234C13.6337 29.2226 13.6272 29.207 13.6272 29.1908H13.5662L13.5051 29.1298H13.3829C13.3737 29.1351 13.3631 29.138 13.3524 29.138C13.3417 29.138 13.3312 29.1351 13.3219 29.1298L13.1997 29.0687H13.1387V29.0076L13.3829 28.7023L13.5662 28.5191C13.8511 28.3155 14.1768 28.173 14.5433 28.0916C15.0725 27.9695 15.5814 27.9695 16.07 28.0916Z" fill="#F28773"/><path d="M16.0699 28.0918C16.5584 28.2139 16.8637 28.4786 16.9859 28.8857V28.9468C16.1309 29.0078 15.3981 29.3132 14.7874 29.8628H14.7263C14.1767 29.9239 13.6882 30.1071 13.1996 30.2903C12.9146 30.3717 12.6704 30.3921 12.4668 30.3513L13.7492 29.9849L14.2989 29.7407L14.6653 29.5574L15.5202 28.9468C15.8052 28.7432 15.9884 28.4582 16.0699 28.0918Z" fill="#AD6560"/><path d="M33.1082 29.1295L33.0471 28.5188C33.0064 28.5188 33.0064 28.5188 33.0471 28.5188C33.0471 28.4781 33.0471 28.4781 33.0471 28.5188C33.5764 28.7224 33.9835 29.0481 34.2685 29.4959C34.3906 29.6791 34.5128 29.8013 34.5128 29.9845V30.0455L33.9021 29.8013L33.5968 29.557L33.1082 29.1295Z" fill="#F67954"/><path d="M33.047 28.519L33.1081 29.1297L32.8638 28.9465H32.8027L33.047 28.519Z" fill="#AD6560"/><path d="M13.1386 29.0078V29.0689H13.1996L13.3218 29.1299C13.331 29.1353 13.3416 29.1381 13.3523 29.1381C13.363 29.1381 13.3735 29.1353 13.3828 29.1299H13.505L13.566 29.191H13.6271C13.6271 29.2072 13.6335 29.2227 13.645 29.2342C13.6564 29.2457 13.672 29.2521 13.6882 29.2521C13.7289 29.2114 13.7696 29.2317 13.8103 29.3132C13.8196 29.3185 13.8301 29.3213 13.8408 29.3213C13.8516 29.3213 13.8621 29.3185 13.8714 29.3132L13.9324 29.3742H13.9935L14.0546 29.4353C14.0639 29.4407 14.0744 29.4435 14.0851 29.4435C14.0958 29.4435 14.1064 29.4407 14.1157 29.4353L14.1767 29.4964H14.2378L14.2989 29.5574V29.7406L13.7492 29.9849L12.4668 30.3513C12.5075 30.0256 12.5889 29.761 12.7111 29.5574L13.1386 29.0078Z" fill="#F4986E"/><path d="M33.3522 30.0457L33.2301 30.1678V30.2289H33.169L32.9248 30.4121H32.8637L32.8026 30.4732L32.7415 30.5343L32.4973 30.6564L32.3751 30.5953L32.1309 30.0457L32.5583 29.4961H32.6194C32.9044 29.6182 33.1487 29.8014 33.3522 30.0457Z" fill="#F67954"/><path d="M18.6962 29.9236L18.8184 30.29V30.5343C18.6962 30.9007 18.4723 31.206 18.1466 31.4503L17.2916 32.061L16.0092 30.6564H15.8871L15.6428 30.3511H15.5206C15.4392 30.2289 15.3578 30.1678 15.2764 30.1678C15.8056 29.7607 16.3756 29.5368 16.9863 29.4961L18.2077 29.6182C18.3705 29.6589 18.5334 29.7607 18.6962 29.9236Z" fill="#F28773"/><path d="M18.6957 29.9238C18.9807 30.1274 19.2046 30.3717 19.3674 30.6567C19.5303 30.9824 19.5303 31.2877 19.3674 31.5727C19.2453 31.817 19.0214 31.9798 18.6957 32.0612L17.6575 32.3666L16.5583 32.5498L15.3369 32.8551C15.9883 32.6516 16.6397 32.3869 17.2911 32.0612L18.1461 31.4505C18.4718 31.2063 18.6957 30.9009 18.8178 30.5345V30.2902L18.6957 29.9238ZM32.1308 30.046L32.3751 30.5956L31.7644 30.3513V30.2902L32.1308 30.046Z" fill="#AD6560"/><path d="M33.3521 30.0459C33.6371 30.4123 33.861 30.8194 34.0239 31.2673L34.0849 31.6337H34.0239L33.4743 31.2062L33.1078 31.023C32.945 30.8601 32.7414 30.738 32.4972 30.6566L32.7414 30.5344L32.8025 30.4734L32.8636 30.4123H32.9246L33.1689 30.2291H33.23V30.168L33.3521 30.0459ZM15.2758 30.168C15.3572 30.168 15.4386 30.2291 15.5201 30.3512H15.6422L15.8865 30.6566H16.0086L17.291 32.0612C16.6396 32.3869 15.9882 32.6515 15.3369 32.8551L14.1155 33.0993H13.8101C13.786 33.1025 13.7615 33.0983 13.7397 33.0875C13.718 33.0766 13.7 33.0595 13.688 33.0383C13.6473 32.6311 13.7084 32.2444 13.8712 31.878C14.1562 31.2266 14.6244 30.6566 15.2758 30.168Z" fill="#F4986E"/><path d="M32.1917 31.1451L31.2757 32.0611L30.8482 31.5725L30.7871 31.2061C31.1535 31.0229 31.7642 31.084 32.1917 31.1451Z" fill="#F67954"/><path d="M32.1924 31.1449C32.2738 31.1042 32.396 31.1245 32.5588 31.2059C33.2509 31.4502 33.6377 31.9591 33.7191 32.7327L33.658 32.9159H33.4748L31.7649 32.3662L31.2764 32.0609L32.1924 31.1449Z" fill="#F4986E"/><path d="M30.7878 31.2061L30.8488 31.5725L31.2763 32.061L31.7649 32.3664L30.4214 31.9999L30.1771 31.8778C30.1641 31.8663 30.1537 31.8523 30.1466 31.8365C30.1394 31.8207 30.1357 31.8035 30.1357 31.7862C30.1357 31.7689 30.1394 31.7517 30.1466 31.736C30.1537 31.7202 30.1641 31.7061 30.1771 31.6946C30.3399 31.491 30.5435 31.3282 30.7878 31.2061Z" fill="#AD6560"/></svg>
