<svg xmlns="http://www.w3.org/2000/svg" viewBox="0 0 655 555"><g stroke-width="2" fill="none"><path stroke="#ab7f45" d="M379 102q-8 7-11 16-2 4-1 6c1 5 15 7 20 7q18 2 43 2l33 4q2 0 2 2c0 3-3 4-5 4h-9c-2 0-5 2-5 5q0 14-3 31 0 2 2 0l12-7q3-3 11-6c13-6 25-16 36-26 8-7 15-14 18-24s-4-18-14-20"/><path stroke="#ab9655" d="M508 96q-6-2-14-2l-34 1q-4 0-3-4 0-2 3-5l18-15 18-16 11-12v-1c-13 0-26 1-38 5q-9 2-16 6-35 15-64 40l-10 9"/><path stroke="#ffd259" d="m508 96-1 1v1l-5 12-6 5-13 6-25 5h-17l-15-2-25-6-7-3-6-3-5-5-1-1-1-1-1-1-1-2"/><path stroke="#ab836a" d="m64 251 14-4"/><path stroke="#ab806f" d="m78 247 39-17 6-1c9-1 9 12 10 18q0 14 6 25c4 7 12 9 20 9q16-1 33-5l36-7 12-3 6-1c6 1 8 7 9 12l1 13q0 4-4 5c-2 0-5-2-5-4v-5"/><path stroke="#a4655a" d="m247 286-1-5"/><path stroke="#825451" d="m246 281-1-6-1-1-3 1"/><path stroke="#a4655a" d="m241 275-52 11-25 3c-13 1-25 0-32-12q-5-7-7-16l-2-9"/><path stroke="#825451" d="M123 252v-14h-1l-27 11"/><path stroke="#a4655a" d="m95 249-18 8v7"/><path stroke="#ab806f" d="m77 264 6 20q17 35 50 53l5 3"/><path stroke="#a65e4b" d="M138 340q22 10 43 14 19 4 36 4 19-1 37-9"/><path stroke="#825451" d="M254 349q17-7 31-19l4-3c7-7 14-16 19-26l4-10q8-22 10-46l-1-23"/><path stroke="#a4655a" d="M321 222q-1-19-8-36-6-12-15-25"/><path stroke="#ab806f" d="M298 161q-13-19-32-34"/><path stroke="#ab836a" d="m266 127-6-5"/><path stroke="#ab8666" d="M260 122c-18-12-38-18-59-20l-20-1c-43 0-80 25-107 58-13 17-22 38-29 59-3 10-4 20 1 29q3 5 8 5l10-1"/><path stroke="#ffc68f" d="m260 122-8 2h-1l-2 1-1 1a1 1-70 0 1-1 0h-1l-1 1-2 1h-1l-1 1h-1l-1 1h-1q-2 0-3 2h-3a1 1 24 0 1-1 1l-2 1h-8l-1 1h-17l-1 1h-8l-1 1h-5l-1 1"/><path stroke="#ffe2b1" d="M187 138c-9-13-24-16-39-14-17 3-36 11-47 24s-13 29-4 43"/><path stroke="#ffc68f" d="M97 191q-3 0-3 2l-1 1-3 3v2l-4 3v2l-2 1v1a1 1-22 0 1 0 1l-2 1v2l-2 2-1 1v2l-1 1a1 1 70 0 1 0 1l-2 2-1 1v1a1 1 0 0 1 0 1l-1 1v1l-1 1v1q-2 1-1 2a1 1 0 0 1-1 1v2q-2 1-1 2a1 1 0 0 1-1 1v2l-1 2v1q-2 1-1 2a1 1 0 0 1 0 1l-1 2-1 1v1l-1 1v4"/><path stroke="#ffbf98" d="M266 127v1h1v1h-2l-2 1h-1l-3 1a2 2 38 0 0-1 0h-2l-1 1-4 1-1 1h-2l-1 1h-1l-2 3h-1a1 1 21 0 0-1 0l-2 2-1 1-2 1v1l-7 3h-2l-2 1h-6l-2 1h-17v1h-5l-3 1"/><path stroke="#ffe0bf" d="m193 150-2-5"/><path stroke="#ffdfb6" d="m191 145-4-7"/><path stroke="#fffce2" d="m191 145-4-1-4-2h-8l-9 2-1 1h-1l-2 1-6 2q-21 8-39 23l-12 12-2 3h1v5a1 1-69 0 0 0 1l8 7 2 2q2 1 1 3"/><path stroke="#ffdcba" d="M115 204q-5-1-9-4"/><path stroke="#ffdfb6" d="M106 200q-6-4-9-9"/><path stroke="#f9a288" d="M298 161q5 18 5 30v22c0 12-2 23-8 34l-15 23q-27 33-66 54-17 9-33 12l-35 3"/><path stroke="#fb9b78" d="m146 339-8 1"/><path stroke="#f9a288" d="M77 264q14-3 28-2c5 0 11 0 15 4q6 6 11 17 4 8 14 9 12 2 25 0l68-12q4-1 5 2l4 4"/><path stroke="#ffbf98" d="M78 247v-1h1l1-1-1-1 1-1v-1a1 1 0 0 1 0-1l1-1v-1l1-1v-1l1-1a1 1-18 0 1 0-1l1-1v-1l1-1v-1q2-1 1-2a1 1 72 0 1 0-1l1-1a1 1-19 0 1 1-1v-2l1-1a1 1-21 0 1 0-1l2-2 1-1v-2l1-1v-1l2-1v-2l2-1v-2l3-2v-2l3-2v-1l2-2h1"/><path stroke="#ffddc4" d="m115 204 9 2"/><path stroke="#ffdece" d="M124 206c24 5 48-8 61-27"/><path stroke="#ffddc4" d="M185 179q10-13 8-29"/><path stroke="#fffef5" d="m185 179 3-8v-2l2-5q1-2-1-4h-8l-2 1a1 1-67 0 0-1 0l-2 1h-1l-2 1h-1v1h-1l-2 1h-1l-2 1h-1l-2 1h-1l-1 1h-2l-1 1-6 2-7 4-1 1-2 2-3 3a1 1-72 0 1-1 0h-1l-2 3h-2l-5 6h-2l-8 8v4l1 1 5 3"/><path stroke="#d0766a" d="M321 222v11l-1 10q-3 23-11 44l-4 9"/><path stroke="#f48064" d="M305 296h-3l-3 3h-2l-10 6-6 4-5 3-8 5-10 4q-12 6-25 10l-34 7-7 1h-2l-2 1h-9l-9 1h-17q-3 1-7-2"/><path stroke="#d0766a" d="M241 275c3 0 4 4 5 6"/><path stroke="#d26f5a" d="m254 349 8-6 4-3 4-4c13-10 26-24 35-40"/><path stroke="#d0766a" d="m123 252-1-4c-1-2-2-4-5-4l-9 2-13 3"/><path stroke="#aba1a0" d="M351 283c-8-1-17-4-22-11 0 13 10 26 21 31l17 5c9 2 16 0 24-5 9-6 18-13 23-22q5-8 7-17 5-14 9-32c2-13 4-25 2-38-2-7-4-14-8-20q-1-1-1 1a127 127 0 0 1-16 80q-4 7-9 11a62 62 0 0 1-47 17"/><path stroke="#6c4d48" d="M353 250q-3 3-4 8v7l2 6 2 3 2 2 1 1q15 0 27-8c8-5 15-11 20-20a1 1-54 0 0-1-1l-2-3-3-1-2-2h-2v-1l-9-1-2 1a2 2 36 0 1-2 0l-3 1h-2"/><path stroke="#aba1a0" d="M375 242q13-15 11-36c-2-18-20-32-37-19-9 6-13 16-15 26-3 15 3 34 19 37"/><path stroke="#c0aba7" d="M375 242q-9 10-22 8"/><path stroke="#6c4d48" d="M448 260q-5 6-7 13l-2 8v1q10 10 25 8 18-1 29-13l2-3 1-5 1-4v-6l-2-5-5-4-6-3"/><path stroke="#aba1a0" d="M484 247q5-10 4-22c-1-14-11-27-26-23-10 2-17 11-20 20q-4 10-3 20 1 11 9 18"/><path stroke="#c0aba7" d="M484 247q-5 10-13 15-12 7-23-2"/><path stroke="#aba1a0" d="M514 285c6-13 9-30 11-44q2-13 0-28 0-6-2-11h-1v26c-3 16-7 30-16 44a54 54 0 0 1-47 25c-9 0-17-4-24-11v1l4 12c4 9 16 16 26 19q7 3 15 0c17-5 26-18 34-33"/><path stroke="#825451" d="M547 335v21q6-1 13-5c7-3 14-7 18-13 4-4 6-11 9-16v-1h-1"/><path stroke="#a4655a" d="m586 321-9-5h-2l-2 4c-2 4-8 3-8-2 0-9 8-14 17-10 5 3 11 8 16 2 2-2 3-6 3-9q2-12 0-25l-2-6"/><path stroke="#a56e58" d="M599 270q-5-19-17-32-8-10-21-14"/><path stroke="#a4655a" d="M561 224q-6-4-11-4c-7-1-11 4-14 9l-1 5-2 11q-2 17-7 31l1 1 3 4q13 19 16 43l1 11"/><path stroke="#f39071" d="M561 224q1 3 4 5v2l3 2v1a1 1 23 0 0 0 1l4 3v2l3 2v2l3 2v2l2 1v2l2 1v1a1 1 23 0 0 0 1l4 3v2l2 2h2v2h1l8 7"/><path stroke="#d0766a" d="M586 321q-10 16-27 22h-4c-5-1-6-3-8-8"/><path stroke="#a4655a" d="M363 316c-17-3-30-10-37-25h-1l-10 19c-7 12-16 21-27 30"/><path stroke="#ab806f" d="M288 340q-15 11-33 19h-1q-1 8 2 13c4 5 9 10 14 13l5 5c7 7 17 15 26 18 5 2 9 5 13 9l11 12 10 12q2 2 5 2 19 6 42 10t47 2l24-5q13-4 27-12 9-5 17-12 12-11 19-20 8-9 14-26 6-15 7-29"/><path stroke="#a4655a" d="M537 351v-5q-1-31-14-59h-1c-8 19-20 34-41 40"/><path stroke="#ab806f" d="M481 327c-13 4-26-1-37-9-14-9-17-22-19-38q0-1 0 0c-7 14-19 25-32 32q-14 8-30 4"/><path stroke="#f9a288" d="M481 327c1 11 9 18 18 22q10 4 21 5 9 1 17-3m-249-11 3 1c4 5 11 7 18 7q14 0 28-4 18-5 25-21v-4l1-3"/><path stroke="#825451" d="M187 398h7l12-4 4-2q16-13 38-12l1-1c0-4-8-7-11-8"/><path stroke="#a4655a" d="M238 371c-17-4-37 4-48 17q-4 4-5 9v1h2"/><path stroke="#d0766a" d="m238 371-6 6-19 10-26 11"/><path stroke="#a56e58" d="m210 405-7 9q-3 5-4 13"/><path stroke="#825451" d="M199 427q5 1 12-1c8-3 16-6 25-7h1c10-9 22-14 36-15v-1q-3-10-15-13"/><path stroke="#a4655a" d="M258 390q-12-3-25 0-9 2-16 7l-3 3-4 5"/><path stroke="#d0766a" d="M258 390q-2 9-9 14l-14 10-6 3"/><path stroke="#f39071" d="M229 417v-3l-1-1h-1l-1-1a1 1-17 0 1-1 0l-1-1h-1l-1-1a1 1 67 0 1-1 0q-1-2-2-1a1 1 0 0 1-1-1h-1l-1-1h-2a1 1-27 0 1-1 0l-2-1h-1v-1"/><path stroke="#d17f67" d="m199 427 21-6 9-4"/><path stroke="#825451" d="m536 397-4 7h1l4 3"/><path stroke="#a65e4b" d="m537 407 8 7 5 4 10 4v-1c0-3-2-5-4-8q-7-11-20-16 0-1 0 0-1 0 0 0"/><path stroke="#d26f5a" d="m537 407-1-10"/><path stroke="#825451" d="m521 422-6 4v1l10 4"/><path stroke="#a65e4b" d="m525 431 2 1"/><path stroke="#a56e58" d="M527 432q6 2 10 6l6 3 9 7h1l-1-6q-4-11-11-20"/><path stroke="#a65e4b" d="M541 422q-5-6-12-9h-1l-7 9"/><path stroke="#f58961" d="m541 422-2 2v1h-1l-4 3h-1l-1 1-1 1-4 2"/><path stroke="#d26f5a" d="m525 431-4-9"/><path stroke="#a56e58" d="M245 424q-16 12-23 28-4 9-3 19a2 2 0 0 0 2 1h5l20-4"/><path stroke="#825451" d="m246 468 20-5 18-3 17-5q8-2 11-8 4-7 0-15-4-7-11-12"/><path stroke="#a4655a" d="M301 420q-4-4-8-5l-20-2q-15 1-28 11"/><path stroke="#d0766a" d="m301 420 2 6v4q-3 9-11 15l-14 10"/><path stroke="#f39071" d="m278 455-21-23h-2l-4-5h-2q-2-3-4-3"/><path stroke="#d17f67" d="M246 468q16-5 32-13"/><path stroke="#825451" d="M499 441q-6 3-10 8a2 2 0 0 0 0 3l4 2 22 6"/><path stroke="#a56e58" d="m515 460 28 9h3l1-3q-2-19-19-25-4-2-6-1"/><path stroke="#a65e4b" d="M522 440c-7-1-17-2-23 1"/><path stroke="#f58961" d="m522 440-15 15"/><path stroke="#d26f5a" d="m507 455-7-8-1-6"/><path stroke="#d17f67" d="m515 460-8-5"/><path stroke="#ffdece" d="M182 212q2 7 10 9c11 3 22-1 31-8s16-20 7-31q-3-3-8-4c-12-4-25 4-33 13l-5 7c-3 4-4 10-2 14"/><path stroke="#ab806f" d="M419 328c-7-3-15-6-17-13l-1-1-3 2c-4 5 1 10 5 12q17 9 35 5v-1q-10-1-19-4"/></g><path fill="#564341" d="M324 189q7-14 18-25c16-16 42-18 64-13q10 3 18 10l4 3 6 5h1l1-6 1-12q0-4-3-5-8-3-18-4l-28-2c-11-1-32-3-30-19 1-13 13-25 23-33q28-25 61-40c13-6 26-11 39-13l28-2c9 1 10 9 6 15q-4 6-11 11l-27 24v1q16-1 30 2c13 3 24 10 24 24 1 10-6 22-13 30-8 8-18 16-28 23v1c9 0 16 2 22 8q18 14 22 37h1q11 0 23 3c7 3 17 7 23 12 14 11 24 29 28 46q4 19 0 38-2 8-9 12a1 1 90 0 0-1 1c-3 5-5 11-9 16l-4 7c-8 9-22 17-33 20l-3 2-4 5-5 15q1 3 4 5 13 6 21 21c2 4 4 8 3 12q-2 7-10 7a1 1 0 0 0-1 1c3 7 6 17 1 23q-2 2-5 1l-1 1v4c1 4 3 11-1 15s-9 3-14 1l-30-10q-10-4-29-7l-20-1-23 1-16 1h-41l-19-2q-14-2-28 1l-21 3q-5 0-9 2l-13 3-28 6-34 7c-21 4-19-16-15-28q4-11 12-21v-1c-7 3-13 5-20 6-8 1-15-3-14-13q1-9 7-17l-1-1c-6 2-17 2-19-5-2-6 1-13 5-18q8-10 21-16v-1c-22-1-42-7-63-15q-33-14-54-44l-12-17q-7-12-12-25 0-2-2-3l-1-1c-8 1-15-1-20-8q-6-9-5-22c0-11 4-21 8-31 8-23 22-47 41-64l15-13c20-16 47-29 73-30q19-1 37 1 38 5 66 28 18 15 33 37c7 9 13 19 17 30q0 1 0 0Zm55-87q-8 7-11 16-2 4-1 6c1 5 15 7 20 7q18 2 43 2l33 4q2 0 2 2c0 3-3 4-5 4h-9c-2 0-5 2-5 5q0 14-3 31 0 2 2 0l12-7q3-3 11-6c13-6 25-16 36-26 8-7 15-14 18-24s-4-18-14-20q-6-2-14-2l-34 1q-4 0-3-4 0-2 3-5l18-15 18-16 11-12v-1c-13 0-26 1-38 5q-9 2-16 6-35 15-64 40l-10 9ZM64 251l14-4 39-17 6-1c9-1 9 12 10 18q0 14 6 25c4 7 12 9 20 9q16-1 33-5l36-7 12-3 6-1c6 1 8 7 9 12l1 13q0 4-4 5c-2 0-5-2-5-4v-5l-1-5-1-6-1-1-3 1-52 11-25 3c-13 1-25 0-32-12q-5-7-7-16l-2-9v-14h-1l-27 11-18 8v7l6 20q17 35 50 53l5 3q22 10 43 14 19 4 36 4 19-1 37-9 17-7 31-19l4-3c7-7 14-16 19-26l4-10q8-22 10-46l-1-23q-1-19-8-36-6-12-15-25-13-19-32-34l-6-5c-18-12-38-18-59-20l-20-1c-43 0-80 25-107 58-13 17-22 38-29 59-3 10-4 20 1 29q3 5 8 5l10-1Zm287 32c-8-1-17-4-22-11 0 13 10 26 21 31l17 5c9 2 16 0 24-5 9-6 18-13 23-22q5-8 7-17 5-14 9-32c2-13 4-25 2-38-2-7-4-14-8-20q-1-1-1 1a127 127 0 0 1-16 80q-4 7-9 11a62 62 0 0 1-47 17Zm2-33q-3 3-4 8v7l2 6 2 3 2 2 1 1q15 0 27-8c8-5 15-11 20-20a1 1-54 0 0-1-1l-2-3-3-1-2-2h-2v-1l-9-1-2 1a2 2 36 0 1-2 0l-3 1h-2q13-15 11-36c-2-18-20-32-37-19-9 6-13 16-15 26-3 15 3 34 19 37Zm95 10q-5 6-7 13l-2 8v1q10 10 25 8 18-1 29-13l2-3 1-5 1-4v-6l-2-5-5-4-6-3q5-10 4-22c-1-14-11-27-26-23-10 2-17 11-20 20q-4 10-3 20 1 11 9 18Zm66 25c6-13 9-30 11-44q2-13 0-28 0-6-2-11h-1v26c-3 16-7 30-16 44a54 54 0 0 1-47 25c-9 0-17-4-24-11v1l4 12c4 9 16 16 26 19q7 3 15 0c17-5 26-18 34-33Zm33 50v21q6-1 13-5c7-3 14-7 18-13 4-4 6-11 9-16v-1h-1l-9-5h-2l-2 4c-2 4-8 3-8-2 0-9 8-14 17-10 5 3 11 8 16 2 2-2 3-6 3-9q2-12 0-25l-2-6q-5-19-17-32-8-10-21-14-6-4-11-4c-7-1-11 4-14 9l-1 5-2 11q-2 17-7 31l1 1 3 4q13 19 16 43l1 11Zm-184-19c-17-3-30-10-37-25h-1l-10 19c-7 12-16 21-27 30q-15 11-33 19h-1q-1 8 2 13c4 5 9 10 14 13l5 5c7 7 17 15 26 18 5 2 9 5 13 9l11 12 10 12q2 2 5 2 19 6 42 10t47 2l24-5q13-4 27-12 9-5 17-12 12-11 19-20 8-9 14-26 6-15 7-29v-5q-1-31-14-59h-1c-8 19-20 34-41 40-13 4-26-1-37-9-14-9-17-22-19-38q0-1 0 0c-7 14-19 25-32 32q-14 8-30 4Zm-176 82h7l12-4 4-2q16-13 38-12l1-1c0-4-8-7-11-8-17-4-37 4-48 17q-4 4-5 9v1h2Zm23 7-7 9q-3 5-4 13 5 1 12-1c8-3 16-6 25-7h1c10-9 22-14 36-15v-1q-3-10-15-13t-25 0q-9 2-16 7l-3 3-4 5Zm326-8-4 7h1l4 3 8 7 5 4 10 4v-1c0-3-2-5-4-8q-7-11-20-16 0-1 0 0-1 0 0 0Zm-15 25-6 4v1l10 4 2 1q6 2 10 6l6 3 9 7h1l-1-6q-4-11-11-20-5-6-12-9h-1l-7 9Zm-276 2q-16 12-23 28-4 9-3 19a2 2 0 0 0 2 1h5l20-4 20-5 18-3 17-5q8-2 11-8 4-7 0-15-4-7-11-12-4-4-8-5l-20-2q-15 1-28 11Zm254 17q-6 3-10 8a2 2 0 0 0 0 3l4 2 22 6 28 9h3l1-3q-2-19-19-25-4-2-6-1c-7-1-17-2-23 1Z"/><path fill="#ffe868" d="m508 96-1 1v1l-5 12-6 5-13 6-25 5h-17l-15-2-25-6-7-3-6-3-5-5-1-1-1-1-1-1-1-2 10-9q29-25 64-40 7-4 16-6c12-4 25-5 38-5v1l-11 12-18 16-18 15q-3 3-3 5-1 4 3 4l34-1q8 0 14 2Z"/><path fill="#ffbb49" d="M508 96c10 2 17 10 14 20s-10 17-18 24c-11 10-23 20-36 26q-8 3-11 6l-12 7q-2 2-2 0 3-17 3-31c0-3 3-5 5-5h9c2 0 5-1 5-4q0-2-2-2l-33-4q-25 0-43-2c-5 0-19-2-20-7q-1-2 1-6 3-9 11-16l1 2 1 1 1 1 1 1 5 5 6 3 7 3 25 6 15 2h17l25-5 13-6 6-5 5-12v-1l1-1Z"/><path fill="#ffc98a" d="m260 122-8 2h-1l-2 1-1 1a1 1-70 0 1-1 0h-1l-1 1-2 1h-1l-1 1h-1l-1 1h-1q-2 0-3 2h-3a1 1 24 0 1-1 1l-2 1h-8l-1 1h-17l-1 1h-8l-1 1h-5l-1 1c-9-13-24-16-39-14-17 3-36 11-47 24s-13 29-4 43q-3 0-3 2l-1 1-3 3v2l-4 3v2l-2 1v1a1 1-22 0 1 0 1l-2 1v2l-2 2-1 1v2l-1 1a1 1 70 0 1 0 1l-2 2-1 1v1a1 1 0 0 1 0 1l-1 1v1l-1 1v1q-2 1-1 2a1 1 0 0 1-1 1v2q-2 1-1 2a1 1 0 0 1-1 1v2l-1 2v1q-2 1-1 2a1 1 0 0 1 0 1l-1 2-1 1v1l-1 1v4l-10 1q-5 0-8-5c-5-9-4-19-1-29 7-21 16-42 29-59 27-33 64-58 107-58l20 1c21 2 41 8 59 20Z"/><path fill="#ffc293" d="m260 122 6 5v1h1v1h-2l-2 1h-1l-3 1a2 2 38 0 0-1 0h-2l-1 1-4 1-1 1h-2l-1 1h-1l-2 3h-1a1 1 21 0 0-1 0l-2 2-1 1-2 1v1l-7 3h-2l-2 1h-6l-2 1h-17v1h-5l-3 1-2-5-4-7 1-1h5l1-1h8l1-1h17l1-1h8l2-1a1 1 24 0 0 1-1h3q1-2 3-2h1l1-1h1l1-1h1l2-1 1-1h1a1 1-70 0 0 1 0l1-1 2-1h1l8-2Z"/><path fill="#fffbd8" d="m187 138 4 7-4-1-4-2h-8l-9 2-1 1h-1l-2 1-6 2q-21 8-39 23l-12 12-2 3h1v5a1 1-69 0 0 0 1l8 7 2 2q2 1 1 3-5-1-9-4-6-4-9-9c-9-14-7-30 4-43s30-21 47-24c15-2 30 1 39 14Z"/><path fill="#ffbc9c" d="M266 127q19 15 32 34 5 18 5 30v22c0 12-2 23-8 34l-15 23q-27 33-66 54-17 9-33 12l-35 3-8 1-5-3q-33-18-50-53l-6-20q14-3 28-2c5 0 11 0 15 4q6 6 11 17 4 8 14 9 12 2 25 0l68-12q4-1 5 2l4 4v5c0 2 3 4 5 4q4-1 4-5l-1-13c-1-5-3-11-9-12l-6 1-12 3-36 7q-17 4-33 5c-8 0-16-2-20-9q-6-11-6-25c-1-6-1-19-10-18l-6 1-39 17v-1h1l1-1-1-1 1-1v-1a1 1 0 0 1 0-1l1-1v-1l1-1v-1l1-1a1 1-18 0 1 0-1l1-1v-1l1-1v-1q2-1 1-2a1 1 72 0 1 0-1l1-1a1 1-19 0 1 1-1v-2l1-1a1 1-21 0 1 0-1l2-2 1-1v-2l1-1v-1l2-1v-2l2-1v-2l3-2v-2l3-2v-1l2-2h1q4 3 9 4l9 2c24 5 48-8 61-27q10-13 8-29l3-1h5v-1h17l2-1h6l2-1h2l7-3v-1l2-1 1-1 2-2a1 1 21 0 1 1 0h1l2-3h1l1-1h2l1-1 4-1 1-1h2a2 2 38 0 1 1 0l3-1h1l2-1h2v-1h-1v-1Zm-84 85q2 7 10 9c11 3 22-1 31-8s16-20 7-31q-3-3-8-4c-12-4-25 4-33 13l-5 7c-3 4-4 10-2 14Z"/><path fill="#fffdeb" d="m191 145 2 5q2 16-8 29l3-8v-2l2-5q1-2-1-4h-8l-2 1a1 1-67 0 0-1 0l-2 1h-1l-2 1h-1v1h-1l-2 1h-1l-2 1h-1l-2 1h-1l-1 1h-2l-1 1-6 2-7 4-1 1-2 2-3 3a1 1-72 0 1-1 0h-1l-2 3h-2l-5 6h-2l-8 8v4l1 1 5 3-9-2q1-2-1-3l-2-2-8-7a1 1-69 0 1 0-1v-5h-1l2-3 12-12q18-15 39-23l6-2 2-1h1l1-1 9-2h8l4 2 4 1Z"/><path fill="#fff" d="M185 179c-13 19-37 32-61 27l-5-3-1-1v-4l8-8h2l5-6h2l2-3h1a1 1-72 0 0 1 0l3-3 2-2 1-1 7-4 6-2 1-1h2l1-1h1l2-1h1l2-1h1l2-1h1v-1h1l2-1h1l2-1a1 1-67 0 1 1 0l2-1h8q2 2 1 4l-2 5v2l-3 8Z"/><path fill="#f28773" d="M298 161q9 13 15 25 7 17 8 36v11l-1 10q-3 23-11 44l-4 9h-3l-3 3h-2l-10 6-6 4-5 3-8 5-10 4q-12 6-25 10l-34 7-7 1h-2l-2 1h-9l-9 1h-17q-3 1-7-2l35-3q16-3 33-12 39-21 66-54l15-23c6-11 8-22 8-34v-22q0-12-5-30Z"/><path fill="#fff" d="M329 272c5 7 14 10 22 11 18 1 33-5 47-17q5-4 9-11a127 127 0 0 0 16-80q0-2 1-1c4 6 6 13 8 20 2 13 0 25-2 38q-4 18-9 32-2 9-7 17c-5 9-14 16-23 22-8 5-15 7-24 5l-17-5c-11-5-21-18-21-31Zm-147-60c-2-4-1-10 2-14l5-7c8-9 21-17 33-13q5 1 8 4c9 11 2 24-7 31s-20 11-31 8q-8-2-10-9Z"/><path fill="#fff" d="M375 242q-9 10-22 8c-16-3-22-22-19-37 2-10 6-20 15-26 17-13 35 1 37 19q2 21-11 36Z"/><path fill="#ffc293" d="M97 191q3 5 9 9h-1l-2 2v1l-3 2v2l-3 2v2l-2 1v2l-2 1v1l-1 1v2l-1 1-2 2a1 1-21 0 0 0 1l-1 1v2a1 1-19 0 0-1 1l-1 1a1 1 72 0 0 0 1q1 1-1 2v1l-1 1v1l-1 1a1 1-18 0 0 0 1l-1 1v1l-1 1v1l-1 1a1 1 0 0 0 0 1v1l-1 1 1 1-1 1h-1v1l-14 4v-4l1-1v-1l1-1 1-2a1 1 0 0 0 0-1q-1-1 1-2v-1l1-2v-2a1 1 0 0 0 1-1q-1-1 1-2v-2a1 1 0 0 0 1-1q-1-1 1-2v-1l1-1v-1l1-1a1 1 0 0 0 0-1v-1l1-1 2-2a1 1 70 0 0 0-1l1-1v-2l1-1 2-2v-2l2-1a1 1-22 0 0 0-1v-1l2-1v-2l4-3v-2l3-3 1-1q0-2 3-2Z"/><path fill="#fff" d="M484 247q-5 10-13 15-12 7-23-2-8-7-9-18-1-10 3-20c3-9 10-18 20-20 15-4 25 9 26 23q1 12-4 22Z"/><path fill="#fff" d="M514 285c-8 15-17 28-34 33q-8 3-15 0c-10-3-22-10-26-19l-4-12v-1c7 7 15 11 24 11 20 0 36-9 47-25 9-14 13-28 16-44v-26h1q2 5 2 11 2 15 0 28c-2 14-5 31-11 44Z"/><path fill="#f28773" d="M561 224q1 3 4 5v2l3 2v1a1 1 23 0 0 0 1l4 3v2l3 2v2l3 2v2l2 1v2l2 1v1a1 1 23 0 0 0 1l4 3v2l2 2h2v2h1l8 7 2 6q2 13 0 25c0 3-1 7-3 9-5 6-11 1-16-2-9-4-17 1-17 10 0 5 6 6 8 2l2-4h2l9 5q-10 16-27 22h-4c-5-1-6-3-8-8l-1-11q-3-24-16-43l-3-4-1-1q5-14 7-31l2-11 1-5c3-5 7-10 14-9q5 0 11 4Z"/><path fill="#ad6560" d="m321 222 1 23q-2 24-10 46l-4 10c-5 10-12 19-19 26l-4 3q-14 12-31 19l8-6 4-3 4-4c13-10 26-24 35-40l4-9q8-21 11-44l1-10v-11Z"/><path fill="#f4986e" d="M561 224q13 4 21 14 12 13 17 32l-8-7h-1v-2h-2l-2-2v-2l-4-3a1 1 23 0 1 0-1v-1l-2-1v-2l-2-1v-2l-3-2v-2l-3-2v-2l-4-3a1 1 23 0 1 0-1v-1l-3-2v-2q-3-2-4-5Z"/><path fill="#ad6560" d="m123 252-1-4c-1-2-2-4-5-4l-9 2-13 3 27-11h1v14Z"/><path fill="#81564f" d="M353 250q13 2 22-8h2l3-1a2 2 36 0 0 2 0l2-1 9 1v1h2l2 2 3 1 2 3a1 1-54 0 1 1 1c-5 9-12 15-20 20q-12 8-27 8l-1-1-2-2-2-3-2-6v-7q1-5 4-8Z"/><path fill="#f28773" d="m123 252 2 9q2 9 7 16c7 12 19 13 32 12l25-3 52-11c3 0 4 4 5 6l1 5-4-4q-1-3-5-2l-68 12q-13 2-25 0-10-1-14-9-5-11-11-17c-4-4-10-4-15-4q-14-1-28 2v-7l18-8 13-3 9-2c3 0 4 2 5 4l1 4Z"/><path fill="#81564f" d="m484 247 6 3 5 4 2 5v6l-1 4-1 5-2 3q-11 12-29 13-15 2-25-8v-1l2-8q2-7 7-13 11 9 23 2 8-5 13-15Z"/><path fill="#ad6560" d="M246 281c-1-2-2-6-5-6l3-1 1 1 1 6Z"/><path fill="#ffbc9c" d="M481 327c1 11 9 18 18 22q10 4 21 5 9 1 17-3-1 14-7 29-6 17-14 26-7 9-19 20-8 7-17 12-14 8-27 12l-24 5q-24 2-47-2t-42-10q-3 0-5-2l-10-12-11-12c-4-4-8-7-13-9-9-3-19-11-26-18l-5-5c-5-3-10-8-14-13q-3-5-2-13h1q18-8 33-19l3 1c4 5 11 7 18 7q14 0 28-4 18-5 25-21v-4l1-3q16 4 30-4c13-7 25-18 32-32q0-1 0 0c2 16 5 29 19 38 11 8 24 13 37 9Zm-62 1c-7-3-15-6-17-13l-1-1-3 2c-4 5 1 10 5 12q17 9 35 5v-1q-10-1-19-4Z"/><path fill="#f28773" d="M537 351q-8 4-17 3-11-1-21-5c-9-4-17-11-18-22 21-6 33-21 41-40h1q13 28 14 59v5Zm-174-35-1 3v4q-7 16-25 21-14 4-28 4c-7 0-14-2-18-7l-3-1c11-9 20-18 27-30l10-19h1c7 15 20 22 37 25Z"/><path fill="#f67954" d="M305 296c-9 16-22 30-35 40l-4 4-4 3-8 6q-18 8-37 9-17 0-36-4-21-4-43-14l8-1q4 3 7 2h17l9-1h9l2-1h2l7-1 34-7q13-4 25-10l10-4 8-5 5-3 6-4 10-6h2l3-3h3Z"/><path fill="#564341" d="M419 328q9 3 19 4v1q-18 4-35-5c-4-2-9-7-5-12l3-2 1 1c2 7 10 10 17 13Z"/><path fill="#ad6560" d="M586 321h1v1c-3 5-5 12-9 16-4 6-11 10-18 13q-7 4-13 5v-21c2 5 3 7 8 8h4q17-6 27-22Z"/><path fill="#f28773" d="m238 371-6 6-19 10-26 11h-2v-1q1-5 5-9c11-13 31-21 48-17Z"/><path fill="#ad6560" d="M238 371c3 1 11 4 11 8l-1 1q-22-1-38 12l-4 2-12 4h-7l26-11 19-10 6-6Z"/><path fill="#f28773" d="M258 390q-2 9-9 14l-14 10-6 3v-3l-1-1h-1l-1-1a1 1-17 0 1-1 0l-1-1h-1l-1-1a1 1 67 0 1-1 0q-1-2-2-1a1 1 0 0 1-1-1h-1l-1-1h-2a1 1-27 0 1-1 0l-2-1h-1v-1l4-5 3-3q7-5 16-7 13-3 25 0Z"/><path fill="#ad6560" d="M258 390q12 3 15 13v1c-14 1-26 6-36 15h-1c-9 1-17 4-25 7q-7 2-12 1l21-6 9-4 6-3 14-10q7-5 9-14Z"/><path fill="#f67954" d="m537 407-1-10q-1 0 0 0 0-1 0 0 13 5 20 16c2 3 4 5 4 8v1l-10-4-5-4-8-7Z"/><path fill="#ad6560" d="m536 397 1 10-4-3h-1l4-7Z"/><path fill="#f4986e" d="M210 405v1h1l2 1a1 1-27 0 0 1 0h2l1 1h1a1 1 0 0 0 1 1q1-1 2 1a1 1 67 0 0 1 0l1 1h1l1 1a1 1-17 0 0 1 0l1 1h1l1 1v3l-9 4-21 6q1-8 4-13l7-9Z"/><path fill="#f67954" d="m541 422-2 2v1h-1l-4 3h-1l-1 1-1 1-4 2-2-1-4-9 7-9h1q7 3 12 9Z"/><path fill="#f28773" d="m301 420 2 6v4q-3 9-11 15l-14 10-21-23h-2l-4-5h-2q-2-3-4-3 13-10 28-11l20 2q4 1 8 5Z"/><path fill="#ad6560" d="M301 420q7 5 11 12 4 8 0 15-3 6-11 8l-17 5-18 3-20 5q16-5 32-13l14-10q8-6 11-15v-4l-2-6Zm220 2 4 9-10-4v-1l6-4Z"/><path fill="#f4986e" d="M541 422q7 9 11 20l1 6h-1l-9-7-6-3q-4-4-10-6l4-2 1-1 1-1h1l4-3h1v-1l2-2Zm-296 2q2 0 4 3h2l4 5h2l21 23q-16 8-32 13l-20 4h-5a2 2 0 0 1-2-1q-1-10 3-19 7-16 23-28Z"/><path fill="#f67954" d="m522 440-15 15-7-8-1-6c6-3 16-2 23-1Z"/><path fill="#f4986e" d="M522 440q2-1 6 1 17 6 19 25l-1 3h-3l-28-9-8-5 15-15Z"/><path fill="#ad6560" d="m499 441 1 6 7 8 8 5-22-6-4-2a2 2 0 0 1 0-3q4-5 10-8Z"/></svg>