<svg width="250" height="298" viewBox="0 0 250 298" fill="none" xmlns="http://www.w3.org/2000/svg">
<path d="M219.992 53.1252C195.693 18.4708 147.703 8.19916 113.003 30.2286L52.0621 68.9306C43.8296 74.0914 36.7683 80.907 31.3296 88.9418C25.8909 96.9765 22.1945 106.054 20.4766 115.593C17.5696 131.661 20.1247 148.237 27.7374 162.695C22.521 170.58 18.9631 179.437 17.2789 188.73C15.5429 198.462 15.7744 208.44 17.9599 218.081C20.1454 227.722 24.2409 236.832 30.0063 244.875C54.3105 279.532 102.301 289.799 136.996 267.771L197.936 229.069C206.169 223.909 213.231 217.093 218.67 209.059C224.109 201.024 227.805 191.946 229.522 182.407C232.429 166.339 229.875 149.764 222.267 135.304C227.482 127.419 231.038 118.563 232.721 109.27C234.458 99.5383 234.227 89.5592 232.041 79.918C229.856 70.2768 225.76 61.1677 219.993 53.1252" fill="#FF3E00"/>
<path d="M107.049 248.135C97.459 250.62 87.3345 250.112 78.0432 246.68C68.7519 243.249 60.7413 237.058 55.0934 228.945C51.6256 224.109 49.1621 218.631 47.8475 212.833C46.5329 207.035 46.3936 201.034 47.4378 195.182C47.7913 193.26 48.2779 191.366 48.8941 189.511L50.0417 186.024L53.1639 188.309C60.3744 193.588 68.4365 197.602 77.0027 200.177L79.2677 200.862L79.059 203.115C78.7823 206.319 79.653 209.518 81.517 212.143C83.2167 214.587 85.6281 216.452 88.4255 217.487C91.223 218.521 94.2717 218.676 97.1599 217.929C98.4844 217.576 99.7468 217.023 100.903 216.289L161.846 177.592C163.337 176.656 164.616 175.421 165.602 173.966C166.588 172.51 167.258 170.866 167.571 169.138C167.884 167.374 167.841 165.566 167.445 163.819C167.049 162.072 166.308 160.42 165.264 158.962C163.563 156.517 161.151 154.652 158.353 153.617C155.554 152.581 152.505 152.427 149.615 153.173C148.292 153.526 147.032 154.078 145.877 154.811L122.622 169.583C118.798 172.006 114.624 173.832 110.247 174.998C100.657 177.482 90.5322 176.975 81.241 173.543C71.9498 170.111 63.9393 163.921 58.2915 155.808C54.8236 150.971 52.36 145.494 51.0454 139.696C49.7308 133.898 49.5915 127.897 50.6359 122.044C51.6687 116.308 53.8916 110.85 57.1625 106.019C60.4334 101.188 64.6801 97.0897 69.6312 93.9874L130.568 55.2866C134.394 52.8599 138.57 51.0315 142.952 49.8651C152.542 47.3805 162.666 47.8884 171.957 51.3202C181.248 54.7519 189.259 60.9421 194.906 69.0549C198.374 73.8914 200.838 79.3693 202.152 85.1672C203.467 90.9651 203.606 96.9662 202.562 102.818C202.207 104.74 201.72 106.634 201.106 108.489L199.958 111.976L196.838 109.695C189.628 104.412 181.565 100.397 172.997 97.8212L170.732 97.1362L170.941 94.8838C171.215 91.6797 170.345 88.482 168.483 85.8553C166.783 83.4115 164.372 81.5464 161.574 80.5118C158.777 79.4772 155.728 79.3229 152.84 80.0699C151.515 80.4226 150.253 80.9755 149.097 81.7092L88.1541 120.408C86.6632 121.343 85.3843 122.578 84.3992 124.033C83.4141 125.488 82.7444 127.132 82.4328 128.859C82.1182 130.623 82.1598 132.432 82.5552 134.18C82.9506 135.927 83.6919 137.579 84.7356 139.037C86.4364 141.482 88.8488 143.347 91.6472 144.382C94.4455 145.418 97.4952 145.572 100.385 144.826C101.709 144.473 102.971 143.92 104.128 143.187L127.38 128.421C131.202 125.995 135.375 124.167 139.753 123.001C149.344 120.517 159.468 121.025 168.759 124.456C178.05 127.888 186.061 134.078 191.709 142.191C195.176 147.028 197.64 152.506 198.955 158.303C200.269 164.101 200.409 170.102 199.364 175.955C198.331 181.691 196.107 187.15 192.837 191.982C189.566 196.813 185.32 200.912 180.369 204.016L119.431 242.714C115.606 245.14 111.43 246.969 107.048 248.135" fill="white"/>
</svg>
