<svg width="40" height="40" viewBox="0 0 40 40" fill="none" xmlns="http://www.w3.org/2000/svg">
<path d="M33,19.999C33,27.18,27.18,33,20,33S7,27.18,7,19.999C7,12.819,12.82,7,20,7S33,12.819,33,19.999z" fill="black"/>
<path d="M25.684,11.81c-1.321,0.043-2.473,0.773-3.332,1.779c-0.95,1.104-1.582,2.414-2.038,3.751 c-0.814-0.668-1.442-1.532-2.75-1.909c-1.01-0.29-2.072-0.171-3.047,0.556c-0.461,0.346-0.781,0.867-0.932,1.358 c-0.392,1.274,0.412,2.41,0.777,2.817l0.799,0.854c0.165,0.169,0.562,0.605,0.368,1.232c-0.209,0.683-1.032,1.124-1.876,0.865 c-0.376-0.116-0.918-0.396-0.797-0.792c0.05-0.161,0.166-0.285,0.229-0.422c0.057-0.12,0.084-0.21,0.102-0.264 c0.154-0.502-0.057-1.157-0.596-1.323c-0.503-0.155-1.018-0.034-1.218,0.614c-0.226,0.735,0.126,2.072,2.013,2.651 c2.21,0.681,4.079-0.523,4.344-2.092c0.167-0.982-0.277-1.713-1.09-2.652l-0.663-0.733c-0.401-0.401-0.539-1.084-0.124-1.61 c0.351-0.444,0.85-0.632,1.667-0.41c1.193,0.324,1.725,1.152,2.613,1.821c-0.366,1.202-0.606,2.408-0.822,3.49l-0.133,0.807 c-0.634,3.327-1.119,5.155-2.377,6.202c-0.254,0.182-0.617,0.451-1.163,0.472c-0.286,0.009-0.379-0.188-0.382-0.275 c-0.007-0.201,0.162-0.292,0.275-0.384c0.168-0.092,0.422-0.244,0.405-0.731c-0.019-0.576-0.495-1.074-1.185-1.053 c-0.517,0.018-1.304,0.503-1.274,1.395c0.031,0.92,0.887,1.608,2.18,1.565c0.691-0.024,2.233-0.306,3.752-2.11 c1.77-2.073,2.265-4.445,2.637-6.185l0.416-2.292c0.229,0.027,0.478,0.045,0.745,0.053c2.203,0.045,3.305-1.095,3.321-1.924 c0.012-0.502-0.329-0.997-0.807-0.987c-0.341,0.011-0.77,0.237-0.872,0.708c-0.102,0.463,0.701,0.881,0.074,1.287 c-0.444,0.288-1.242,0.491-2.366,0.326l0.204-1.129c0.418-2.141,0.932-4.775,2.883-4.838c0.143-0.008,0.662,0.006,0.675,0.35 c0.003,0.116-0.025,0.146-0.16,0.408c-0.138,0.204-0.189,0.38-0.182,0.581c0.019,0.546,0.434,0.906,1.036,0.885 c0.805-0.027,1.035-0.811,1.022-1.214C28.001,12.364,27.003,11.766,25.684,11.81z" fill="white"/>
</svg>
