<svg version="1.2" xmlns="http://www.w3.org/2000/svg" viewBox="0 0 449 449" width="449" height="449"><style>.a{fill:#fff}</style><path fill-rule="evenodd" class="a" d="m224.6 448.9c-124.1 0-224.3-100.3-224.3-224.3 0-124.1 100.2-224.3 224.3-224.3 124 0 224.3 100.2 224.3 224.3 0 124-100.3 224.3-224.3 224.3zm138.6-339.7c-0.6-16.4-17.8-26.7-40.5-25.9-22.8 0.7-42.7 13.3-57.5 30.7-16.4 19-27.3 41.6-35.2 64.7-14-11.5-24.9-26.5-47.4-32.9-17.5-5.1-35.8-3-52.6 9.6-8 5.9-13.5 14.9-16.1 23.4-6.8 22 7.1 41.6 13.4 48.6l13.8 14.8c2.8 2.9 9.7 10.4 6.3 21.2-3.6 11.8-17.8 19.4-32.3 15-6.5-2-15.9-6.9-13.8-13.7 0.9-2.8 2.9-4.9 3.9-7.3 1-2.1 1.5-3.6 1.8-4.5 2.6-8.7-1-20-10.3-22.9-8.7-2.6-17.6-0.5-21 10.6-3.9 12.7 2.2 35.8 34.7 45.8 38.2 11.7 70.4-9 75-36.1 2.9-17-4.8-29.6-18.8-45.8l-11.5-12.6c-6.9-6.9-9.2-18.7-2.1-27.8 6.1-7.6 14.7-10.9 28.8-7.1 20.6 5.6 29.8 19.9 45.1 31.4-6.3 20.8-10.5 41.6-14.2 60.3l-2.3 13.9c-11 57.4-19.3 88.9-41 107.1-4.4 3.1-10.7 7.7-20.1 8.1-4.9 0.1-6.5-3.3-6.6-4.8-0.1-3.4 2.8-5 4.7-6.6 2.9-1.6 7.3-4.2 7-12.6-0.3-10-8.5-18.6-20.4-18.2-8.9 0.3-22.5 8.7-22 24.1 0.5 15.8 15.3 27.7 37.6 27 11.9-0.4 38.5-5.3 64.8-36.5 30.5-35.7 39-76.7 45.4-106.6l7.2-39.6c4 0.4 8.2 0.8 12.9 0.9 38 0.8 57-18.9 57.3-33.2 0.2-8.7-5.7-17.2-13.9-17-5.9 0.1-13.3 4.1-15.1 12.2-1.7 8 12.1 15.2 1.3 22.2-7.7 5-21.4 8.5-40.8 5.6l3.5-19.5c7.2-36.9 16.1-82.4 49.7-83.5 2.5-0.1 11.5 0.1 11.7 6.1 0 2-0.5 2.5-2.8 7-2.3 3.5-3.2 6.6-3.1 10 0.3 9.4 7.5 15.7 17.9 15.3 13.9-0.5 17.8-14 17.6-20.9z"/></svg>