<svg version="1.2" xmlns="http://www.w3.org/2000/svg" viewBox="0 0 449 449" width="449" height="449"><style>.a{fill:#2c2e35}.b{fill:#fff}</style><path class="a" d="m224.5 448.9c-124.1 0-224.4-100.3-224.4-224.3 0-124.1 100.3-224.3 224.4-224.3 124 0 224.3 100.2 224.3 224.3 0 124-100.3 224.3-224.3 224.3z"/><path class="b" d="m363.1 109.2c0.2 6.9-3.8 20.4-17.6 20.9-10.4 0.4-17.6-5.9-17.9-15.3-0.1-3.4 0.7-6.5 3.1-10 2.3-4.5 2.8-5 2.8-7-0.2-6-9.2-6.2-11.7-6.1-33.6 1.1-42.5 46.6-49.7 83.5l-3.5 19.5c19.4 2.9 33.1-0.6 40.8-5.6 10.8-7-3-14.2-1.3-22.2 1.8-8.1 9.2-12.1 15.1-12.2 8.2-0.2 14.1 8.3 13.9 17-0.3 14.3-19.3 34-57.3 33.2-4.7-0.1-8.9-0.5-12.9-0.9l-7.2 39.6c-6.4 29.9-14.9 70.9-45.5 106.6-26.2 31.2-52.8 36.1-64.7 36.5-22.3 0.7-37.1-11.2-37.6-27-0.5-15.4 13.1-23.8 22-24.1 11.9-0.4 20.1 8.2 20.4 18.2 0.3 8.4-4.1 11-7 12.6-1.9 1.6-4.8 3.2-4.7 6.6 0 1.5 1.6 4.9 6.6 4.8 9.4-0.4 15.7-5 20-8.2 21.8-18.1 30.1-49.6 41.1-107l2.3-13.9c3.7-18.7 7.8-39.5 14.2-60.3-15.4-11.5-24.5-25.8-45.1-31.4-14.1-3.8-22.7-0.5-28.8 7.1-7.2 9.1-4.8 20.9 2.1 27.8l11.5 12.6c14 16.2 21.7 28.8 18.8 45.8-4.6 27.1-36.8 47.8-75 36.1-32.5-10-38.6-33.1-34.7-45.8 3.4-11.1 12.3-13.2 21-10.6 9.3 2.9 12.9 14.2 10.3 22.9-0.3 0.9-0.8 2.4-1.8 4.5-1 2.4-3 4.5-3.9 7.3-2.1 6.8 7.2 11.7 13.7 13.7 14.6 4.4 28.8-3.2 32.4-15 3.4-10.8-3.5-18.3-6.3-21.2l-13.8-14.8c-6.3-7-20.2-26.6-13.4-48.6 2.6-8.5 8.1-17.5 16.1-23.4 16.8-12.6 35.1-14.7 52.5-9.6 22.6 6.4 33.4 21.4 47.5 32.9 7.9-23.1 18.8-45.7 35.2-64.7 14.8-17.4 34.7-30 57.5-30.7 22.7-0.8 39.9 9.5 40.5 25.9z"/></svg>