<svg width="40" height="40" viewBox="0 0 40 40" fill="none" xmlns="http://www.w3.org/2000/svg">
<path d="M20,7C12.82,7,7,12.819,7,19.999C7,27.18,12.82,33,20,33c7.18,0,13-5.82,13-13.001C33,12.819,27.18,7,20,7z M27.014,14.522c-0.603,0.021-1.018-0.339-1.037-0.885c-0.006-0.201,0.045-0.377,0.183-0.581c0.135-0.262,0.163-0.292,0.159-0.408 c-0.012-0.344-0.531-0.358-0.674-0.35c-1.951,0.063-2.465,2.697-2.883,4.838l-0.205,1.129c1.125,0.165,1.922-0.038,2.366-0.326 c0.627-0.406-0.176-0.824-0.073-1.287c0.102-0.471,0.53-0.697,0.871-0.708c0.479-0.01,0.819,0.485,0.807,0.987 c-0.016,0.829-1.117,1.969-3.32,1.924c-0.268-0.008-0.516-0.026-0.745-0.053l-0.416,2.292c-0.372,1.74-0.866,4.112-2.637,6.186 c-1.519,1.804-3.061,2.086-3.752,2.109c-1.293,0.043-2.149-0.645-2.18-1.564c-0.03-0.893,0.757-1.377,1.274-1.395 c0.69-0.021,1.166,0.477,1.185,1.053c0.017,0.486-0.237,0.639-0.405,0.73c-0.113,0.092-0.282,0.184-0.275,0.385 c0.003,0.086,0.096,0.283,0.382,0.274c0.546-0.021,0.909-0.29,1.163-0.472c1.258-1.047,1.743-2.875,2.377-6.202l0.133-0.808 c0.216-1.082,0.456-2.288,0.822-3.49c-0.888-0.669-1.42-1.497-2.613-1.821c-0.817-0.222-1.316-0.034-1.667,0.41 c-0.415,0.526-0.277,1.209,0.124,1.61l0.663,0.733c0.813,0.939,1.257,1.67,1.09,2.651c-0.265,1.57-2.134,2.773-4.344,2.093 c-1.887-0.579-2.239-1.916-2.013-2.651c0.2-0.648,0.715-0.769,1.218-0.614c0.539,0.166,0.75,0.821,0.596,1.323 c-0.018,0.055-0.045,0.145-0.102,0.264c-0.063,0.138-0.179,0.262-0.229,0.422c-0.121,0.396,0.421,0.677,0.797,0.793 c0.844,0.259,1.667-0.182,1.876-0.865c0.194-0.627-0.203-1.063-0.368-1.232l-0.799-0.854c-0.365-0.407-1.169-1.543-0.777-2.817 c0.151-0.491,0.471-1.012,0.932-1.358c0.975-0.727,2.037-0.846,3.047-0.556c1.308,0.377,1.936,1.241,2.75,1.909 c0.456-1.337,1.088-2.647,2.038-3.751c0.859-1.006,2.012-1.736,3.332-1.779c1.319-0.044,2.317,0.554,2.352,1.498C28.048,13.711,27.818,14.495,27.014,14.522z" fill="white"/>
</svg>
